<?xml version="1.0" encoding="UTF-8"?>
<svg width="284px" height="246px" viewBox="0 0 284 246" version="1.1" xmlns="http://www.w3.org/2000/svg" xmlns:xlink="http://www.w3.org/1999/xlink">
    <g id="Page-1" stroke="none" stroke-width="1" fill="none" fill-rule="evenodd">
        <g id="img-squares" fill="#000000">
            <path d="M0,152 L19.5588235,152 L19.5588235,171.583333 L0,171.583333 L0,152 Z M0,189.861111 L19.5588235,189.861111 L19.5588235,209.444444 L0,209.444444 L0,189.861111 Z M39.1176471,152 L58.6764706,152 L58.6764706,171.583333 L39.1176471,171.583333 L39.1176471,152 Z M39.1176471,189.861111 L58.6764706,189.861111 L58.6764706,209.444444 L39.1176471,209.444444 L39.1176471,189.861111 Z M75.627451,152 L95.1862745,152 L95.1862745,171.583333 L75.627451,171.583333 L75.627451,152 Z M75.627451,189.861111 L95.1862745,189.861111 L95.1862745,209.444444 L75.627451,209.444444 L75.627451,189.861111 Z M113.441176,152 L133,152 L133,171.583333 L113.441176,171.583333 L113.441176,152 Z M113.441176,189.861111 L133,189.861111 L133,209.444444 L113.441176,209.444444 L113.441176,189.861111 Z M0,226.416667 L19.5588235,226.416667 L19.5588235,246 L0,246 L0,226.416667 Z M39.1176471,226.416667 L58.6764706,226.416667 L58.6764706,246 L39.1176471,246 L39.1176471,226.416667 Z M75.627451,226.416667 L95.1862745,226.416667 L95.1862745,246 L75.627451,246 L75.627451,226.416667 Z M113.441176,226.416667 L133,226.416667 L133,246 L113.441176,246 L113.441176,226.416667 Z M152,152 L171.60396,152 L171.60396,171.583333 L152,171.583333 L152,152 Z M152,189.861111 L171.60396,189.861111 L171.60396,209.444444 L152,209.444444 L152,189.861111 Z M188.594059,152 L208.19802,152 L208.19802,171.583333 L188.594059,171.583333 L188.594059,152 Z M188.594059,189.861111 L208.19802,189.861111 L208.19802,209.444444 L188.594059,209.444444 L188.594059,189.861111 Z M227.80198,152 L247.405941,152 L247.405941,171.583333 L227.80198,171.583333 L227.80198,152 Z M227.80198,189.861111 L247.405941,189.861111 L247.405941,209.444444 L227.80198,209.444444 L227.80198,189.861111 Z M264.39604,152 L284,152 L284,171.583333 L264.39604,171.583333 L264.39604,152 Z M264.39604,189.861111 L284,189.861111 L284,209.444444 L264.39604,209.444444 L264.39604,189.861111 Z M152,226.416667 L171.60396,226.416667 L171.60396,246 L152,246 L152,226.416667 Z M188.594059,226.416667 L208.19802,226.416667 L208.19802,246 L188.594059,246 L188.594059,226.416667 Z M227.80198,226.416667 L247.405941,226.416667 L247.405941,246 L227.80198,246 L227.80198,226.416667 Z M264.39604,226.416667 L284,226.416667 L284,246 L264.39604,246 L264.39604,226.416667 Z M0,0 L19.5588235,0 L19.5588235,19.5588235 L0,19.5588235 L0,0 Z M0,37.8137255 L19.5588235,37.8137255 L19.5588235,57.372549 L0,57.372549 L0,37.8137255 Z M39.1176471,0 L58.6764706,0 L58.6764706,19.5588235 L39.1176471,19.5588235 L39.1176471,0 Z M39.1176471,37.8137255 L58.6764706,37.8137255 L58.6764706,57.372549 L39.1176471,57.372549 L39.1176471,37.8137255 Z M75.627451,0 L95.1862745,0 L95.1862745,19.5588235 L75.627451,19.5588235 L75.627451,0 Z M75.627451,37.8137255 L95.1862745,37.8137255 L95.1862745,57.372549 L75.627451,57.372549 L75.627451,37.8137255 Z M113.441176,0 L133,0 L133,19.5588235 L113.441176,19.5588235 L113.441176,0 Z M113.441176,37.8137255 L133,37.8137255 L133,57.372549 L113.441176,57.372549 L113.441176,37.8137255 Z M0,74.3235294 L19.5588235,74.3235294 L19.5588235,93.8823529 L0,93.8823529 L0,74.3235294 Z M39.1176471,74.3235294 L58.6764706,74.3235294 L58.6764706,93.8823529 L39.1176471,93.8823529 L39.1176471,74.3235294 Z M75.627451,74.3235294 L95.1862745,74.3235294 L95.1862745,93.8823529 L75.627451,93.8823529 L75.627451,74.3235294 Z M113.441176,74.3235294 L133,74.3235294 L133,93.8823529 L113.441176,93.8823529 L113.441176,74.3235294 Z M0,113.441176 L19.5588235,113.441176 L19.5588235,133 L0,133 L0,113.441176 Z M39.1176471,113.441176 L58.6764706,113.441176 L58.6764706,133 L39.1176471,133 L39.1176471,113.441176 Z M75.627451,113.441176 L95.1862745,113.441176 L95.1862745,133 L75.627451,133 L75.627451,113.441176 Z M113.441176,113.441176 L133,113.441176 L133,133 L113.441176,133 L113.441176,113.441176 Z M152,0 L171.60396,0 L171.60396,19.5588235 L152,19.5588235 L152,0 Z M152,37.8137255 L171.60396,37.8137255 L171.60396,57.372549 L152,57.372549 L152,37.8137255 Z M188.594059,0 L208.19802,0 L208.19802,19.5588235 L188.594059,19.5588235 L188.594059,0 Z M188.594059,37.8137255 L208.19802,37.8137255 L208.19802,57.372549 L188.594059,57.372549 L188.594059,37.8137255 Z M227.80198,0 L247.405941,0 L247.405941,19.5588235 L227.80198,19.5588235 L227.80198,0 Z M227.80198,37.8137255 L247.405941,37.8137255 L247.405941,57.372549 L227.80198,57.372549 L227.80198,37.8137255 Z M264.39604,0 L284,0 L284,19.5588235 L264.39604,19.5588235 L264.39604,0 Z M264.39604,37.8137255 L284,37.8137255 L284,57.372549 L264.39604,57.372549 L264.39604,37.8137255 Z M152,74.3235294 L171.60396,74.3235294 L171.60396,93.8823529 L152,93.8823529 L152,74.3235294 Z M188.594059,74.3235294 L208.19802,74.3235294 L208.19802,93.8823529 L188.594059,93.8823529 L188.594059,74.3235294 Z M227.80198,74.3235294 L247.405941,74.3235294 L247.405941,93.8823529 L227.80198,93.8823529 L227.80198,74.3235294 Z M264.39604,74.3235294 L284,74.3235294 L284,93.8823529 L264.39604,93.8823529 L264.39604,74.3235294 Z M152,113.441176 L171.60396,113.441176 L171.60396,133 L152,133 L152,113.441176 Z M188.594059,113.441176 L208.19802,113.441176 L208.19802,133 L188.594059,133 L188.594059,113.441176 Z M227.80198,113.441176 L247.405941,113.441176 L247.405941,133 L227.80198,133 L227.80198,113.441176 Z M264.39604,113.441176 L284,113.441176 L284,133 L264.39604,133 L264.39604,113.441176 Z" id="img-sqaures"></path>
        </g>
    </g>
</svg>