<?xml version="1.0" encoding="UTF-8"?>
<svg width="160px" height="160px" viewBox="0 0 160 160" version="1.1" xmlns="http://www.w3.org/2000/svg" xmlns:xlink="http://www.w3.org/1999/xlink">
    <defs>
        <polygon id="path-1" points="0 159.695238 160 159.695238 160 0.231314286 0 0.231314286"></polygon>
    </defs>
    <g id="img-testimonial-1" stroke="none" stroke-width="1" fill="none" fill-rule="evenodd">
        <g>
            <polygon id="Fill-1" fill="#FFFFFF" points="110.140246 158.614735 158.835015 158.614735 158.835015 128.354926 119.665477 128.354926 119.665477 148.702659"></polygon>
            <g id="Group-55" transform="translate(0.000000, 0.073448)">
                <path d="M112.857815,157.387124 L157.669815,157.387124 L157.669815,129.435581 L120.830431,129.435581 L120.830431,148.628876 C120.830431,148.9248 120.715662,149.209752 120.509508,149.42461 L112.857815,157.387124 Z M158.835046,159.695086 L110.140277,159.695086 C109.674123,159.695086 109.252892,159.42019 109.0692,158.995962 C108.885815,158.571733 108.975046,158.079848 109.296277,157.745524 L118.500277,148.167467 L118.500277,128.281448 C118.500277,127.64419 119.021815,127.127619 119.665508,127.127619 L158.835046,127.127619 C159.478431,127.127619 159.999969,127.64419 159.999969,128.281448 L159.999969,158.541257 C159.999969,159.178514 159.478431,159.695086 158.835046,159.695086 Z" id="Fill-2" fill="#000000"></path>
                <mask id="mask-2" fill="white">
                    <use xlink:href="#path-1"></use>
                </mask>
                <g id="Clip-5"></g>
                <polygon id="Fill-4" fill="#FFFFFF" mask="url(#mask-2)" points="1.16523077 41.4095238 44.8393846 41.4095238 44.8393846 5.83314286 1.16523077 5.83314286"></polygon>
                <path d="M2.33046154,40.2556952 L43.6741538,40.2556952 L43.6741538,6.98697143 L2.33046154,6.98697143 L2.33046154,40.2556952 Z M44.8393846,42.5636571 L1.16523077,42.5636571 C0.521846154,42.5636571 0.000307692308,42.0470857 0.000307692308,41.4098286 L0.000307692308,5.8328381 C0.000307692308,5.19558095 0.521846154,4.67870476 1.16523077,4.67870476 L44.8393846,4.67870476 C45.4827692,4.67870476 46.0043077,5.19558095 46.0043077,5.8328381 L46.0043077,41.4098286 C46.0043077,42.0470857 45.4827692,42.5636571 44.8393846,42.5636571 Z" id="Fill-6" fill="#000000" mask="url(#mask-2)"></path>
                <polygon id="Fill-7" fill="#FFFFFF" mask="url(#mask-2)" points="89.8397846 77.1091505 112.5604 77.1091505 112.5604 44.7446552 68.5613231 44.7446552 68.5613231 77.1091505 76.9262462 77.1091505 76.9262462 89.6650362"></polygon>
                <path d="M69.7264923,75.9549867 L76.9261846,75.9549867 C77.5695692,75.9549867 78.0917231,76.4715581 78.0917231,77.1088152 L78.0917231,86.915139 L89.0237231,76.2853486 C89.2412615,76.073539 89.5344923,75.9549867 89.8397231,75.9549867 L111.395415,75.9549867 L111.395415,45.8984533 L69.7264923,45.8984533 L69.7264923,75.9549867 Z M76.9258769,90.819139 C76.7738769,90.819139 76.6209538,90.7901867 76.4754154,90.729539 C76.0428,90.5497295 75.7609538,90.1303771 75.7609538,89.6653105 L75.7609538,78.2629486 L68.5615692,78.2629486 C67.9178769,78.2629486 67.3963385,77.7463771 67.3963385,77.1088152 L67.3963385,44.7446248 C67.3963385,44.1070629 67.9178769,43.5904914 68.5615692,43.5904914 L112.560338,43.5904914 C113.204031,43.5904914 113.725569,44.1070629 113.725569,44.7446248 L113.725569,77.1088152 C113.725569,77.7463771 113.204031,78.2629486 112.560338,78.2629486 L90.3160308,78.2629486 L77.7424923,90.4887771 C77.5203385,90.7048533 77.2255692,90.819139 76.9258769,90.819139 Z" id="Fill-8" fill="#000000" mask="url(#mask-2)"></path>
                <path d="M68.5612308,114.773425 L65.1064615,114.773425 C57.792,114.773425 51.8621538,108.900358 51.8621538,101.655253 C51.8621538,94.4101486 57.792,88.5367771 65.1064615,88.5367771 L68.5612308,88.5367771 L68.5612308,114.773425 Z" id="Fill-9" fill="#00EFB6" mask="url(#mask-2)"></path>
                <path d="M64.4296308,89.6910019 C58.1422462,89.6910019 53.0271692,94.757059 53.0271692,100.984564 L53.0271692,102.325821 C53.0271692,108.553326 58.1422462,113.619688 64.4296308,113.619688 L67.3964,113.619688 L67.3964,89.6910019 L64.4296308,89.6910019 Z M68.5616308,115.92765 L64.4296308,115.92765 C56.8576308,115.92765 50.6970154,109.825707 50.6970154,102.325821 L50.6970154,100.984564 C50.6970154,93.4843733 56.8576308,87.3827352 64.4296308,87.3827352 L68.5616308,87.3827352 C69.2050154,87.3827352 69.7265538,87.8996114 69.7265538,88.5368686 L69.7265538,114.773516 C69.7265538,115.411078 69.2050154,115.92765 68.5616308,115.92765 Z" id="Fill-10" fill="#000000" mask="url(#mask-2)"></path>
                <path d="M51.8623077,102.809143 L41.9878462,102.809143 C41.4183077,102.809143 40.9318462,102.401067 40.8386154,101.843962 C40.7823077,101.509638 39.4976923,93.5459048 42.1949231,84.119619 C44.6952308,75.3814857 51.2333846,63.7590857 68.1838462,58.0109714 C68.7930769,57.8037333 69.4555385,58.1261714 69.6635385,58.7286857 C69.8721538,59.3318095 69.5478462,59.9879619 68.9389231,60.1945905 C56.1281538,64.5389714 47.8927692,72.7718095 44.4610769,84.6657524 C42.4106154,91.7709714 42.7752308,98.1438476 43.0176923,100.501181 L51.8623077,100.501181 C52.5056923,100.501181 53.0272308,101.017752 53.0272308,101.655314 C53.0272308,102.292571 52.5056923,102.809143 51.8623077,102.809143" id="Fill-11" fill="#000000" mask="url(#mask-2)"></path>
                <path d="M89.8866462,114.773425 L93.3414154,114.773425 C100.655877,114.773425 106.585723,108.900358 106.585723,101.655253 C106.585723,94.4101486 100.655877,88.5367771 93.3414154,88.5367771 L89.8866462,88.5367771 L89.8866462,114.773425 Z" id="Fill-12" fill="#00EFB6" mask="url(#mask-2)"></path>
                <path d="M91.0519077,113.619566 L94.0186769,113.619566 C100.305446,113.619566 105.420523,108.553204 105.420523,102.325699 L105.420523,100.984442 C105.420523,94.7569371 100.305446,89.69088 94.0186769,89.69088 L91.0519077,89.69088 L91.0519077,113.619566 Z M94.0186769,115.927528 L89.8866769,115.927528 C89.2432923,115.927528 88.7214462,115.410956 88.7214462,114.773394 L88.7214462,88.5367467 C88.7214462,87.8994895 89.2432923,87.3826133 89.8866769,87.3826133 L94.0186769,87.3826133 C101.590369,87.3826133 107.750677,93.4845562 107.750677,100.984442 L107.750677,102.325699 C107.750677,109.82589 101.590369,115.927528 94.0186769,115.927528 Z" id="Fill-13" fill="#000000" mask="url(#mask-2)"></path>
                <path d="M116.459969,102.809143 L106.585508,102.809143 C105.942123,102.809143 105.420585,102.292571 105.420585,101.655314 C105.420585,101.017752 105.942123,100.501181 106.585508,100.501181 L115.429508,100.501181 C115.744892,97.4118095 116.262431,87.4122667 111.273815,77.8488381 C110.978431,77.2822857 111.202123,76.5859048 111.774123,76.2936381 C112.345508,76.0007619 113.048277,76.2229333 113.343969,76.789181 C119.676585,88.9287619 117.696892,101.322514 117.6092,101.843962 C117.516277,102.401067 117.029815,102.809143 116.459969,102.809143" id="Fill-14" fill="#000000" mask="url(#mask-2)"></path>
                <path d="M78.1612923,61.2406857 C78.1612923,59.7345524 79.3942154,58.5136762 80.9145231,58.5136762 C82.4354462,58.5136762 83.6677538,59.7345524 83.6677538,61.2406857 C83.6677538,62.746819 82.4354462,63.9676952 80.9145231,63.9676952 C79.3942154,63.9676952 78.1612923,62.746819 78.1612923,61.2406857" id="Fill-15" fill="#00EFB6" mask="url(#mask-2)"></path>
                <path d="M87.8076308,61.2406857 C87.8076308,59.7345524 89.0402462,58.5136762 90.5608615,58.5136762 C92.0814769,58.5136762 93.3140923,59.7345524 93.3140923,61.2406857 C93.3140923,62.746819 92.0814769,63.9676952 90.5608615,63.9676952 C89.0402462,63.9676952 87.8076308,62.746819 87.8076308,61.2406857" id="Fill-16" fill="#00EFB6" mask="url(#mask-2)"></path>
                <path d="M97.4536615,61.2406857 C97.4536615,59.7345524 98.6865846,58.5136762 100.206892,58.5136762 C101.727815,58.5136762 102.960431,59.7345524 102.960431,61.2406857 C102.960431,62.746819 101.727815,63.9676952 100.206892,63.9676952 C98.6865846,63.9676952 97.4536615,62.746819 97.4536615,61.2406857" id="Fill-17" fill="#00EFB6" mask="url(#mask-2)"></path>
                <path d="M139.240923,151.24547 L146.361846,143.845851 C147.134154,143.043109 147.565231,141.976747 147.565231,140.867718 C147.565231,139.804404 147.168615,138.77827 146.452,137.986499 C145.092308,136.484023 142.776923,136.31427 141.208308,137.60128 L139.240923,139.215909 L137.273231,137.60128 C135.704923,136.31427 133.389538,136.484023 132.029538,137.986499 C131.312923,138.77827 130.916615,139.804404 130.916615,140.867718 C130.916615,141.976747 131.347692,143.043109 132.119692,143.845851 L139.240923,151.24547 Z" id="Fill-18" fill="#5249C6" mask="url(#mask-2)"></path>
                <path d="M134.852985,137.888914 C134.132677,137.888914 133.416985,138.182705 132.8976,138.756876 C132.371446,139.337752 132.081908,140.087467 132.081908,140.867657 C132.081908,141.683505 132.395138,142.458514 132.963138,143.049448 L139.240985,149.572876 L145.518215,143.049448 C146.086831,142.458514 146.399754,141.683505 146.399754,140.867657 C146.399754,140.087467 146.110215,139.337752 145.584369,138.756876 C144.638523,137.712457 143.042831,137.595124 141.951446,138.49021 L139.984369,140.104838 C139.553292,140.458667 138.928677,140.458667 138.4976,140.104838 L136.529908,138.49021 C136.038215,138.0864 135.444062,137.888914 134.852985,137.888914 M139.240985,152.399543 C138.922523,152.399543 138.617292,152.270019 138.3976,152.041448 L131.276677,144.641829 C130.293292,143.619657 129.751446,142.279314 129.751446,140.867657 C129.751446,139.517562 130.252677,138.221105 131.162523,137.216 C132.946831,135.244495 135.9576,135.022629 138.016369,136.712838 L139.240985,137.717638 L140.464677,136.712838 C142.523446,135.023543 145.534215,135.24419 147.319754,137.216305 C148.229292,138.22141 148.730215,139.518171 148.730215,140.867657 C148.730215,142.279314 148.188677,143.619657 147.205292,144.641829 L140.084369,152.041448 C139.864369,152.270019 139.559446,152.399543 139.240985,152.399543" id="Fill-19" fill="#000000" mask="url(#mask-2)"></path>
                <path d="M138.975292,85.740099 C138.975292,80.9416229 142.902677,77.0516419 147.746985,77.0516419 C152.591292,77.0516419 156.518677,80.9416229 156.518677,85.740099 C156.518677,90.5382705 152.591292,94.4282514 147.746985,94.4282514 C142.902677,94.4282514 138.975292,90.5382705 138.975292,85.740099" id="Fill-20" fill="#F2E7FD" mask="url(#mask-2)"></path>
                <path d="M147.746923,78.2058667 C143.552769,78.2058667 140.140154,81.5856762 140.140154,85.7398857 C140.140154,89.8940952 143.552769,93.2739048 147.746923,93.2739048 C151.941077,93.2739048 155.353385,89.8940952 155.353385,85.7398857 C155.353385,81.5856762 151.941077,78.2058667 147.746923,78.2058667 M147.746923,95.5821714 C142.267538,95.5821714 137.81,91.166781 137.81,85.7398857 C137.81,80.3126857 142.267538,75.8979048 147.746923,75.8979048 C153.226308,75.8979048 157.683538,80.3126857 157.683538,85.7398857 C157.683538,91.166781 153.226308,95.5821714 147.746923,95.5821714" id="Fill-21" fill="#000000" mask="url(#mask-2)"></path>
                <path d="M130.469877,105.028206 C130.171415,105.028206 129.873569,104.915444 129.645569,104.690225 C129.1908,104.239177 129.1908,103.508358 129.645877,103.057615 L141.261877,91.558339 C141.717569,91.1082057 142.455108,91.107901 142.909877,91.5586438 C143.364646,92.0093867 143.364646,92.7405105 142.909569,93.1906438 L131.293569,104.690225 C131.065877,104.915444 130.768031,105.028206 130.469877,105.028206" id="Fill-22" fill="#000000" mask="url(#mask-2)"></path>
                <path d="M141.245723,24.5255314 C144.4768,24.5255314 147.095877,21.9310933 147.095877,18.7307886 C147.095877,15.5307886 144.4768,12.9366552 141.245723,12.9366552 C140.702338,12.9366552 140.176492,13.0110171 139.677415,13.14816 C139.690954,12.9247695 139.698338,12.7004648 139.698338,12.4737219 C139.698338,6.34953143 134.686031,1.38526476 128.503262,1.38526476 C122.676185,1.38526476 117.814031,5.8289981 117.282031,11.4628267 C116.290338,10.9291886 115.078646,10.6603886 113.870646,10.6603886 C110.005108,10.6603886 106.871569,13.7640838 106.871569,17.5931124 C106.871569,21.4215314 110.005108,24.5255314 113.870646,24.5255314 L141.245723,24.5255314 Z" id="Fill-23" fill="#DAB4FD" mask="url(#mask-2)"></path>
                <path d="M113.870738,11.8145219 C110.653815,11.8145219 108.036585,14.4065219 108.036585,17.5928076 C108.036585,20.7790933 110.653815,23.3713981 113.870738,23.3713981 L141.245815,23.3713981 C143.8292,23.3713981 145.930738,21.2898743 145.930738,18.7307886 C145.930738,16.1723124 143.8292,14.0907886 141.245815,14.0907886 C140.820585,14.0907886 140.397815,14.1474743 139.9892,14.2599314 C139.626431,14.3595886 139.237508,14.279741 138.944277,14.0450743 C138.651969,13.8107124 138.491662,13.450179 138.514431,13.0780648 C138.526738,12.8790552 138.532892,12.675779 138.532892,12.4737219 C138.532892,6.99593143 134.033508,2.5393981 128.503046,2.5393981 C123.339354,2.5393981 118.919969,6.50617905 118.441815,11.5701029 C118.405508,11.956541 118.175662,12.2984838 117.830123,12.481341 C117.484585,12.662979 117.0692,12.6614552 116.725815,12.4767695 C115.931969,12.0494933 114.918123,11.8145219 113.870738,11.8145219 M141.245815,25.67936 L113.870738,25.67936 C109.368892,25.67936 105.706431,22.0520838 105.706431,17.5928076 C105.706431,13.1338362 109.368892,9.50625524 113.870738,9.50625524 C114.726738,9.50625524 115.575662,9.62633143 116.361815,9.85337905 C117.606738,4.3505981 122.6692,0.23143619 128.503046,0.23143619 C135.087969,0.23143619 140.486738,5.35844571 140.844277,11.7941029 C140.977815,11.786179 141.111662,11.7828267 141.245815,11.7828267 C145.114123,11.7828267 148.2612,14.8996267 148.2612,18.7307886 C148.2612,22.56256 145.114123,25.67936 141.245815,25.67936" id="Fill-24" fill="#000000" mask="url(#mask-2)"></path>
                <polygon id="Fill-25" fill="#E5E5E5" mask="url(#mask-2)" points="1.16523077 104.213943 29.608 104.213943 29.608 85.611581 1.16523077 85.611581"></polygon>
                <path d="M2.33046154,103.05981 L28.4430769,103.05981 L28.4430769,86.7657143 L2.33046154,86.7657143 L2.33046154,103.05981 Z M29.608,105.367771 L1.16523077,105.367771 C0.521846154,105.367771 0.000307692308,104.8512 0.000307692308,104.213943 L0.000307692308,85.6118857 C0.000307692308,84.9743238 0.521846154,84.4577524 1.16523077,84.4577524 L29.608,84.4577524 C30.2516923,84.4577524 30.7732308,84.9743238 30.7732308,85.6118857 L30.7732308,104.213943 C30.7732308,104.8512 30.2516923,105.367771 29.608,105.367771 Z" id="Fill-26" fill="#000000" mask="url(#mask-2)"></path>
                <path d="M15.3866462,97.3031924 C15.1411077,97.3031924 14.8955692,97.2266971 14.6884923,97.0734019 L0.467261538,86.5359543 C-0.0478153846,86.1540876 -0.153353846,85.4308876 0.232184615,84.9201067 C0.618030769,84.4099352 1.34756923,84.3063162 1.86326154,84.6872686 L15.3866462,94.70784 L28.9100308,84.6872686 C29.4248,84.3063162 30.1552615,84.4096305 30.5414154,84.9201067 C30.9266462,85.4308876 30.8214154,86.1540876 30.3063385,86.5359543 L16.0848,97.0734019 C15.8777231,97.2266971 15.6321846,97.3031924 15.3866462,97.3031924" id="Fill-27" fill="#000000" mask="url(#mask-2)"></path>
                <path d="M45.5480308,159.695177 L1.9108,159.695177 C1.26741538,159.695177 0.745876923,159.178606 0.745876923,158.541349 C0.745876923,157.903787 1.26741538,157.387215 1.9108,157.387215 L45.5480308,157.387215 C46.1914154,157.387215 46.7132615,157.903787 46.7132615,158.541349 C46.7132615,159.178606 46.1914154,159.695177 45.5480308,159.695177" id="Fill-28" fill="#000000" mask="url(#mask-2)"></path>
                <polygon id="Fill-29" fill="#7F44F7" mask="url(#mask-2)" points="1.28153846 154.7008 9.30430769 154.7008 9.30430769 140.081067 1.28153846 140.081067"></polygon>
                <path d="M2.44676923,153.546971 L8.13907692,153.546971 L8.13907692,141.2352 L2.44676923,141.2352 L2.44676923,153.546971 Z M9.30430769,155.854933 L1.28153846,155.854933 C0.638153846,155.854933 0.116615385,155.338362 0.116615385,154.7008 L0.116615385,140.081067 C0.116615385,139.44381 0.638153846,138.926933 1.28153846,138.926933 L9.30430769,138.926933 C9.94769231,138.926933 10.4692308,139.44381 10.4692308,140.081067 L10.4692308,154.7008 C10.4692308,155.338362 9.94769231,155.854933 9.30430769,155.854933 Z" id="Fill-30" fill="#000000" mask="url(#mask-2)"></path>
                <polygon id="Fill-31" fill="#9764FB" mask="url(#mask-2)" points="13.3775385 154.7008 21.4003077 154.7008 21.4003077 119.947276 13.3775385 119.947276"></polygon>
                <path d="M14.5424615,153.546971 L20.2350769,153.546971 L20.2350769,121.101105 L14.5424615,121.101105 L14.5424615,153.546971 Z M21.4006154,155.854933 L13.3772308,155.854933 C12.7341538,155.854933 12.2123077,155.338362 12.2123077,154.7008 L12.2123077,119.947276 C12.2123077,119.309714 12.7341538,118.793143 13.3772308,118.793143 L21.4006154,118.793143 C22.0436923,118.793143 22.5655385,119.309714 22.5655385,119.947276 L22.5655385,154.7008 C22.5655385,155.338362 22.0436923,155.854933 21.4006154,155.854933 Z" id="Fill-32" fill="#000000" mask="url(#mask-2)"></path>
                <polygon id="Fill-33" fill="#BA89F9" mask="url(#mask-2)" points="25.5966154 154.7008 33.6193846 154.7008 33.6193846 129.65821 25.5966154 129.65821"></polygon>
                <path d="M26.7618462,153.546971 L32.4544615,153.546971 L32.4544615,130.812343 L26.7618462,130.812343 L26.7618462,153.546971 Z M33.6196923,155.854933 L25.5966154,155.854933 C24.9532308,155.854933 24.4316923,155.338362 24.4316923,154.7008 L24.4316923,129.65821 C24.4316923,129.020952 24.9532308,128.504076 25.5966154,128.504076 L33.6196923,128.504076 C34.2630769,128.504076 34.7849231,129.020952 34.7849231,129.65821 L34.7849231,154.7008 C34.7849231,155.338362 34.2630769,155.854933 33.6196923,155.854933 Z" id="Fill-34" fill="#000000" mask="url(#mask-2)"></path>
                <polygon id="Fill-35" fill="#DAB4FD" mask="url(#mask-2)" points="38.0553846 154.7008 46.0781538 154.7008 46.0781538 135.511467 38.0553846 135.511467"></polygon>
                <path d="M39.2206154,153.546971 L44.9129231,153.546971 L44.9129231,136.665295 L39.2206154,136.665295 L39.2206154,153.546971 Z M46.0781538,155.854933 L38.0550769,155.854933 C37.412,155.854933 36.8901538,155.338362 36.8901538,154.7008 L36.8901538,135.511162 C36.8901538,134.873905 37.412,134.357333 38.0550769,134.357333 L46.0781538,134.357333 C46.7215385,134.357333 47.2430769,134.873905 47.2430769,135.511162 L47.2430769,154.7008 C47.2430769,155.338362 46.7215385,155.854933 46.0781538,155.854933 Z" id="Fill-36" fill="#000000" mask="url(#mask-2)"></path>
                <path d="M11.1039077,23.621059 C11.1039077,17.1125638 16.4309846,11.8359162 23.0023692,11.8359162 C29.5734462,11.8359162 34.9008308,17.1125638 34.9008308,23.621059 C34.9008308,30.129859 29.5734462,35.4062019 23.0023692,35.4062019 C16.4309846,35.4062019 11.1039077,30.129859 11.1039077,23.621059" id="Fill-37" fill="#E5E5E5" mask="url(#mask-2)"></path>
                <path d="M23.0023385,12.9901105 C17.0844923,12.9901105 12.2691077,17.7593295 12.2691077,23.6214248 C12.2691077,29.4829105 17.0844923,34.2524343 23.0023385,34.2524343 C28.9204923,34.2524343 33.7358769,29.4829105 33.7358769,23.6214248 C33.7358769,17.7593295 28.9204923,12.9901105 23.0023385,12.9901105 M23.0023385,36.5603962 C15.7992615,36.5603962 9.93895385,30.7562057 9.93895385,23.6214248 C9.93895385,16.4866438 15.7992615,10.6821486 23.0023385,10.6821486 C30.2057231,10.6821486 36.0660308,16.4866438 36.0660308,23.6214248 C36.0660308,30.7562057 30.2057231,36.5603962 23.0023385,36.5603962" id="Fill-38" fill="#000000" mask="url(#mask-2)"></path>
                <polygon id="Fill-39" fill="#7B99E7" mask="url(#mask-2)" points="19.1549846 17.6853333 19.1549846 29.5366095 29.4196 23.610819"></polygon>
                <path d="M20.3199385,19.6939581 L20.3199385,27.5281676 L27.1057846,23.6113676 L20.3199385,19.6939581 Z M19.1550154,30.6906819 C18.9547077,30.6906819 18.7540923,30.6397867 18.5740923,30.5370819 C18.2125538,30.3313676 17.9897846,29.949501 17.9897846,29.5365486 L17.9897846,17.6855771 C17.9897846,17.2726248 18.2125538,16.8907581 18.5740923,16.6850438 C18.9359385,16.4781105 19.3808615,16.4805486 19.7414769,16.6883962 L30.0060923,22.6138819 C30.3648615,22.8208152 30.5845538,23.2005486 30.5845538,23.6113676 C30.5845538,24.0215771 30.3648615,24.4013105 30.0060923,24.6082438 L19.7414769,30.5337295 C19.5602462,30.6382629 19.3577846,30.6906819 19.1550154,30.6906819 Z" id="Fill-40" fill="#000000" mask="url(#mask-2)"></path>
                <polygon id="Fill-41" fill="#000000" mask="url(#mask-2)" points="60.4646154 20.7637333 66.3498462 20.7637333 66.3498462 14.9342476 60.4646154 14.9342476"></polygon>
                <polygon id="Fill-42" fill="#000000" mask="url(#mask-2)" points="73.7446154 20.7637333 79.6301538 20.7637333 79.6301538 14.9342476 73.7446154 14.9342476"></polygon>
                <polygon id="Fill-43" fill="#000000" mask="url(#mask-2)" points="87.0246154 20.7637333 92.9101538 20.7637333 92.9101538 14.9342476 87.0246154 14.9342476"></polygon>
                <polygon id="Fill-44" fill="#000000" mask="url(#mask-2)" points="60.4646154 145.0944 66.3498462 145.0944 66.3498462 139.264914 60.4646154 139.264914"></polygon>
                <polygon id="Fill-45" fill="#000000" mask="url(#mask-2)" points="73.7446154 145.0944 79.6301538 145.0944 79.6301538 139.264914 73.7446154 139.264914"></polygon>
                <polygon id="Fill-46" fill="#000000" mask="url(#mask-2)" points="87.0246154 145.0944 92.9101538 145.0944 92.9101538 139.264914 87.0246154 139.264914"></polygon>
                <polygon id="Fill-47" fill="#000000" mask="url(#mask-2)" points="100.986154 145.0944 106.871692 145.0944 106.871692 139.264914 100.986154 139.264914"></polygon>
                <polygon id="Fill-48" fill="#000000" mask="url(#mask-2)" points="139.668308 38.784 145.553538 38.784 145.553538 32.954819 139.668308 32.954819"></polygon>
                <polygon id="Fill-49" fill="#000000" mask="url(#mask-2)" points="139.668308 51.9378286 145.553538 51.9378286 145.553538 46.1083429 139.668308 46.1083429"></polygon>
                <polygon id="Fill-50" fill="#000000" mask="url(#mask-2)" points="139.668308 65.0913524 145.553538 65.0913524 145.553538 59.2618667 139.668308 59.2618667"></polygon>
                <polygon id="Fill-51" fill="#000000" mask="url(#mask-2)" points="139.668308 107.6928 145.553538 107.6928 145.553538 101.863314 139.668308 101.863314"></polygon>
                <polygon id="Fill-52" fill="#000000" mask="url(#mask-2)" points="139.668308 120.846324 145.553538 120.846324 145.553538 115.016838 139.668308 115.016838"></polygon>
                <polygon id="Fill-53" fill="#000000" mask="url(#mask-2)" points="14.4461538 57.5783619 20.3316923 57.5783619 20.3316923 51.749181 14.4461538 51.749181"></polygon>
                <polygon id="Fill-54" fill="#000000" mask="url(#mask-2)" points="14.4461538 70.7321905 20.3316923 70.7321905 20.3316923 64.9030095 14.4461538 64.9030095"></polygon>
            </g>
        </g>
    </g>
</svg>