<?xml version="1.0" encoding="UTF-8"?>
<svg width="36px" height="36px" viewBox="0 0 36 36" version="1.1" xmlns="http://www.w3.org/2000/svg" xmlns:xlink="http://www.w3.org/1999/xlink">
    <defs>
        <polygon id="path-1" points="0 0.000476678291 33.219931 0.000476678291 33.219931 35.7931034 0 35.7931034"></polygon>
    </defs>
    <g id="icon-pickle-4" stroke="none" stroke-width="1" fill="none" fill-rule="evenodd">
        <g transform="translate(1.000000, 0.000000)">
            <path d="M32.0821034,16.5264621 L30.9092069,12.2948069 C28.8987931,5.88515172 22.7262414,0.724737931 15.8127931,1.04832414 C7.57810345,1.43397931 0.827896552,7.03135862 0.827896552,16.5628759 C0.827896552,17.9776345 1.05465517,19.3739793 1.46472414,20.7188069 L1.44610345,20.7241862 C3.28355172,28.0435655 10.0637586,35.1719793 17.4499655,35.1719793 C25.7024483,35.1719793 32.3924483,27.6461172 32.3924483,19.3936345 C32.3924483,18.4628069 32.2782414,17.4877034 32.0821034,16.5264621" id="Fill-1" fill="#00D89A"></path>
            <path d="M31.586069,16.7034621 C31.586069,24.9559448 24.8962759,32.4818069 16.6437931,32.4818069 C8.39151724,32.4818069 0.827793103,24.8152552 0.827793103,16.5627724 C0.827793103,7.03146207 7.5782069,1.43387586 15.8128966,1.04842759 C24.2608966,0.653048276 31.586069,8.45097931 31.586069,16.7034621" id="Fill-3" fill="#00D89A"></path>
            <path d="M16.434331,1.24075862 C16.2307448,1.24075862 16.0265379,1.24551724 15.8225379,1.25503448 C8.46177931,1.59951724 1.0346069,6.46655172 1.0346069,16.5628966 C1.0346069,20.4477931 2.76715862,24.423931 5.78805517,27.4713103 C8.81412414,30.524069 12.7710207,32.2748276 16.6439172,32.2748276 C20.5292276,32.2748276 24.2277103,30.5956552 27.0580552,27.5466207 C29.8041931,24.588 31.3790897,20.6358621 31.3790897,16.7033793 C31.3790897,12.5788966 29.5476414,8.46558621 26.3541931,5.418 C23.5164,2.71013793 20.0155034,1.24075862 16.434331,1.24075862 M16.6439172,32.6886207 C12.6613655,32.6886207 8.59750345,30.8931724 5.49426207,27.7624138 C2.39702069,24.6382759 0.620813793,20.556 0.620813793,16.5628966 C0.620813793,11.985931 2.16571034,8.06606897 5.08812414,5.22765517 C7.79743448,2.59593103 11.6026759,1.0382069 15.8030897,0.841655172 C19.7088828,0.660206897 23.5581931,2.17758621 26.6399172,5.11882759 C29.9146759,8.244 31.7928828,12.4663448 31.7928828,16.7033793 C31.7928828,20.7391034 30.1776414,24.7938621 27.3611586,27.828 C24.4517793,30.9622759 20.6455034,32.6886207 16.6439172,32.6886207" id="Fill-5" fill="#000000"></path>
            <path d="M30.2562,16.6796069 C30.2562,24.2185034 24.1448897,31.093469 16.6059931,31.093469 C9.06730345,31.093469 2.15757931,24.0850552 2.15757931,16.5461586 C2.15757931,7.4391931 9.07185517,3.06043448 15.8139931,2.43664138 C23.3166828,1.74271034 30.2562,9.14071034 30.2562,16.6796069" id="Fill-7" fill="#DCFFF0"></path>
            <g id="Group-11" transform="translate(0.000000, 0.206483)">
                <mask id="mask-2" fill="white">
                    <use xlink:href="#path-1"></use>
                </mask>
                <g id="Clip-10"></g>
                <path d="M2.45791034,21.0832345 C4.83949655,29.1693724 11.9788759,34.1379931 17.4500483,34.1379931 C21.1607379,34.1379931 24.6976345,32.5291655 27.4094276,29.6079931 C30.0502552,26.7629586 31.5649448,22.9647517 31.5649448,19.1872345 C31.5649448,18.3571655 31.4679103,17.4577862 31.2769448,16.5133034 L30.1154276,12.3228207 C29.1653586,9.30357931 27.2403931,6.55971724 24.6943241,4.59564828 C22.0613586,2.56433793 18.9202552,1.52551034 15.8515655,1.66868276 C11.9033586,1.85344138 8.33687586,3.30751034 5.8088069,5.76295862 C3.09163448,8.40233793 1.65515172,12.0654414 1.65515172,16.356269 C1.65515172,17.6454414 1.85749655,18.9625448 2.25618621,20.2709586 L2.50011724,21.0708207 L2.45791034,21.0832345 Z M17.4500483,35.7931655 C13.7854966,35.7931655 10.0026,34.1220621 6.79818621,31.0875103 C3.83666897,28.2830276 1.59349655,24.5038552 0.64322069,20.7190966 L0.449772414,19.9477862 L0.44997931,19.9475793 C0.15122069,18.7475793 -2.06896552e-05,17.5432345 -2.06896552e-05,16.356269 C-2.06896552e-05,11.6077862 1.60984138,7.5342 4.65556552,4.57578621 C7.47370345,1.83854483 11.4223241,0.218958621 15.7739793,0.0151655172 C19.2361862,-0.145386207 22.7619103,1.01447586 25.7050138,3.28495862 C28.5210828,5.45716552 30.6496345,8.49564828 31.6988069,11.8405448 L31.706669,11.8672345 L32.8930138,16.1547517 C33.1098414,17.2177862 33.2201172,18.2382 33.2201172,19.1872345 C33.2201172,23.3777172 31.5442552,27.5864069 28.6224621,30.734131 C25.5941172,33.9964759 21.6262552,35.7931655 17.4500483,35.7931655 Z" id="Fill-9" fill="#000000" mask="url(#mask-2)"></path>
            </g>
            <path d="M13.9194414,17.5960966 C13.5517862,17.8590621 13.0405448,17.7738207 12.7773724,17.4061655 C12.5146138,17.0383034 12.5996483,16.5270621 12.9673034,16.2643034 C13.2070966,16.0927862 14.0489586,15.9183724 14.5093034,15.887131 C14.7083379,15.8736828 14.8525448,16.0752 14.7753724,16.2593379 C14.5966138,16.6847172 14.1590276,17.4247862 13.9194414,17.5960966" id="Fill-12" fill="#63E7B9"></path>
            <path d="M14.5280276,16.093469 C14.5263724,16.093469 14.5247172,16.093469 14.523269,16.0936759 C14.0269241,16.1271931 13.2624414,16.3076069 13.0878207,16.4325724 C12.8134759,16.6287103 12.7497517,17.011469 12.9458897,17.2860207 C13.1422345,17.5599517 13.5243724,17.6236759 13.7993379,17.4277448 C13.9735448,17.3031931 14.3918897,16.6380207 14.5845103,16.179331 C14.5960966,16.1518138 14.585131,16.1300897 14.5774759,16.1195379 C14.5704414,16.1096069 14.5547172,16.093469 14.5280276,16.093469 M13.445131,17.9551241 C13.1248552,17.9551241 12.809131,17.8061586 12.609269,17.5266414 C12.2805103,17.0662966 12.3870621,16.4247103 12.8472,16.0959517 C13.1550621,15.8756069 14.0838207,15.7086414 14.4953379,15.6807103 C14.6592,15.6726414 14.817269,15.7436069 14.9140966,15.8789172 C15.0109241,16.0140207 15.0303724,16.1861586 14.9660276,16.3392621 C14.8065103,16.7197448 14.3474069,17.5444345 14.0399586,17.7643655 L14.0397517,17.7643655 C13.8595448,17.8932621 13.6514069,17.9551241 13.445131,17.9551241" id="Fill-14" fill="#000000"></path>
            <path d="M17.6286414,12.8019103 C17.7997448,12.3475655 17.5700897,11.840669 17.1157448,11.6695655 C16.6616069,11.498669 16.1547103,11.7283241 15.9836069,12.1824621 C15.8722966,12.4787379 15.9240207,13.4002552 16.0189862,13.8862552 C16.0599517,14.096669 16.3090552,14.1903931 16.4785034,14.0594276 C16.8703655,13.756531 17.517331,13.0979793 17.6286414,12.8019103" id="Fill-16" fill="#63E7B9"></path>
            <path d="M16.8069103,11.8201655 C16.5352552,11.8201655 16.2784966,11.9865103 16.1771172,12.2554759 C16.0885655,12.4907172 16.1280828,13.3656828 16.2220138,13.8467172 C16.2294621,13.8852 16.2576,13.9013379 16.273531,13.9073379 C16.2894621,13.9129241 16.3207034,13.9195448 16.3521517,13.8957517 C16.7402897,13.5957517 17.3464966,12.9638897 17.4350483,12.729269 L17.4350483,12.7290621 C17.4983586,12.5608552 17.4923586,12.3783724 17.4182897,12.2147172 C17.3442207,12.051269 17.2109793,11.9265103 17.0429793,11.8632 C16.9653931,11.8340276 16.885531,11.8201655 16.8069103,11.8201655 M16.303531,14.3267172 C16.2445655,14.3267172 16.1849793,14.3159586 16.127669,14.2944414 C15.9654621,14.2334069 15.8489793,14.0956138 15.8158759,13.9259586 C15.7312552,13.4929241 15.647669,12.4876138 15.7898069,12.1096138 C16.0010483,11.5495448 16.6279448,11.2654759 17.1888414,11.4760966 C17.4600828,11.5780966 17.6754621,11.7800276 17.7950483,12.0440276 C17.9148414,12.3082345 17.9243586,12.603269 17.8221517,12.8749241 C17.6804276,13.2520966 16.9544276,13.9530621 16.6049793,14.2230621 C16.5168414,14.2913379 16.4109103,14.3267172 16.303531,14.3267172" id="Fill-18" fill="#000000"></path>
            <path d="M18.7813241,18.1961793 C19.0457379,18.7128 18.8413241,19.3459034 18.3247034,19.6103172 C17.8080828,19.874731 17.1749793,19.6703172 16.9105655,19.1536966 C16.7382207,18.8170759 16.6753241,17.7151448 16.7227034,17.124869 C16.7429793,16.8695586 17.0264276,16.7245241 17.2453241,16.8571448 C17.7516,17.1643862 18.6089793,17.8595586 18.7813241,18.1961793" id="Fill-20" fill="#63E7B9"></path>
            <path d="M17.0681586,17.0139931 C17.0389862,17.0139931 17.0158138,17.0235103 17.0038138,17.0295103 C16.9831241,17.040269 16.9345034,17.0723379 16.9289172,17.1414414 C16.8807103,17.7433034 16.9522966,18.7815103 17.0946414,19.0593724 C17.3067103,19.4735793 17.8162966,19.6374414 18.2302966,19.4259931 C18.4311931,19.3233724 18.5797448,19.1485448 18.6490552,18.9342 C18.7183655,18.7196483 18.6999517,18.4912345 18.597331,18.2905448 C18.4551931,18.0130966 17.6547103,17.3475103 17.1380897,17.034269 C17.1132621,17.0189586 17.0892621,17.0139931 17.0681586,17.0139931 M17.847331,19.9330966 C17.7174,19.9330966 17.5868483,19.9130276 17.4596069,19.8718552 C17.1399517,19.7684069 16.879469,19.5470276 16.7263655,19.2480621 C16.5281586,18.8607517 16.4687793,17.7037862 16.5163655,17.1083379 C16.5316759,16.9163379 16.6434,16.7493724 16.815331,16.6612345 C16.9868483,16.5733034 17.1879517,16.5803379 17.3526414,16.680269 C17.8005724,16.9519241 18.7494,17.6797862 18.9654,18.1018552 L18.9656069,18.1018552 C19.1185034,18.4010276 19.1460207,18.7417862 19.0427793,19.0614414 C18.9395379,19.3808897 18.7181586,19.6413724 18.4189862,19.7944759 C18.2389862,19.8867517 18.0438828,19.9330966 17.847331,19.9330966" id="Fill-22" fill="#000000"></path>
        </g>
    </g>
</svg>