<?xml version="1.0" encoding="UTF-8"?>
<svg width="160px" height="160px" viewBox="0 0 160 160" version="1.1" xmlns="http://www.w3.org/2000/svg" xmlns:xlink="http://www.w3.org/1999/xlink">
    <defs>
        <polygon id="path-1" points="0 159.692898 159.985566 159.692898 159.985566 0 0 0"></polygon>
    </defs>
    <g id="img-testimonial-2" stroke="none" stroke-width="1" fill="none" fill-rule="evenodd">
        <g>
            <path d="M111.220361,134.705228 C111.220361,121.558203 121.878326,110.900238 135.025658,110.900238 C148.172683,110.900238 158.830342,121.558203 158.830342,134.705228 C158.830342,147.85256 148.172683,158.510526 135.025658,158.510526 C121.878326,158.510526 111.220361,147.85256 111.220361,134.705228" id="Fill-1" fill="#DAB4FD"></path>
            <path d="M135.025536,112.055585 C122.53663,112.055585 112.375862,122.216353 112.375862,134.705566 C112.375862,147.194472 122.53663,157.35524 135.025536,157.35524 C147.514749,157.35524 157.675209,147.194472 157.675209,134.705566 C157.675209,122.216353 147.514749,112.055585 135.025536,112.055585 M135.025536,159.665566 C121.262464,159.665566 110.065228,148.46833 110.065228,134.705566 C110.065228,120.942188 121.262464,109.745259 135.025536,109.745259 C148.788607,109.745259 159.985536,120.942188 159.985536,134.705566 C159.985536,148.46833 148.788607,159.665566 135.025536,159.665566" id="Fill-3" fill="#000000"></path>
            <path d="M22.6353013,2.31051056 C11.5897735,2.31051056 2.60366987,11.2966142 2.60366987,22.342142 C2.60366987,33.3870557 11.5897735,42.3731593 22.6353013,42.3731593 C33.6805221,42.3731593 42.6666257,33.3870557 42.6666257,22.342142 C42.6666257,11.2966142 33.6805221,2.31051056 22.6353013,2.31051056 M22.6353013,44.6837927 C10.3159155,44.6837927 0.29334357,34.6612207 0.29334357,22.342142 C0.29334357,10.0224491 10.3159155,0.000184261036 22.6353013,0.000184261036 C34.95438,0.000184261036 44.976952,10.0224491 44.976952,22.342142 C44.976952,34.6612207 34.95438,44.6837927 22.6353013,44.6837927" id="Fill-7" fill="#000000"></path>
            <path d="M22.6353013,33.5038157 L31.7817121,23.907501 C32.7739578,22.8664261 33.3273551,21.483547 33.3273551,20.0456967 C33.3273551,18.6665029 32.8181804,17.3358311 31.8977965,16.3088829 C30.1510019,14.3606296 27.1773359,14.1401305 25.1624415,15.8098426 L22.6353013,17.9036622 L20.1081612,15.8098426 C18.0932668,14.1401305 15.1192937,14.3606296 13.3728061,16.3088829 C12.4521152,17.3358311 11.9429405,18.6665029 11.9429405,20.0456967 C11.9429405,21.483547 12.4963378,22.8664261 13.4885835,23.907501 L22.6353013,33.5038157 Z" id="Fill-9" fill="#5249C6"></path>
            <path d="M16.9992169,15.8406449 C15.9799463,15.8406449 14.9680461,16.2601459 14.2328445,17.0801075 C13.5013282,17.8960768 13.0984107,18.9494357 13.0984107,20.0454818 C13.0984107,21.1918925 13.533881,22.2808752 14.324975,23.110357 L22.6354549,31.8292821 L30.9456276,23.110357 C31.7364146,22.2808752 32.1718848,21.1918925 32.1718848,20.0454818 C32.1718848,18.9494357 31.7692745,17.8960768 31.0374511,17.0801075 C29.6997159,15.5879002 27.4428253,15.4205298 25.899025,16.6993013 L23.3721919,18.7931209 C22.9443992,19.1475163 22.3258964,19.1475163 21.8981036,18.7931209 L19.3712706,16.6993013 C18.6756852,16.1231785 17.8348407,15.8406449 16.9992169,15.8406449 M22.6354549,34.6589175 C22.3191401,34.6589175 22.016952,34.5296276 21.7989098,34.3008369 L12.652499,24.7045221 C11.4501958,23.4429482 10.7877774,21.7882841 10.7877774,20.0454818 C10.7877774,18.3794549 11.4004453,16.7785336 12.5124607,15.5378426 C14.6824415,13.117881 18.3427869,12.8467102 20.8450518,14.920261 L22.6354549,16.4035624 L24.4255509,14.920261 C26.9284299,12.8467102 30.5884683,13.117881 32.7578349,15.5378426 C33.8701574,16.7785336 34.4828253,18.3794549 34.4828253,20.0454818 C34.4828253,21.7882841 33.8200998,23.4429482 32.6177965,24.7045221 L23.4713858,34.3008369 C23.2533436,34.5296276 22.9511555,34.6589175 22.6354549,34.6589175" id="Fill-11" fill="#000000"></path>
            <mask id="mask-2" fill="white">
                <use xlink:href="#path-1"></use>
            </mask>
            <g id="Clip-14"></g>
            <polygon id="Fill-13" fill="#000000" mask="url(#mask-2)" points="63.9081766 146.441766 69.7434165 146.441766 69.7434165 140.606526 63.9081766 140.606526"></polygon>
            <polygon id="Fill-15" fill="#000000" mask="url(#mask-2)" points="77.0751631 146.441766 82.9104031 146.441766 82.9104031 140.606526 77.0751631 140.606526"></polygon>
            <polygon id="Fill-16" fill="#000000" mask="url(#mask-2)" points="90.2424568 146.441766 96.0776967 146.441766 96.0776967 140.606526 90.2424568 140.606526"></polygon>
            <polygon id="Fill-17" fill="#000000" mask="url(#mask-2)" points="124.545106 131.493282 130.351478 131.493282 130.351478 125.68691 124.545106 125.68691"></polygon>
            <polygon id="Fill-18" fill="#000000" mask="url(#mask-2)" points="139.699655 131.493282 145.506027 131.493282 145.506027 125.68691 139.699655 125.68691"></polygon>
            <path d="M134.551708,144.878864 C128.814434,144.878864 126.521305,140.654065 126.426411,140.474104 C126.128829,139.909651 126.345029,139.210994 126.909482,138.913413 C127.471478,138.615524 128.167985,138.830802 128.467409,139.390956 C128.546334,139.536215 130.258426,142.568537 134.551708,142.568537 C138.908868,142.568537 140.898273,139.461282 140.98119,139.329228 C141.317159,138.790265 142.027793,138.621359 142.568599,138.954871 C143.109712,139.288384 143.281689,139.993182 142.951248,140.536138 C142.843148,140.713643 140.241996,144.878864 134.551708,144.878864" id="Fill-19" fill="#000000" mask="url(#mask-2)"></path>
            <polyline id="Fill-20" fill="#FFFFFF" mask="url(#mask-2)" points="128.5998 18.9512783 133.904983 15.1395317 136.238649 5.80425336 143.08456 6.89354319 142.462372 14.9838311 140.983985 18.9512783 153.664215 18.9512783 153.664215 38.2437159 133.127094 38.2437159 128.5998 35.0437159"></polyline>
            <path d="M153.664276,39.3990326 L133.127155,39.3990326 C132.88823,39.3990326 132.65514,39.3253282 132.460131,39.1874395 L127.932837,35.9874395 C127.411992,35.6189175 127.287923,34.8981497 127.656445,34.3769981 C128.024967,33.8564607 128.745735,33.7326987 129.26658,34.1002994 L133.493835,37.0887063 L152.50896,37.0887063 L152.50896,20.1069021 L140.984046,20.1069021 C140.605697,20.1069021 140.250994,19.9214127 140.035409,19.6103186 C139.819209,19.2998388 139.769459,18.9027562 139.90182,18.5480537 L141.322779,14.7332361 L141.850687,7.86674856 L137.102587,7.11158541 L135.025965,15.4196084 C134.959631,15.6846372 134.80086,15.9180345 134.579132,16.0777274 L129.273643,19.8894741 C128.756177,20.2616814 128.033259,20.1440614 127.661666,19.6253666 C127.289152,19.1075931 127.407386,18.3855969 127.925466,18.0133896 L132.886695,14.4485528 L135.117789,5.52417658 C135.263048,4.94344722 135.828115,4.56847601 136.420207,4.66367754 L143.265812,5.75235317 C143.860361,5.8469405 144.282626,6.38191171 144.236253,6.98168138 L143.614065,15.0725835 C143.606081,15.1803762 143.582434,15.2860192 143.54466,15.3873628 L142.647309,17.7962687 L153.664276,17.7962687 C154.302434,17.7962687 154.819593,18.313428 154.819593,18.9515854 L154.819593,38.2437159 C154.819593,38.8818733 154.302434,39.3990326 153.664276,39.3990326" id="Fill-21" fill="#000000" mask="url(#mask-2)"></path>
            <polygon id="Fill-22" fill="#7B99E7" mask="url(#mask-2)" points="119.644683 35.0436852 128.59977 35.0436852 128.59977 17.8327831 119.644683 17.8327831"></polygon>
            <path d="M120.8,33.8886756 L127.44476,33.8886756 L127.44476,18.9880998 L120.8,18.9880998 L120.8,33.8886756 Z M128.59977,36.1990019 L119.644683,36.1990019 C119.006833,36.1990019 118.489367,35.6818426 118.489367,35.0436852 L118.489367,17.8327831 C118.489367,17.1949328 119.006833,16.6777735 119.644683,16.6777735 L128.59977,16.6777735 C129.23762,16.6777735 129.755086,17.1949328 129.755086,17.8327831 L129.755086,35.0436852 C129.755086,35.6818426 129.23762,36.1990019 128.59977,36.1990019 Z" id="Fill-23" fill="#000000" mask="url(#mask-2)"></path>
            <polygon id="Fill-24" fill="#000000" mask="url(#mask-2)" points="144.329213 25.0852975 153.664184 25.0852975 153.664184 22.7749712 144.329213 22.7749712"></polygon>
            <polygon id="Fill-25" fill="#000000" mask="url(#mask-2)" points="144.329213 29.5972361 153.664184 29.5972361 153.664184 27.2869098 144.329213 27.2869098"></polygon>
            <polygon id="Fill-26" fill="#000000" mask="url(#mask-2)" points="144.329213 34.1088676 153.664184 34.1088676 153.664184 31.7985413 144.329213 31.7985413"></polygon>
            <path d="M1.15528599,132.574403 C1.15528599,118.235516 12.7793935,106.611409 27.1185873,106.611409 C41.4574741,106.611409 53.0815816,118.235516 53.0815816,132.574403 C53.0815816,146.913597 41.4574741,158.537704 27.1185873,158.537704 C12.7793935,158.537704 1.15528599,146.913597 1.15528599,132.574403" id="Fill-27" fill="#FFFFFF" mask="url(#mask-2)"></path>
            <path d="M27.1185873,107.766633 C13.4393551,107.766633 2.31060269,118.895386 2.31060269,132.574618 C2.31060269,146.253543 13.4393551,157.382603 27.1185873,157.382603 C40.7978196,157.382603 51.926572,146.253543 51.926572,132.574618 C51.926572,118.895386 40.7978196,107.766633 27.1185873,107.766633 M27.1185873,159.692929 C12.1654971,159.692929 -3.07101727e-05,147.527708 -3.07101727e-05,132.574618 C-3.07101727e-05,117.621528 12.1654971,105.456307 27.1185873,105.456307 C42.0716775,105.456307 54.2372054,117.621528 54.2372054,132.574618 C54.2372054,147.527708 42.0716775,159.692929 27.1185873,159.692929" id="Fill-28" fill="#000000" mask="url(#mask-2)"></path>
            <path d="M27.1185873,125.911739 C23.4447294,125.911739 20.4560154,128.90076 20.4560154,132.574618 C20.4560154,136.248476 23.4447294,139.237497 27.1185873,139.237497 C30.7924453,139.237497 33.7811593,136.248476 33.7811593,132.574618 C33.7811593,128.90076 30.7924453,125.911739 27.1185873,125.911739 M27.1185873,141.547823 C22.1708714,141.547823 18.145382,137.522641 18.145382,132.574618 C18.145382,127.626902 22.1708714,123.601413 27.1185873,123.601413 C32.0663033,123.601413 36.0917927,127.626902 36.0917927,132.574618 C36.0917927,137.522641 32.0663033,141.547823 27.1185873,141.547823" id="Fill-29" fill="#000000" mask="url(#mask-2)"></path>
            <path d="M27.1185873,116.120476 C18.045881,116.120476 10.664691,123.501666 10.664691,132.574679 C10.664691,141.647386 18.045881,149.028576 27.1185873,149.028576 C36.1912937,149.028576 43.5724837,141.647386 43.5724837,132.574679 C43.5724837,123.501666 36.1912937,116.120476 27.1185873,116.120476 M27.1185873,151.339209 C16.772023,151.339209 8.35405758,142.921551 8.35405758,132.574679 C8.35405758,122.227808 16.772023,113.81015 27.1185873,113.81015 C37.4651516,113.81015 45.8831171,122.227808 45.8831171,132.574679 C45.8831171,142.921551 37.4651516,151.339209 27.1185873,151.339209" id="Fill-30" fill="#000000" mask="url(#mask-2)"></path>
            <path d="M27.1185873,133.729935 C26.8194702,133.729935 26.5206603,133.614464 26.2943263,133.384138 C25.8471862,132.929013 25.8539424,132.197804 26.3090672,131.750664 L40.9028484,117.417612 C41.3570518,116.970472 42.0885681,116.976307 42.5363225,117.432353 C42.9831555,117.887478 42.9770134,118.618687 42.5215816,119.065827 L27.9281075,133.398879 C27.7030019,133.619685 27.4106411,133.729935 27.1185873,133.729935" id="Fill-31" fill="#000000" mask="url(#mask-2)"></path>
            <polygon id="Fill-32" fill="#DAB4FD" mask="url(#mask-2)" points="41.7119079 118.241689 40.3195086 112.958925 45.1956699 106.912092 46.7557466 112.732284 53.2487985 114.102572 46.9842303 119.042303"></polygon>
            <path d="M42.6359155,117.213328 L46.6623263,117.825075 L50.5959923,114.723655 L46.5170672,113.862848 C46.0914242,113.772868 45.7523839,113.451332 45.6396775,113.031217 L44.6680077,109.406802 L41.5856276,113.229298 L42.6359155,117.213328 Z M46.9841689,120.197743 C46.9267409,120.197743 46.8686987,120.193443 46.8109635,120.184845 L41.5386411,119.383923 C41.0832092,119.314518 40.7125374,118.98162 40.5949175,118.536322 L39.2022111,113.253251 C39.1088522,112.898242 39.1893129,112.519893 39.4202534,112.233981 L44.2964146,106.187455 C44.5691209,105.848722 45.0091977,105.690871 45.4345336,105.782081 C45.8601766,105.872061 46.1989098,106.192983 46.311309,106.613405 L47.687739,111.748146 L53.4876622,112.972253 C53.9262035,113.064998 54.2716929,113.403117 54.3739578,113.839816 C54.4759155,114.276207 54.3162226,114.732253 53.9642841,115.009566 L47.6994088,119.949298 C47.494572,120.111447 47.2421344,120.197743 46.9841689,120.197743 Z" id="Fill-33" fill="#000000" mask="url(#mask-2)"></path>
            <path d="M24.487524,132.574403 C24.487524,131.121505 25.6652591,129.94377 27.1184645,129.94377 C28.5716699,129.94377 29.749405,131.121505 29.749405,132.574403 C29.749405,134.027608 28.5716699,135.205344 27.1184645,135.205344 C25.6652591,135.205344 24.487524,134.027608 24.487524,132.574403" id="Fill-34" fill="#000000" mask="url(#mask-2)"></path>
            <path d="M94.56519,94.9955317 L103.891562,94.9955317 L103.891562,69.453881 C103.891562,62.622096 98.3535969,57.0841305 91.5218119,57.0841305 L89.4043455,57.0841305 C91.2917927,55.1963762 92.4593935,52.5890825 92.4593935,49.7090825 C92.4593935,43.9487754 87.9947486,39.2792937 82.2347486,39.2792937 C76.4747486,39.2792937 72.0104107,43.9487754 72.0104107,49.7090825 C72.0104107,52.5890825 73.1773973,55.1963762 75.0651516,57.0841305 L72.9476852,57.0841305 C66.1159002,57.0841305 60.5776276,62.622096 60.5776276,69.453881 L60.5776276,94.9955317 L69.9043071,94.9955317" id="Fill-35" fill="#00EFB6" mask="url(#mask-2)"></path>
            <path d="M103.891624,96.1507562 L94.5652514,96.1507562 L94.5652514,93.8404299 L102.736307,93.8404299 L102.736307,69.4537889 C102.736307,63.2702956 97.7053666,58.2393551 91.5218733,58.2393551 L89.4044069,58.2393551 C88.9369981,58.2393551 88.5159616,57.9577428 88.3372284,57.5259578 C88.1584952,57.0941727 88.2570749,56.5972821 88.5875163,56.2671478 C90.3392246,54.5154395 91.3041382,52.18638 91.3041382,49.7089904 C91.3041382,44.5085298 87.3201075,40.4348253 82.2345029,40.4348253 C77.1492054,40.4348253 73.1654818,44.5085298 73.1654818,49.7089904 C73.1654818,52.18638 74.1303954,54.5154395 75.8821036,56.2671478 C76.2125451,56.5972821 76.3111248,57.0941727 76.1323916,57.5259578 C75.9533512,57.9577428 75.5323148,58.2393551 75.0652131,58.2393551 L72.9474395,58.2393551 C66.7639463,58.2393551 61.7333129,63.2702956 61.7333129,69.4537889 L61.7333129,93.8404299 L69.9043685,93.8404299 L69.9043685,96.1507562 L60.5779962,96.1507562 C59.9398388,96.1507562 59.4226795,95.6332898 59.4226795,94.9954395 L59.4226795,69.4537889 C59.4226795,62.0913321 65.3365374,56.0838081 72.6630633,55.9314856 C71.4859424,54.0897965 70.8551555,51.947762 70.8551555,49.7089904 C70.8551555,43.2128676 75.8538503,38.124499 82.2345029,38.124499 C88.6157697,38.124499 93.6144645,43.2128676 93.6144645,49.7089904 C93.6144645,51.947762 92.9836775,54.0897965 91.8062495,55.9314856 C99.1330825,56.0838081 105.04694,62.0913321 105.04694,69.4537889 L105.04694,94.9954395 C105.04694,95.6332898 104.529781,96.1507562 103.891624,96.1507562" id="Fill-36" fill="#000000" mask="url(#mask-2)"></path>
            <polyline id="Fill-37" fill="#00EFB6" mask="url(#mask-2)" points="94.56519 68.1616276 94.56519 124.756484 82.0296046 124.756484 82.4398925 93.8344107 82.4398925 124.756484 69.9043071 124.756484 69.9043071 68.1616276"></polyline>
            <path d="M94.56519,125.911739 L69.9043071,125.911739 C69.2664568,125.911739 68.7492975,125.394273 68.7492975,124.756422 L68.7492975,68.1615662 L71.0596238,68.1615662 L71.0596238,123.601413 L80.889643,123.601413 L81.2848829,93.8193013 C81.2931747,93.1866718 81.8084914,92.6790326 82.4398925,92.6790326 L82.4475701,92.6790326 C83.0826564,92.6833321 83.5952092,93.1989559 83.5952092,93.8343493 L83.5952092,123.601413 L93.4098733,123.601413 L93.4098733,68.1615662 L95.7205067,68.1615662 L95.7205067,124.756422 C95.7205067,125.394273 95.2030403,125.911739 94.56519,125.911739" id="Fill-38" fill="#000000" mask="url(#mask-2)"></path>
            <polygon id="Fill-39" fill="#000000" mask="url(#mask-2)" points="90.2424568 23.5691363 96.0776967 23.5691363 96.0776967 17.7338964 90.2424568 17.7338964"></polygon>
            <polygon id="Fill-40" fill="#000000" mask="url(#mask-2)" points="77.0751631 23.5691363 82.9104031 23.5691363 82.9104031 17.7338964 77.0751631 17.7338964"></polygon>
            <polygon id="Fill-41" fill="#000000" mask="url(#mask-2)" points="63.9081766 23.5691363 69.7434165 23.5691363 69.7434165 17.7338964 63.9081766 17.7338964"></polygon>
            <polygon id="Fill-42" fill="#000000" mask="url(#mask-2)" points="19.3762764 90.891977 25.2115163 90.891977 25.2115163 85.056737 19.3762764 85.056737"></polygon>
            <polygon id="Fill-43" fill="#000000" mask="url(#mask-2)" points="19.3762764 77.7249904 25.2115163 77.7249904 25.2115163 71.8897505 19.3762764 71.8897505"></polygon>
            <polygon id="Fill-44" fill="#000000" mask="url(#mask-2)" points="19.3762764 64.5576967 25.2115163 64.5576967 25.2115163 58.7224568 19.3762764 58.7224568"></polygon>
            <polygon id="Fill-45" fill="#000000" mask="url(#mask-2)" points="133.736967 90.891977 139.572207 90.891977 139.572207 85.056737 133.736967 85.056737"></polygon>
            <polygon id="Fill-46" fill="#000000" mask="url(#mask-2)" points="133.736967 77.7249904 139.572207 77.7249904 139.572207 71.8897505 133.736967 71.8897505"></polygon>
            <polygon id="Fill-47" fill="#000000" mask="url(#mask-2)" points="133.736967 64.5576967 139.572207 64.5576967 139.572207 58.7224568 133.736967 58.7224568"></polygon>
        </g>
    </g>
</svg>