<?xml version="1.0" encoding="UTF-8"?>
<svg width="36px" height="36px" viewBox="0 0 36 36" version="1.1" xmlns="http://www.w3.org/2000/svg" xmlns:xlink="http://www.w3.org/1999/xlink">
    <defs>
        <polygon id="path-1" points="2.06896552e-05 0.000413793103 33.2197241 0.000413793103 33.2197241 35.7930414 2.06896552e-05 35.7930414"></polygon>
    </defs>
    <g id="icon-pickle-3" stroke="none" stroke-width="1" fill="none" fill-rule="evenodd">
        <g transform="translate(1.000000, 0.000000)">
            <path d="M32.0821034,16.5264621 L30.909,12.2948069 C28.8985862,5.88515172 22.7262414,0.724737931 15.8125862,1.04832414 C7.57810345,1.43397931 0.827689655,7.03135862 0.827689655,16.5628759 C0.827689655,17.9776345 1.05465517,19.3739793 1.46472414,20.7188069 L1.44589655,20.7241862 C3.28334483,28.0435655 10.0635517,35.1719793 17.4499655,35.1719793 C25.7024483,35.1719793 32.3922414,27.6461172 32.3922414,19.3936345 C32.3922414,18.4628069 32.2782414,17.4877034 32.0821034,16.5264621" id="Fill-1" fill="#00D89A"></path>
            <path d="M31.7147793,16.7034621 C31.7147793,24.9559448 25.0247793,32.4818069 16.7722966,32.4818069 C8.52002069,32.4818069 0.956296552,24.8152552 0.956296552,16.5627724 C0.956296552,7.03146207 7.70691724,1.43387586 15.9414,1.04842759 C24.3896069,0.653048276 31.7147793,8.45097931 31.7147793,16.7034621" id="Fill-3" fill="#00D89A"></path>
            <path d="M16.5628345,1.24075862 C16.3592483,1.24075862 16.1550414,1.24551724 15.9510414,1.25503448 C8.59028276,1.59951724 1.16311034,6.46655172 1.16311034,16.5628966 C1.16311034,20.4477931 2.89566207,24.423931 5.91655862,27.4713103 C8.94262759,30.524069 12.8995241,32.2748276 16.7724207,32.2748276 C20.657731,32.2748276 24.3562138,30.5956552 27.1867655,27.5466207 C29.9329034,24.588 31.5078,20.6358621 31.5078,16.7033793 C31.5078,12.5788966 29.6763517,8.46558621 26.4831103,5.4182069 C23.6451103,2.71034483 20.1440069,1.24075862 16.5628345,1.24075862 M16.7724207,32.6886207 C12.789869,32.6886207 8.7260069,30.8931724 5.62276552,27.7624138 C2.52552414,24.6382759 0.749317241,20.556 0.749317241,16.5628966 C0.749317241,11.985931 2.29421379,8.06606897 5.21662759,5.22765517 C7.92614483,2.59593103 11.7311793,1.0382069 15.9315931,0.841655172 C19.8380069,0.66 23.6869034,2.17758621 26.7686276,5.11882759 C30.0433862,8.244 31.9215931,12.4663448 31.9215931,16.7033793 C31.9215931,20.7391034 30.3063517,24.7938621 27.4896621,27.828 C24.5802828,30.9622759 20.7740069,32.6886207 16.7724207,32.6886207" id="Fill-5" fill="#000000"></path>
            <path d="M21.2677034,15.0559655 C24.5617034,14.5503103 27.3034966,12.5363793 28.6381862,11.388931 C28.4312897,10.9333448 28.2008069,10.4874828 27.9483931,10.0538276 C27.796531,9.79272414 27.6361862,9.53617241 27.4692207,9.28437931 C27.2037724,8.88568966 26.9184621,8.50086207 26.6172207,8.12927586 C25.1418414,9.28210345 22.7314966,10.8137586 19.9187379,11.2455517 C15.2418414,11.9634828 12.2039793,13.6134828 8.73246207,15.2047241 C6.52384138,16.2168621 4.19687586,16.9554828 2.79515172,17.3593448 C2.84666897,18.3081724 3.00866897,19.245 3.26935862,20.1559655 C3.3483931,20.4325862 3.4383931,20.7063103 3.53522069,20.9777586 C3.57453103,21.0880345 3.61694483,21.1972759 3.65935862,21.3065172 C4.95597931,20.9481724 7.59432414,20.1551379 10.0814276,19.0151379 C13.5529448,17.4238966 16.5908069,15.7738966 21.2677034,15.0559655" id="Fill-7" fill="#63E7B9"></path>
            <path d="M3.01171034,17.5118483 C3.07046897,18.3758483 3.22377931,19.2452276 3.46812414,20.0990897 C3.54033103,20.3512966 3.62598621,20.6159172 3.73026207,20.9082621 C3.74784828,20.9579172 3.76605517,21.0075724 3.78488276,21.0568138 C5.16177931,20.670331 7.64371034,19.9048138 9.99508966,18.8268828 C10.4585379,18.6146069 10.9141241,18.4012966 11.3670207,18.1890207 C14.3434345,16.7947448 17.1547448,15.4778483 21.2364,14.8515724 C24.3804,14.3688828 27.0218483,12.4842621 28.3846759,11.3332966 C28.198469,10.9348138 27.9919862,10.5400552 27.7695724,10.1579172 C27.6239172,9.90757241 27.4648138,9.65226207 27.2968138,9.39881379 C27.0799862,9.07295172 26.8404,8.74357241 26.5828138,8.41729655 C25.0404,9.5964 22.6842621,11.0304 19.9501241,11.4499862 C15.9276414,12.0675724 13.1424,13.3720552 10.1935034,14.7535034 C9.73977931,14.9659862 9.28315862,15.1799172 8.81867586,15.3928138 C6.72550345,16.3521931 4.53343448,17.0680552 3.01171034,17.5118483 Z M3.53371034,21.5558483 L3.45674483,21.3568138 C3.41722759,21.2539862 3.37750345,21.1511586 3.34046897,21.0472966 C3.23308966,20.746469 3.14495172,20.4733655 3.07026207,20.2128828 C2.80212414,19.2752276 2.63991724,18.3189517 2.5886069,17.3705379 L2.57950345,17.2060552 L2.73777931,17.1605379 C4.24977931,16.7248138 6.50205517,15.9992276 8.64612414,15.016469 C9.10977931,14.8041931 9.56536552,14.5908828 10.0180552,14.3786069 C12.994469,12.984331 15.8059862,11.6674345 19.8874345,11.0411586 C22.6306759,10.6199172 24.9919862,9.13646897 26.4901241,7.96605517 L26.6502621,7.84108966 L26.7781241,7.99895172 C27.0919862,8.38667586 27.382469,8.7804 27.6415034,9.16998621 C27.8142621,9.43005517 27.9777103,9.6926069 28.1272966,9.94977931 C28.3828138,10.3890207 28.6182621,10.8444 28.8264,11.3035034 L28.8907448,11.4448138 L28.7732276,11.5459862 C27.4153655,12.7130897 24.6390207,14.7477103 21.2990897,15.2604 C17.2764,15.8779862 14.4911586,17.182469 11.5422621,18.5639172 C11.0885379,18.7764 10.6319172,18.990331 10.1676414,19.2032276 C7.68281379,20.3421931 5.05791724,21.1348138 3.71433103,21.5059862 L3.53371034,21.5558483 Z" id="Fill-9" fill="#000000"></path>
            <path d="M19.9188414,11.2455517 C22.7316,10.8137586 25.1417379,9.28210345 26.6173241,8.12906897 C26.4023586,7.8632069 26.1789103,7.605 25.9471862,7.35486207 C24.4548414,8.46072414 22.2139448,9.78237931 19.6337379,10.1785862 C14.9568414,10.8965172 11.9191862,12.5463103 8.44766897,14.1375517 C6.37953103,15.0855517 4.20691034,15.7935517 2.7878069,16.2112759 C2.7878069,16.2112759 2.7876,16.2152069 2.7876,16.2168621 C2.78284138,16.3827931 2.7758069,16.5472759 2.7758069,16.7163103 C2.7758069,16.9312759 2.78366897,17.1456207 2.79504828,17.3593448 C4.19697931,16.9554828 6.52394483,16.2168621 8.73256552,15.2047241 C12.2040828,13.6134828 15.2419448,11.9634828 19.9188414,11.2455517" id="Fill-11" fill="#00D89A"></path>
            <path d="M2.98990345,16.3672552 C2.98597241,16.4829103 2.98266207,16.5983586 2.98266207,16.7162897 C2.98266207,16.8331862 2.98493793,16.9546345 2.98969655,17.0870483 C4.49342069,16.645531 6.61824828,15.9462207 8.64624828,15.0166345 C9.10969655,14.8041517 9.56528276,14.5908414 10.0181793,14.3787724 C12.9943862,12.9842897 15.8059034,11.6673931 19.8875586,11.0411172 C22.5302483,10.6353931 24.8189379,9.2433931 26.3222483,8.09573793 C26.1912828,7.93828966 26.0565931,7.78291034 25.9198345,7.63146207 C24.4562483,8.69366897 22.2269379,9.98966897 19.6651448,10.3829793 C15.6422483,11.0005655 12.8570069,12.3050483 9.90811034,13.6864966 C9.4545931,13.8987724 8.99797241,14.1129103 8.53390345,14.3256 C6.53404138,15.2423586 4.44066207,15.935669 2.98990345,16.3672552 Z M2.6025931,17.6301517 L2.58852414,17.3704966 C2.57507586,17.1211862 2.56886897,16.9132552 2.56886897,16.7162897 C2.56886897,16.585531 2.5728,16.4572552 2.57714483,16.3289793 L2.58521379,16.0608414 L2.72942069,16.0128414 C4.17024828,15.5887034 6.3170069,14.8864966 8.36135172,13.9492552 C8.8245931,13.7369793 9.27997241,13.523669 9.73266207,13.3116 C12.7092828,11.9173241 15.5205931,10.6006345 19.6024552,9.97415172 C22.1698345,9.5796 24.402869,8.2418069 25.8238345,7.18870345 L25.9730069,7.07842759 L26.0988,7.21435862 C26.3323862,7.46635862 26.5610069,7.73035862 26.7782483,7.99911724 L26.9104552,8.16277241 L26.7445241,8.29228966 C25.2081103,9.49270345 22.7818345,11.0154621 19.9502483,11.4499448 C15.9275586,12.067531 13.1423172,13.3720138 10.1934207,14.7534621 C9.73969655,14.9661517 9.28307586,15.1798759 8.8188,15.3927724 C6.65135172,16.3860828 4.37797241,17.1187034 2.85231724,17.5581517 L2.6025931,17.6301517 Z" id="Fill-13" fill="#000000"></path>
            <path d="M20.2039241,5.77288966 C21.2173034,5.61730345 22.1787517,5.31854483 23.0630276,4.94633793 C22.6550276,4.68916552 22.2354414,4.45351034 21.8050966,4.24413103 C21.2019931,4.44461379 20.5715793,4.60557931 19.9188207,4.70592414 C15.2419241,5.42385517 12.2040621,7.07385517 8.73254483,8.66509655 C7.15495862,9.3879931 5.51757931,9.97102759 4.19902759,10.3926828 C4.09723448,10.5906828 3.99895862,10.7915793 3.90771724,10.9988897 C3.80323448,11.2357862 3.70806207,11.4805448 3.61702759,11.7288207 C5.03323448,11.3034414 7.07157931,10.6237862 9.01764828,9.73206207 C12.4891655,8.14082069 15.5270276,6.49102759 20.2039241,5.77288966" id="Fill-15" fill="#00D89A"></path>
            <path d="M4.34422759,10.5634345 C4.24677931,10.7556414 4.16753793,10.9219862 4.0971931,11.0821241 C4.05188276,11.1851586 4.00677931,11.292331 3.96064138,11.4077793 C5.31498621,10.9886069 7.1634,10.3540552 8.93133103,9.54384828 C9.39436552,9.33177931 9.84974483,9.11846897 10.3024345,8.9064 C13.2792621,7.51212414 16.0907793,6.19522759 20.1726414,5.56833103 C20.9681586,5.44626207 21.7841586,5.22467586 22.6036759,4.90853793 C22.3326414,4.74881379 22.0601586,4.60108966 21.7895379,4.46702069 C21.1674,4.66957241 20.5487793,4.81833103 19.9502276,4.9104 C15.9275379,5.52777931 13.1422966,6.83246897 10.1934,8.21391724 C9.73967586,8.4264 9.28305517,8.64012414 8.81877931,8.85302069 C7.50126207,9.45674483 5.99608966,10.0321241 4.34422759,10.5634345 Z M3.28057241,12.0458483 L3.42271034,11.6577103 C3.52822759,11.3699172 3.62215862,11.1340552 3.71857241,10.9153655 C3.80133103,10.7268828 3.89546897,10.5307448 4.01484828,10.2981931 L4.05415862,10.2218483 L4.13588276,10.1957793 C5.80450345,9.6621931 7.32208966,9.08391724 8.64622759,8.47688276 C9.10967586,8.2646069 9.56526207,8.05108966 10.0181586,7.83902069 C12.9945724,6.44474483 15.8058828,5.12784828 19.8875379,4.50136552 C20.4889862,4.40908966 21.1123655,4.2566069 21.7398828,4.04784828 L21.8199517,4.02136552 L21.8956759,4.0581931 C22.3206414,4.26488276 22.7505724,4.50488276 23.173469,4.77136552 L23.509469,4.98302069 L23.1432621,5.13695172 C22.165469,5.54867586 21.1870552,5.83129655 20.235331,5.97736552 C16.2124345,6.59495172 13.4269862,7.89984828 10.4778828,9.28108966 C10.0243655,9.49357241 9.56795172,9.70729655 9.10388276,9.9201931 C7.13174483,10.8239172 5.06402069,11.5104 3.67657241,11.9270897 L3.28057241,12.0458483 Z" id="Fill-17" fill="#000000"></path>
            <path d="M21.5526,16.1229724 C24.9417724,15.6028345 27.7470828,13.4856621 29.0360483,12.3586966 C28.9152207,12.0313862 28.7828069,11.7075931 28.6381862,11.3889724 C27.3034966,12.5364207 24.5617034,14.5501448 21.2677034,15.0560069 C16.5908069,15.7739379 13.5529448,17.4239379 10.0814276,19.0151793 C7.59432414,20.1549724 4.95597931,20.9482138 3.65935862,21.3065586 C3.7928069,21.6531103 3.93949655,21.9946966 4.10004828,22.3302828 C5.44446207,21.953731 7.97542759,21.1780759 10.366531,20.0821448 C13.8380483,18.4909034 16.8757034,16.8411103 21.5526,16.1229724" id="Fill-19" fill="#00D89A"></path>
            <path d="M3.93608276,21.4440828 C4.0236,21.6609103 4.11608276,21.8748414 4.21270345,22.0836 C5.55691034,21.7012552 7.98711724,20.9450483 10.2801517,19.8940138 C10.7433931,19.681531 11.1989793,19.4682207 11.651669,19.2563586 C14.6282897,17.8620828 17.4396,16.5449793 21.5212552,15.9184966 C24.7372552,15.4248414 27.4178069,13.4787724 28.7918069,12.2965655 C28.7183586,12.103531 28.6409793,11.9125655 28.5609103,11.725531 C27.1387034,12.9110483 24.4734621,14.7731172 21.2990483,15.2603586 C17.2765655,15.8779448 14.4913241,17.1824276 11.5424276,18.5638759 C11.0884966,18.7763586 10.6318759,18.9902897 10.1676,19.2031862 C7.81311724,20.2823586 5.33263448,21.0507724 3.93608276,21.4440828 Z M3.98863448,22.5764276 L3.91353103,22.4196 C3.7533931,22.0852552 3.60297931,21.7358069 3.46622069,21.3807724 L3.38408276,21.1678759 L3.60422069,21.1070483 C4.9358069,20.7391862 7.53670345,19.9538069 9.99504828,18.8270483 C10.4584966,18.6145655 10.9142897,18.4012552 11.3669793,18.1891862 C14.3433931,16.7947034 17.1549103,15.4778069 21.2363586,14.851531 C24.4744966,14.3541517 27.1792552,12.3704276 28.5031862,11.2320828 L28.7125655,11.0520828 L28.8265655,11.3034621 C28.9703586,11.6200138 29.1060828,11.9508414 29.2302207,12.2868414 L29.2794621,12.4207034 L29.1722897,12.5144276 C27.8003586,13.7142207 24.9900828,15.8047034 21.5839448,16.327531 C17.5610483,16.9451172 14.7760138,18.2498069 11.8273241,19.6308414 C11.3733931,19.843531 10.9169793,20.0574621 10.4527034,20.2701517 C8.03470345,21.3784966 5.4696,22.1613931 4.1558069,22.5294621 L3.98863448,22.5764276 Z" id="Fill-21" fill="#000000"></path>
            <path d="M19.9188414,4.70588276 C20.5716,4.60574483 21.2020138,4.44457241 21.8051172,4.24429655 C19.9862897,3.35981379 17.9856,2.92512414 15.9412552,3.11422759 C11.4038069,3.53381379 6.78835862,5.72071034 4.4133931,9.98815862 C4.33953103,10.1209862 4.26877241,10.2565034 4.19904828,10.3926414 C5.5176,9.97098621 7.15497931,9.38795172 8.73256552,8.66505517 C12.2040828,7.07381379 15.2419448,5.42381379 19.9188414,4.70588276" id="Fill-23" fill="#63E7B9"></path>
            <path d="M16.8723724,3.27821379 C16.5667862,3.27821379 16.2628552,3.29207586 15.9603724,3.32021379 C10.9667172,3.7820069 6.73361379,6.29145517 4.62306207,10.0371103 C6.10071724,9.54821379 7.45195862,9.02414483 8.64616552,8.47690345 C9.10961379,8.26462759 9.5654069,8.05111034 10.0180966,7.83904138 C12.9945103,6.44476552 15.8060276,5.12766207 19.8874759,4.50138621 C20.3246483,4.43435172 20.7732,4.33524828 21.2267172,4.20614483 C19.8096828,3.59352414 18.327269,3.27821379 16.8723724,3.27821379 Z M3.7874069,10.7415931 L4.01478621,10.2982138 C4.08575172,10.1600069 4.15754483,10.0224207 4.23244138,9.88773103 C6.39968276,5.99373103 10.7697517,3.38476552 15.9223034,2.90807586 C17.9049931,2.72455862 19.9708552,3.12242069 21.8956138,4.05821379 L22.3524414,4.28042069 L21.8703724,4.44055862 C21.2209241,4.65635172 20.5747862,4.81462759 19.9501655,4.91042069 C15.9276828,5.5278 13.1424414,6.83248966 10.1935448,8.21373103 C9.73961379,8.42642069 9.2829931,8.64014483 8.81871724,8.85304138 C7.47947586,9.46690345 5.94616552,10.0511793 4.26202759,10.589731 L3.7874069,10.7415931 Z" id="Fill-25" fill="#000000"></path>
            <path d="M19.6337586,10.1785241 C22.2139655,9.78231724 24.4548621,8.46066207 25.9472069,7.3550069 C25.4852069,6.85638621 24.993,6.3890069 24.4718276,5.96155862 C24.1846552,5.72631724 23.8896207,5.50245517 23.5867241,5.29162759 C23.4147931,5.17204138 23.2397586,5.05783448 23.063069,4.94631724 C22.1787931,5.31852414 21.2173448,5.61728276 20.2039655,5.77286897 C15.5268621,6.4910069 12.4892069,8.1408 9.01748276,9.73204138 C7.07162069,10.6237655 5.03327586,11.3034207 3.61706897,11.7288 C3.219,12.8158345 2.94982759,14.0104552 2.83789655,15.3180414 C2.81306897,15.6099724 2.79693103,15.9081103 2.78782759,16.2112138 C4.20693103,15.7936966 6.37934483,15.0854897 8.44768966,14.1374897 C11.9192069,12.5462483 14.9568621,10.8964552 19.6337586,10.1785241" id="Fill-27" fill="#63E7B9"></path>
            <path d="M3.77627586,11.8969448 C3.39393103,12.968669 3.14772414,14.1250138 3.04406897,15.3355655 C3.02793103,15.5254966 3.01489655,15.7247379 3.00537931,15.9306 C4.43606897,15.500669 6.4437931,14.8284621 8.36131034,13.9493586 C8.82455172,13.7370828 9.28013793,13.5235655 9.73282759,13.3117034 C12.7092414,11.9174276 15.5207586,10.600531 19.6024138,9.97404828 C22.0593103,9.59666897 24.2102069,8.35508276 25.635931,7.32597931 C25.2198621,6.89025517 24.7849655,6.48597931 24.3407586,6.12163448 C24.0548276,5.88742759 23.7612414,5.66522069 23.4686897,5.46142759 C23.3402069,5.37204828 23.2030345,5.2808069 23.0431034,5.1786 C22.0988276,5.56756552 21.1545517,5.83632414 20.2353103,5.97742759 C16.2124138,6.59501379 13.4271724,7.89991034 10.478069,9.28094483 C10.0243448,9.49363448 9.56793103,9.70735862 9.10386207,9.92004828 C7.17827586,10.8024621 5.16186207,11.4777724 3.77627586,11.8969448 Z M2.57255172,16.4902552 L2.58103448,16.2049448 C2.59055172,15.8892207 2.60772414,15.5848759 2.63193103,15.3003931 C2.7417931,14.0163931 3.00786207,12.7907379 3.42268966,11.6577724 L3.45848276,11.560531 L3.55737931,11.530531 C4.93241379,11.1177724 6.98068966,10.4379103 8.93131034,9.54391034 C9.39455172,9.33184138 9.84972414,9.11832414 10.3024138,8.90646207 C13.2792414,7.51218621 16.0909655,6.19508276 20.1726207,5.5683931 C21.0908276,5.42728966 22.0363448,5.15397931 22.9828966,4.75549655 L23.0824138,4.71370345 L23.1736552,4.77142759 C23.3786897,4.90115172 23.5477241,5.01246207 23.7049655,5.12170345 C24.0064138,5.33191034 24.3084828,5.56053103 24.6028966,5.80156552 C25.1188966,6.22446207 25.6222759,6.69991034 26.0989655,7.21425517 L26.2557931,7.38370345 L26.0704138,7.52128966 C24.6115862,8.60191034 22.3162759,9.97591034 19.6651034,10.3830828 C15.6424138,11.0004621 12.8571724,12.3051517 9.90827586,13.6863931 C9.45455172,13.8988759 8.99793103,14.1128069 8.53386207,14.3254966 C6.46696552,15.2728759 4.30013793,15.9819103 2.84627586,16.4097724 L2.57255172,16.4902552 Z" id="Fill-29" fill="#000000"></path>
            <path d="M22.6163793,19.6408138 C25.7922414,19.1533655 28.4547931,17.2637793 29.8381034,16.1004 C29.8062414,15.5910207 29.745,15.0835034 29.6514828,14.5805379 C29.598931,14.2985379 29.5372759,14.0177793 29.4665172,13.7390897 C29.3479655,13.2727448 29.2033448,12.8119862 29.0359655,12.3586759 C27.7472069,13.4856414 24.9416897,15.6028138 21.5525172,16.1229517 C16.8756207,16.8410897 13.8379655,18.4908828 10.3664483,20.0821241 C7.97534483,21.1780552 5.44437931,21.9537103 4.10017241,22.3302621 C4.47465517,23.1117103 4.92010345,23.862331 5.42824138,24.5709517 C5.61072414,24.8256414 5.80024138,25.0751586 5.99803448,25.3180552 C6.06093103,25.3958483 6.12734483,25.4711586 6.19189655,25.5475034 C7.599,25.1198483 9.55706897,24.4581931 11.4303103,23.5997793 C14.9018276,22.0085379 17.9394828,20.3587448 22.6163793,19.6408138" id="Fill-31" fill="#63E7B9"></path>
            <path d="M4.39493793,22.4618069 C4.73983448,23.1507724 5.14328276,23.8188414 5.59638621,24.4502897 C5.78135172,24.7084966 5.97045517,24.9565655 6.15831724,25.187669 C6.19224828,25.2290483 6.2265931,25.2696 6.26114483,25.3101517 C7.59004138,24.9023586 9.50962759,24.2522897 11.3439724,23.411669 C11.8072138,23.1991862 12.2625931,22.9858759 12.7154897,22.7740138 C15.6919034,21.3797379 18.5032138,20.0628414 22.5850759,19.4363586 C25.6773517,18.961531 28.2933517,17.1153931 29.624731,16.0091172 C29.5912138,15.5363586 29.5318345,15.0691862 29.4480414,14.6183586 C29.3965241,14.341531 29.3352828,14.0626345 29.2659724,13.7899448 C29.1753517,13.4338759 29.0669379,13.0724276 28.9423862,12.7120138 C27.5011448,13.9310483 24.8098345,15.8324276 21.5839034,16.327531 C17.5612138,16.9451172 14.7759724,18.2498069 11.8272828,19.6308414 C11.3733517,19.843531 10.9169379,20.0574621 10.4526621,20.2701517 C8.17369655,21.3147724 5.76438621,22.0701517 4.39493793,22.4618069 Z M6.12190345,25.7849793 L5.97128276,25.607669 C5.92597241,25.5549103 5.88107586,25.5023586 5.83721379,25.4485655 C5.64417931,25.2110483 5.44990345,24.9563586 5.26017931,24.6913241 C4.7445931,23.9729793 4.29169655,23.2084966 3.91369655,22.4198069 L3.80714483,22.1976 L4.04445517,22.1309793 C5.34645517,21.7664276 7.88776552,20.9905655 10.2801103,19.8940138 C10.7435586,19.681531 11.1991448,19.4682207 11.6516276,19.2563586 C14.6282483,17.8620828 17.4395586,16.5449793 21.5212138,15.9184966 C24.8236966,15.4118069 27.5617655,13.3730483 28.8997655,12.2028414 L29.1261103,12.0050483 L29.2301793,12.2870483 C29.4023172,12.7538069 29.5494207,13.2251172 29.6669379,13.6881517 C29.7385241,13.969531 29.8016276,14.2571172 29.8550069,14.5428414 C29.9479034,15.0429103 30.0116276,15.5624276 30.044731,16.0873241 L30.0511448,16.1913931 L29.9712828,16.2588414 C28.6334897,17.3837379 25.9032828,19.345531 22.6477655,19.8453931 C18.624869,20.4627724 15.8396276,21.7674621 12.890731,23.1487034 C12.4372138,23.3611862 11.9805931,23.5751172 11.5165241,23.7878069 C9.60045517,24.6658759 7.59624828,25.3368414 6.25224828,25.7454621 L6.12190345,25.7849793 Z" id="Fill-33" fill="#000000"></path>
            <path d="M14.1518069,29.1940138 C13.5623586,29.4642207 12.9646345,29.7143586 12.3780828,29.9442207 C13.7605655,30.4564966 15.2193931,30.7407724 16.7049103,30.7407724 C20.9827034,30.7407724 24.7819448,28.4433931 27.1854621,25.0720138 C27.2719448,24.9507724 27.3542897,24.8264276 27.4370483,24.7022897 C26.7704276,24.9367034 26.0678069,25.1227034 25.3378759,25.2348414 C20.6609793,25.9527724 17.6233241,27.6029793 14.1518069,29.1940138" id="Fill-35" fill="#63E7B9"></path>
            <path d="M12.9692276,29.9304828 C14.2056414,30.3310345 15.4596414,30.5337931 16.7049517,30.5337931 C20.6184,30.5337931 24.424469,28.5012414 26.9188138,25.0882759 C26.3980552,25.2434483 25.8791586,25.3609655 25.3695724,25.4393793 C21.3468828,26.0567586 18.5618483,27.3614483 15.6131586,28.7426897 C15.1592276,28.9551724 14.7026069,29.1691034 14.2381241,29.3822069 C13.8381931,29.5653103 13.4132276,29.7490345 12.9692276,29.9304828 M16.7049517,30.9475862 C15.2357793,30.9475862 13.7558483,30.6753103 12.3061241,30.1382069 L11.7971586,29.9497241 L12.3024,29.7517241 C12.9272276,29.5067586 13.5201931,29.2557931 14.0655724,29.0058621 C14.5290207,28.7935862 14.9848138,28.580069 15.4377103,28.3677931 C18.4139172,26.9737241 21.2252276,25.6568276 25.3066759,25.0303448 C25.9826069,24.9264828 26.676331,24.7504138 27.3684,24.5071034 L27.9535034,24.3014483 L27.5792276,24.861931 C27.5053655,24.9728276 27.4310897,25.0837241 27.3539172,25.1923448 C24.784469,28.796069 20.8035724,30.9475862 16.7049517,30.9475862" id="Fill-37" fill="#000000"></path>
            <path d="M28.3387655,23.1536069 C27.3400759,23.6122966 26.2319379,23.9867793 25.0528345,24.1676069 C20.3759379,24.8857448 17.3382828,26.5357448 13.8667655,28.1267793 C12.8813172,28.5786414 11.8722828,28.9756759 10.9321448,29.3131241 C11.4030414,29.5508483 11.885731,29.7618828 12.3779379,29.9441586 C12.9644897,29.7142966 13.5624207,29.4641586 14.151869,29.1939517 C17.6233862,27.6029172 20.6610414,25.9527103 25.3379379,25.2349862 C26.0676621,25.1228483 26.7704897,24.9366414 27.4371103,24.7022276 C27.5864897,24.4777448 27.7321448,24.2505724 27.869731,24.0178138 C28.0362828,23.7356069 28.1910414,23.4465724 28.3387655,23.1536069" id="Fill-39" fill="#00D89A"></path>
            <path d="M11.4625448,29.3396897 C11.7642,29.4791379 12.0699931,29.6072069 12.3762,29.7226552 C12.9737172,29.487 13.5418552,29.2459655 14.0655103,29.0059655 C14.5289586,28.7934828 14.9847517,28.5799655 15.4376483,28.3678966 C18.4140621,26.9736207 21.2253724,25.6567241 25.3066138,25.0304483 C25.9614414,24.9298966 26.6328207,24.7614828 27.3031655,24.5297586 C27.4542,24.3015517 27.5785448,24.1041724 27.6917172,23.9125862 C27.7550276,23.8052069 27.8183379,23.6941034 27.8820621,23.5776207 C26.9398552,23.9647241 26.0009586,24.2316207 25.0842,24.3721034 C21.0615103,24.9898966 18.276269,26.2943793 15.3275793,27.6756207 C14.8736483,27.8881034 14.4172345,28.1022414 13.9529586,28.314931 C13.1909586,28.6641724 12.3550966,29.0080345 11.4625448,29.3396897 Z M12.380131,30.1656207 L12.306269,30.1381034 C11.8115793,29.9552069 11.3179241,29.7396207 10.8387517,29.4977586 L10.4094414,29.2807241 L10.8623379,29.1183103 C11.9177172,28.7394828 12.8994414,28.3426552 13.7804069,27.9387931 C14.2436483,27.7263103 14.6994414,27.513 15.1519241,27.300931 C18.1285448,25.9066552 20.9398552,24.5897586 25.0215103,23.9632759 C26.076269,23.8012759 27.1633034,23.4656897 28.2524069,22.9654138 L28.7895103,22.7187931 L28.5234414,23.2467931 C28.3593724,23.5722414 28.2039931,23.8587931 28.0479931,24.123 C27.9213724,24.3371379 27.7819241,24.5576897 27.6091655,24.8171379 L27.5708897,24.8744483 L27.5057172,24.8974138 C26.7894414,25.1492069 26.0706828,25.3316897 25.3695103,25.4392759 C21.3468207,26.0568621 18.5617862,27.3613448 15.6133034,28.7425862 C15.1591655,28.9552759 14.7025448,29.1692069 14.2380621,29.3821034 C13.6856483,29.6353448 13.0854414,29.8892069 12.4535793,30.1368621 L12.380131,30.1656207 Z" id="Fill-41" fill="#000000"></path>
            <path d="M25.0528759,24.1676897 C26.2319793,23.9868621 27.3401172,23.6121724 28.3388069,23.1536897 C28.9117034,22.0163793 29.3416345,20.801069 29.5948759,19.5381724 C29.6561172,19.233 29.7037034,18.9245172 29.7444621,18.6147931 C29.7976345,18.2103103 29.8332207,17.8021034 29.8510138,17.3916207 C28.4074966,18.5599655 25.8802552,20.2505172 22.9015655,20.7077586 C18.2244621,21.4256897 15.1866,23.0758966 11.7150828,24.666931 C10.0710828,25.4204483 8.36108276,26.0223103 7.01604828,26.4474828 C7.7823931,27.2214828 8.62735862,27.9164483 9.53542759,28.5085862 C9.87970345,28.733069 10.2328759,28.9420345 10.5932897,29.1365172 C10.7054276,29.196931 10.8186,29.2554828 10.9321862,29.313 C11.8723241,28.9755517 12.8813586,28.5785172 13.8668069,28.1268621 C17.3383241,26.5356207 20.3759793,24.8858276 25.0528759,24.1676897" id="Fill-43" fill="#63E7B9"></path>
            <path d="M7.40443448,26.5405241 C8.10312414,27.2160414 8.85664138,27.8189379 9.64843448,28.3353517 C9.98071034,28.5521793 10.3316069,28.7603172 10.6916069,28.9543862 C10.7760207,28.9999034 10.8610552,29.0443862 10.9462966,29.0880414 C11.9698138,28.7183172 12.9229862,28.3318345 13.7803655,27.938731 C14.2438138,27.7262483 14.6994,27.5129379 15.1518828,27.3010759 C18.1285034,25.9068 20.9398138,24.5896966 25.021469,23.9632138 C26.0549172,23.8045241 27.1194,23.4792828 28.1863655,22.9955586 C28.7464345,21.8702483 29.1519517,20.6936276 29.3919517,19.4975586 C29.4463655,19.226731 29.4945724,18.9294207 29.5392621,18.5878345 C29.5719517,18.3403862 29.5978138,18.0902483 29.6168483,17.8401103 C28.0251931,19.0674207 25.6698828,20.4923172 22.9328483,20.9123172 C18.9101586,21.5296966 16.1249172,22.8343862 13.1760207,24.2158345 C12.7222966,24.4283172 12.2656759,24.6420414 11.8014,24.8551448 C10.5025034,25.4501793 9.02484828,26.0166621 7.40443448,26.5405241 Z M10.9181586,29.5378345 L10.8387103,29.4974897 C10.723469,29.4391448 10.6088483,29.3799724 10.4950552,29.3185241 C10.1251241,29.1190759 9.76429655,28.9049379 9.42250345,28.6821103 C8.51381379,28.0893517 7.65477931,27.386731 6.86898621,26.592869 L6.63084828,26.3522483 L6.9536069,26.2502483 C8.68595172,25.7025931 10.2589862,25.1065241 11.6288483,24.4788 C12.0922966,24.2665241 12.5478828,24.0532138 13.0007793,23.8409379 C15.9771931,22.4466621 18.7885034,21.1297655 22.8701586,20.5032828 C25.7329862,20.0638345 28.1760207,18.4810759 29.7209172,17.2308 L30.0776069,16.9419724 L30.0577448,17.4004552 C30.0399517,17.8134207 30.0035379,18.2311448 29.9495379,18.6416276 C29.9036069,18.9925241 29.8539517,19.2989379 29.7976759,19.578869 C29.5458828,20.8345241 29.1169862,22.0686621 28.5236069,23.246731 L28.4909172,23.3114897 L28.4251241,23.3416966 C27.3008483,23.8579034 26.1767793,24.2046621 25.0841586,24.3722483 C21.061469,24.9898345 18.2762276,26.2945241 15.3275379,27.6755586 C14.8738138,27.8882483 14.4174,28.1021793 13.9529172,28.314869 C13.0614,28.7236966 12.0685034,29.124869 11.0021586,29.5078345 L10.9181586,29.5378345 Z" id="Fill-45" fill="#000000"></path>
            <path d="M22.9014621,20.7078207 C25.8801517,20.2505793 28.4073931,18.5598207 29.8511172,17.3916828 C29.8589793,17.2100276 29.8643586,17.0277517 29.8643586,16.8448552 C29.8643586,16.5963724 29.8538069,16.3483034 29.8380828,16.1002345 C28.4547724,17.2638207 25.7922207,19.1532 22.6163586,19.6408552 C17.9394621,20.3587862 14.9018069,22.0085793 11.4302897,23.5998207 C9.55704828,24.4582345 7.59897931,25.1198897 6.19187586,25.5475448 C6.45484138,25.8580966 6.7296,26.1583034 7.01615172,26.4473379 C8.36118621,26.0223724 10.0709793,25.4203034 11.7151862,24.6669931 C15.1867034,23.0757517 18.2245655,21.4257517 22.9014621,20.7078207" id="Fill-47" fill="#00D89A"></path>
            <path d="M6.55582759,25.652131 C6.72444828,25.8433034 6.89803448,26.0305448 7.07472414,26.2117862 C8.75906897,25.6746828 10.290931,25.0920621 11.628931,24.4788207 C12.0923793,24.2665448 12.5479655,24.0530276 13.0006552,23.8409586 C15.977069,22.4466828 18.7885862,21.1297862 22.8702414,20.5033034 C25.6885862,20.0706828 28.0997586,18.530131 29.6481724,17.2893724 C29.6539655,17.1416483 29.6574828,16.9933034 29.6574828,16.8449586 C29.6574828,16.7415103 29.6556207,16.6347517 29.6518966,16.5211655 C28.2265862,17.6659241 25.6625172,19.3825448 22.6476207,19.8453724 C18.624931,20.4627517 15.8396897,21.7674414 12.8907931,23.1486828 C12.4372759,23.3611655 11.9806552,23.5750966 11.5165862,23.7877862 C9.74017241,24.6019241 7.88762069,25.238131 6.55582759,25.652131 Z M6.95803448,26.6826828 L6.86927586,26.5930966 C6.58127586,26.3026138 6.30031034,25.9957862 6.03403448,25.6813034 L5.83065517,25.4408897 L6.13168966,25.3494414 C7.46368966,24.9447517 9.44906897,24.2799931 11.3440345,23.4116483 C11.8072759,23.1993724 12.2626552,22.9858552 12.7153448,22.7739931 C15.6917586,21.3797172 18.5032759,20.0628207 22.5851379,19.4363379 C25.7407241,18.9517862 28.4003793,17.0390276 29.705069,15.9418552 L30.018931,15.6780621 L30.0445862,16.0875103 C30.0627931,16.3773724 30.0712759,16.6179931 30.0712759,16.8449586 C30.0712759,17.0307517 30.0658966,17.216131 30.0578276,17.4004759 L30.0536897,17.4937862 L29.9812759,17.5525448 C28.3964483,18.8348897 25.8872069,20.4588207 22.9327241,20.9123379 C18.9102414,21.5297172 16.125,22.8344069 13.1761034,24.2158552 C12.7223793,24.4283379 12.2657586,24.6420621 11.8014828,24.8549586 C10.4158966,25.4899241 8.82693103,26.0919931 7.07844828,26.6446138 L6.95803448,26.6826828 Z" id="Fill-49" fill="#000000"></path>
            <g id="Group-53" transform="translate(0.000000, 0.206483)">
                <mask id="mask-2" fill="white">
                    <use xlink:href="#path-1"></use>
                </mask>
                <g id="Clip-52"></g>
                <path d="M2.29181379,20.4853862 C4.48946897,28.9236621 11.8450552,34.137869 17.4500897,34.137869 C21.1607793,34.137869 24.6976759,32.5292483 27.4092621,29.6080759 C30.0500897,26.7630414 31.5645724,22.9648345 31.5645724,19.1873172 C31.5645724,18.3566276 31.4679517,17.4570414 31.2769862,16.5131793 L30.1152621,12.3231103 C29.1651931,9.30345517 27.2404345,6.5595931 24.6939517,4.59531724 C22.0611931,2.56442069 18.9225724,1.52497241 15.8514,1.66876552 C11.9034,1.85331724 8.33691724,3.3075931 5.80884828,5.76304138 C3.09146897,8.40242069 1.6551931,12.0655241 1.6551931,16.3563517 C1.6551931,17.6453172 1.85733103,18.9626276 2.25622759,20.2710414 C2.27774483,20.3411793 2.28933103,20.4131793 2.29181379,20.4853862 M17.4500897,35.7930414 C13.7855379,35.7930414 10.0026414,34.1219379 6.79802069,31.0871793 C3.83671034,28.2829034 1.59333103,24.5039379 0.643055172,20.7191793 C0.631262069,20.6715931 0.623606897,20.6242138 0.620296552,20.5768345 C0.208572414,19.169731 2.06896552e-05,17.7508345 2.06896552e-05,16.3563517 C2.06896552e-05,11.607869 1.60988276,7.53407586 4.6556069,4.57586897 C7.47353793,1.83862759 11.4221586,0.219041379 15.7738138,0.0152482759 C19.237469,-0.146337931 22.7619517,1.01476552 25.7050552,3.28483448 C28.5207103,5.45704138 30.649469,8.49552414 31.6986414,11.8406276 C31.701331,11.8495241 31.7040207,11.8584207 31.7065034,11.8673172 L32.8796069,16.0989724 C32.8845724,16.1173862 32.8891241,16.1360069 32.8928483,16.1544207 C33.1098828,17.2172483 33.2197448,18.2376621 33.2197448,19.1873172 C33.2197448,23.3775931 31.5440897,27.5862828 28.6225034,30.7340069 C25.5941586,33.9965586 21.6262966,35.7930414 17.4500897,35.7930414" id="Fill-51" fill="#000000" mask="url(#mask-2)"></path>
            </g>
        </g>
    </g>
</svg>