<?xml version="1.0" encoding="UTF-8"?>
<svg width="469px" height="403px" viewBox="0 0 469 403" version="1.1" xmlns="http://www.w3.org/2000/svg" xmlns:xlink="http://www.w3.org/1999/xlink">
    <!-- Generator: Sketch 51.1 (57501) - http://www.bohemiancoding.com/sketch -->
    <title>speech bubble </title>
    <desc>Created with Sketch.</desc>
    <defs>
        <polygon id="path-1" points="0 403.469 468.955 403.469 468.955 0 0 0"></polygon>
    </defs>
    <g id="speech-bubble-" stroke="none" stroke-width="1" fill="none" fill-rule="evenodd">
        <g id="img-bubble">
            <path d="M459.9551,4.9998 L9.0001,4.9998 C6.7911,4.9998 5.0001,6.7908 5.0001,8.9998 L5.0001,345.3058 C5.0001,347.5148 6.7911,349.3058 9.0001,349.3058 L370.6141,349.3058 C372.6231,353.2148 375.0481,357.3318 377.9731,361.4598 C389.9371,378.3428 412.7411,398.4688 453.4351,398.4688 C455.6441,398.4688 457.4351,396.6778 457.4351,394.4688 C457.4351,392.2598 455.6441,390.4688 453.4351,390.4688 C423.6261,390.4688 400.4921,379.2358 384.6761,357.0818 C382.8151,354.4758 381.1691,351.8618 379.7151,349.3058 L459.9551,349.3058 C462.1641,349.3058 463.9551,347.5148 463.9551,345.3058 L463.9551,8.9998 C463.9551,6.7908 462.1641,4.9998 459.9551,4.9998 Z" id="Stroke-1" stroke="#FFFFFF" stroke-width="10"></path>
            <mask id="mask-2" fill="white">
                <use xlink:href="#path-1"></use>
            </mask>
            <g id="Clip-4"></g>
            <polygon id="Fill-3" fill="#FFFFFF" mask="url(#mask-2)" points="9 345.305 459.955 345.305 459.955 8.999 9 8.999"></polygon>
            <path d="M13,341.305 L455.955,341.305 L455.955,12.999 L13,12.999 L13,341.305 Z M459.955,349.305 L9,349.305 C6.791,349.305 5,347.514 5,345.305 L5,9 C5,6.791 6.791,5 9,5 L459.955,5 C462.164,5 463.955,6.791 463.955,9 L463.955,345.305 C463.955,347.514 462.164,349.305 459.955,349.305 Z" id="Fill-5" fill="#000000" mask="url(#mask-2)"></path>
            <path d="M453.4355,398.469 C412.7415,398.469 389.9375,378.343 377.9725,361.46 C365.0835,343.271 361.8305,325.27 361.6985,324.512 C361.3185,322.336 362.7745,320.264 364.9515,319.884 C367.1185,319.504 369.1965,320.958 369.5785,323.133 C369.6185,323.354 372.7495,340.377 384.6755,357.081 C400.4925,379.236 423.6255,390.469 453.4355,390.469 C455.6445,390.469 457.4355,392.26 457.4355,394.469 C457.4355,396.678 455.6445,398.469 453.4355,398.469" id="Fill-6" fill="#000000" mask="url(#mask-2)"></path>
        </g>
        <path d="M80.704,188 L78.052,180.512 L63.804,180.512 L61.152,188 L52.52,188 L66.404,151.132 L75.92,151.132 L89.648,188 L80.704,188 Z M71.032,160.284 L66.508,173.024 L75.452,173.024 L71.032,160.284 Z M110.032,162.156 L110.032,169.956 C109.148,169.748 108.316,169.696 107.536,169.696 C104.364,169.696 101.504,171.568 101.504,176.716 L101.504,188 L93.6,188 L93.6,162.156 L101.244,162.156 L101.244,165.64 C102.596,162.728 105.872,161.896 107.952,161.896 C108.732,161.896 109.512,162 110.032,162.156 Z M120.484,171.984 L130.832,171.984 C130.728,170.008 129.376,167.616 125.632,167.616 C122.304,167.616 120.64,170.06 120.484,171.984 Z M131.404,178.692 L138.008,180.564 C136.76,185.036 132.652,188.78 126.1,188.78 C118.976,188.78 112.632,183.684 112.632,175 C112.632,166.68 118.82,161.376 125.528,161.376 C133.536,161.376 138.476,166.316 138.476,174.636 C138.476,175.728 138.372,176.924 138.32,177.08 L120.328,177.08 C120.484,179.992 123.136,182.072 126.204,182.072 C129.064,182.072 130.676,180.72 131.404,178.692 Z M166.504,197.932 L158.184,197.932 L164.06,184.516 L153.192,162.156 L162.032,162.156 L168.324,175.988 L174.044,162.156 L182.416,162.156 L166.504,197.932 Z M196.976,181.5 C199.992,181.5 202.8,179.42 202.8,175.052 C202.8,170.684 199.992,168.656 196.976,168.656 C194.012,168.656 191.152,170.684 191.152,175.052 C191.152,179.368 194.012,181.5 196.976,181.5 Z M196.976,161.376 C204.724,161.376 210.704,167.044 210.704,175.052 C210.704,183.06 204.724,188.78 196.976,188.78 C189.28,188.78 183.248,183.06 183.248,175.052 C183.248,167.044 189.28,161.376 196.976,161.376 Z M232.44,188 C232.336,187.532 232.232,186.076 232.232,185.4 C230.88,187.636 227.916,188.572 225.316,188.572 C219.024,188.572 215.488,183.996 215.488,178.484 L215.488,162.156 L223.392,162.156 L223.392,176.82 C223.392,179.316 224.744,181.292 227.552,181.292 C230.204,181.292 231.868,179.472 231.868,176.872 L231.868,162.156 L239.772,162.156 L239.772,183.372 C239.772,185.712 239.98,187.584 240.032,188 L232.44,188 Z M63.388,248 L55.484,248 L55.484,222.156 L63.388,222.156 L63.388,248 Z M54.808,214.252 C54.808,211.704 56.888,209.624 59.384,209.624 C61.984,209.624 64.064,211.704 64.064,214.252 C64.064,216.8 61.984,218.88 59.384,218.88 C56.888,218.88 54.808,216.8 54.808,214.252 Z M78.208,233.18 L78.208,248 L70.304,248 L70.304,222.156 L77.948,222.156 L77.948,225.12 C79.352,222.676 82.524,221.48 85.176,221.48 C91.676,221.48 94.588,226.108 94.588,231.776 L94.588,248 L86.684,248 L86.684,233.128 C86.684,230.58 85.332,228.656 82.472,228.656 C79.872,228.656 78.208,230.58 78.208,233.18 Z M112.476,240.876 C112.476,236.3 115.856,233.7 120.12,233.076 L126.204,232.14 C127.608,231.932 128.076,231.256 128.076,230.372 C128.076,228.864 126.776,227.564 124.28,227.564 C121.524,227.564 120.016,229.436 119.86,231.36 L112.996,229.956 C113.308,226.264 116.74,221.376 124.332,221.376 C132.704,221.376 135.772,226.056 135.772,231.36 L135.772,243.996 C135.772,246.024 136.032,247.74 136.084,248 L128.96,248 C128.908,247.792 128.7,246.856 128.7,245.088 C127.348,247.272 124.852,248.728 121.42,248.728 C115.752,248.728 112.476,244.984 112.476,240.876 Z M123.344,243.008 C125.684,243.008 128.076,241.864 128.076,237.86 L128.076,236.716 L123.188,237.496 C121.524,237.756 120.276,238.536 120.276,240.356 C120.276,241.708 121.16,243.008 123.344,243.008 Z M164.008,227.668 L168.792,227.668 C171.912,227.668 174.044,225.848 174.044,222.988 C174.044,220.024 171.912,218.256 168.792,218.256 L164.008,218.256 L164.008,227.668 Z M169.624,234.74 L163.956,234.74 L163.956,248 L155.74,248 L155.74,211.132 L169.624,211.132 C177.112,211.132 182.26,216.072 182.26,222.936 C182.26,229.904 177.112,234.74 169.624,234.74 Z M195,248 L187.096,248 L187.096,222.156 L195,222.156 L195,248 Z M186.42,214.252 C186.42,211.704 188.5,209.624 190.996,209.624 C193.596,209.624 195.676,211.704 195.676,214.252 C195.676,216.8 193.596,218.88 190.996,218.88 C188.5,218.88 186.42,216.8 186.42,214.252 Z M213.824,228.656 C210.548,228.656 207.896,230.944 207.896,235.104 C207.896,239.212 210.652,241.5 213.928,241.5 C216.996,241.5 218.712,239.576 219.284,237.652 L226.252,239.784 C225.108,244.308 220.844,248.78 213.928,248.78 C206.232,248.78 200.044,243.112 200.044,235.104 C200.044,227.044 206.076,221.376 213.668,221.376 C220.792,221.376 224.952,225.744 226.096,230.372 L219.024,232.504 C218.452,230.528 216.892,228.656 213.824,228.656 Z M257.088,222.156 L247,233.024 L257.296,248 L247.624,248 L241.54,238.9 L238.992,241.656 L238.992,248 L231.088,248 L231.088,210.352 L238.992,210.352 L238.992,230.84 L246.844,222.156 L257.088,222.156 Z M268.944,248 L261.04,248 L261.04,210.352 L268.944,210.352 L268.944,248 Z M281.892,231.984 L292.24,231.984 C292.136,230.008 290.784,227.616 287.04,227.616 C283.712,227.616 282.048,230.06 281.892,231.984 Z M292.812,238.692 L299.416,240.564 C298.168,245.036 294.06,248.78 287.508,248.78 C280.384,248.78 274.04,243.684 274.04,235 C274.04,226.68 280.228,221.376 286.936,221.376 C294.944,221.376 299.884,226.316 299.884,234.636 C299.884,235.728 299.78,236.924 299.728,237.08 L281.736,237.08 C281.892,239.992 284.544,242.072 287.612,242.072 C290.472,242.072 292.084,240.72 292.812,238.692 Z M316.68,236.456 L310.492,236.456 C310.336,235.728 310.284,235 310.284,234.168 C310.284,231.724 311.272,229.072 314.236,226.836 L316.888,224.86 C318.292,223.82 318.76,222.572 318.76,221.22 C318.76,219.192 317.252,217.216 314.132,217.216 C311.116,217.216 309.348,219.66 309.348,222.104 C309.348,223.3 309.452,223.82 309.504,224.028 L302.224,223.768 C302.068,223.04 302.016,222.26 302.016,221.584 C302.016,215.5 306.54,210.352 314.132,210.352 C322.556,210.352 326.768,215.396 326.768,220.596 C326.768,224.756 324.844,227.616 321.724,229.956 L319.748,231.412 C317.928,232.764 316.68,234.116 316.68,236.456 Z M309.296,244.048 C309.296,241.552 311.272,239.524 313.768,239.524 C316.264,239.524 318.292,241.552 318.292,244.048 C318.292,246.492 316.264,248.52 313.768,248.52 C311.272,248.52 309.296,246.492 309.296,244.048 Z" id="Are-you-in-a-Pickle?" fill="#000000"></path>
        <path d="M62.92,290 L58.279,283.553 L56.305,285.716 L56.305,290 L53.785,290 L53.785,275.111 L56.305,275.111 L56.305,282.251 L62.71,275.111 L66.028,275.111 L60.001,281.684 L66.091,290 L62.92,290 Z M71.656,288.131 C73.168,288.131 74.512,287.018 74.512,284.876 C74.512,282.755 73.168,281.663 71.656,281.663 C70.165,281.663 68.8,282.755 68.8,284.876 C68.8,286.997 70.165,288.131 71.656,288.131 Z M71.656,279.458 C74.722,279.458 76.969,281.747 76.969,284.876 C76.969,288.026 74.722,290.315 71.656,290.315 C68.611,290.315 66.364,288.026 66.364,284.876 C66.364,281.747 68.611,279.458 71.656,279.458 Z M85.306,279.71 L85.306,282.188 C85.033,282.146 84.76,282.125 84.508,282.125 C82.618,282.125 81.757,283.217 81.757,285.128 L81.757,290 L79.321,290 L79.321,279.773 L81.694,279.773 L81.694,281.411 C82.177,280.298 83.311,279.647 84.655,279.647 C84.949,279.647 85.201,279.689 85.306,279.71 Z M88.939,283.763 L93.958,283.763 C93.916,282.566 93.118,281.495 91.438,281.495 C89.905,281.495 89.023,282.671 88.939,283.763 Z M94.231,286.43 L96.289,287.081 C95.743,288.866 94.126,290.315 91.669,290.315 C88.897,290.315 86.44,288.299 86.44,284.834 C86.44,281.6 88.834,279.458 91.417,279.458 C94.567,279.458 96.415,281.537 96.415,284.771 C96.415,285.17 96.373,285.506 96.352,285.548 L88.876,285.548 C88.939,287.102 90.157,288.215 91.669,288.215 C93.139,288.215 93.895,287.438 94.231,286.43 Z M98.116,287.228 C98.116,285.401 99.46,284.393 101.203,284.141 L103.828,283.742 C104.416,283.658 104.584,283.364 104.584,283.007 C104.584,282.146 103.996,281.453 102.652,281.453 C101.371,281.453 100.657,282.272 100.552,283.301 L98.326,282.797 C98.515,281.033 100.111,279.458 102.631,279.458 C105.781,279.458 106.978,281.243 106.978,283.28 L106.978,288.362 C106.978,289.286 107.083,289.895 107.104,290 L104.836,290 C104.815,289.937 104.731,289.517 104.731,288.698 C104.248,289.475 103.24,290.315 101.581,290.315 C99.439,290.315 98.116,288.845 98.116,287.228 Z M102.043,288.404 C103.408,288.404 104.584,287.753 104.584,285.758 L104.584,285.296 L101.917,285.695 C101.161,285.821 100.552,286.241 100.552,287.081 C100.552,287.774 101.077,288.404 102.043,288.404 Z M127.831,290 L125.206,290 L117.856,278.723 L117.856,290 L115.336,290 L115.336,275.111 L118.549,275.111 L125.311,285.674 L125.311,275.111 L127.831,275.111 L127.831,290 Z M135.643,288.131 C137.155,288.131 138.499,287.018 138.499,284.876 C138.499,282.755 137.155,281.663 135.643,281.663 C134.152,281.663 132.787,282.755 132.787,284.876 C132.787,286.997 134.152,288.131 135.643,288.131 Z M135.643,279.458 C138.709,279.458 140.956,281.747 140.956,284.876 C140.956,288.026 138.709,290.315 135.643,290.315 C132.598,290.315 130.351,288.026 130.351,284.876 C130.351,281.747 132.598,279.458 135.643,279.458 Z M142.783,288.425 C142.783,287.48 143.539,286.703 144.484,286.703 C145.429,286.703 146.206,287.48 146.206,288.425 C146.206,289.37 145.429,290.126 144.484,290.126 C143.539,290.126 142.783,289.37 142.783,288.425 Z M152.338,290 L149.86,290 L149.86,280.676 L146.563,280.676 L146.563,278.954 C148.516,278.912 149.86,277.82 150.154,276.392 L152.338,276.392 L152.338,290 Z M167.479,290.315 C163.468,290.315 159.961,287.417 159.961,282.566 C159.961,277.715 163.594,274.796 167.458,274.796 C171.238,274.796 173.485,277.022 174.157,279.626 L171.784,280.424 C171.343,278.618 169.957,277.169 167.458,277.169 C165.001,277.169 162.544,278.954 162.544,282.566 C162.544,286.052 164.938,287.9 167.479,287.9 C169.978,287.9 171.406,286.304 171.91,284.624 L174.22,285.38 C173.548,287.9 171.28,290.315 167.479,290.315 Z M182.305,279.71 L182.305,282.188 C182.032,282.146 181.759,282.125 181.507,282.125 C179.617,282.125 178.756,283.217 178.756,285.128 L178.756,290 L176.32,290 L176.32,279.773 L178.693,279.773 L178.693,281.411 C179.176,280.298 180.31,279.647 181.654,279.647 C181.948,279.647 182.2,279.689 182.305,279.71 Z M187.828,294.137 L185.224,294.137 L187.681,288.782 L183.313,279.773 L186.064,279.773 L189.004,286.241 L191.755,279.773 L194.338,279.773 L187.828,294.137 Z M198.538,293.99 L196.123,293.99 L196.123,279.773 L198.475,279.773 L198.475,281.159 C198.979,280.277 200.155,279.542 201.73,279.542 C204.754,279.542 206.455,281.852 206.455,284.876 C206.455,287.942 204.586,290.252 201.646,290.252 C200.176,290.252 199.063,289.622 198.538,288.845 L198.538,293.99 Z M204.019,284.876 C204.019,282.965 202.906,281.705 201.268,281.705 C199.672,281.705 198.517,282.965 198.517,284.876 C198.517,286.829 199.672,288.089 201.268,288.089 C202.885,288.089 204.019,286.829 204.019,284.876 Z M211.831,276.644 L211.831,279.773 L213.952,279.773 L213.952,281.936 L211.831,281.936 L211.831,286.682 C211.831,287.585 212.23,287.963 213.133,287.963 C213.469,287.963 213.868,287.9 213.973,287.879 L213.973,289.895 C213.826,289.958 213.364,290.126 212.482,290.126 C210.592,290.126 209.416,288.992 209.416,287.081 L209.416,281.936 L207.526,281.936 L207.526,279.773 L208.051,279.773 C209.143,279.773 209.626,279.08 209.626,278.177 L209.626,276.644 L211.831,276.644 Z M220.84,288.131 C222.352,288.131 223.696,287.018 223.696,284.876 C223.696,282.755 222.352,281.663 220.84,281.663 C219.349,281.663 217.984,282.755 217.984,284.876 C217.984,286.997 219.349,288.131 220.84,288.131 Z M220.84,279.458 C223.906,279.458 226.153,281.747 226.153,284.876 C226.153,288.026 223.906,290.315 220.84,290.315 C217.795,290.315 215.548,288.026 215.548,284.876 C215.548,281.747 217.795,279.458 220.84,279.458 Z M236.128,290 L233.713,290 L233.713,279.773 L236.128,279.773 L236.128,290 Z M233.335,276.182 C233.335,275.3 234.049,274.586 234.91,274.586 C235.792,274.586 236.506,275.3 236.506,276.182 C236.506,277.064 235.792,277.757 234.91,277.757 C234.049,277.757 233.335,277.064 233.335,276.182 Z M241.714,284.099 L241.714,290 L239.278,290 L239.278,279.773 L241.651,279.773 L241.651,281.138 C242.323,279.962 243.541,279.479 244.675,279.479 C247.174,279.479 248.371,281.285 248.371,283.532 L248.371,290 L245.935,290 L245.935,283.952 C245.935,282.692 245.368,281.684 243.835,281.684 C242.449,281.684 241.714,282.755 241.714,284.099 Z M255.868,276.875 C255.238,276.875 254.356,277.169 254.356,278.429 L254.356,279.773 L258.724,279.773 L258.724,274.796 L261.139,274.796 L261.139,290 L258.724,290 L258.724,281.894 L254.356,281.894 L254.356,290 L251.899,290 L251.899,281.894 L250.114,281.894 L250.114,279.773 L251.899,279.773 L251.899,278.366 C251.899,276.077 253.369,274.691 255.469,274.691 C256.078,274.691 256.582,274.817 256.75,274.901 L256.75,276.98 C256.603,276.938 256.33,276.875 255.868,276.875 Z M270.946,288.866 C270.442,289.79 269.245,290.294 268.048,290.294 C265.612,290.294 264.184,288.488 264.184,286.22 L264.184,279.773 L266.62,279.773 L266.62,285.779 C266.62,287.039 267.208,288.11 268.678,288.11 C270.085,288.11 270.82,287.165 270.82,285.821 L270.82,279.773 L273.256,279.773 L273.256,288.131 C273.256,288.971 273.319,289.622 273.361,290 L271.03,290 C270.988,289.769 270.946,289.286 270.946,288.866 Z M278.044,283.763 L283.063,283.763 C283.021,282.566 282.223,281.495 280.543,281.495 C279.01,281.495 278.128,282.671 278.044,283.763 Z M283.336,286.43 L285.394,287.081 C284.848,288.866 283.231,290.315 280.774,290.315 C278.002,290.315 275.545,288.299 275.545,284.834 C275.545,281.6 277.939,279.458 280.522,279.458 C283.672,279.458 285.52,281.537 285.52,284.771 C285.52,285.17 285.478,285.506 285.457,285.548 L277.981,285.548 C278.044,287.102 279.262,288.215 280.774,288.215 C282.244,288.215 283,287.438 283.336,286.43 Z M290.287,284.099 L290.287,290 L287.851,290 L287.851,279.773 L290.224,279.773 L290.224,281.138 C290.896,279.962 292.114,279.479 293.248,279.479 C295.747,279.479 296.944,281.285 296.944,283.532 L296.944,290 L294.508,290 L294.508,283.952 C294.508,282.692 293.941,281.684 292.408,281.684 C291.022,281.684 290.287,282.755 290.287,284.099 Z M304.357,281.705 C302.866,281.705 301.543,282.818 301.543,284.876 C301.543,286.934 302.866,288.089 304.399,288.089 C305.995,288.089 306.73,286.976 306.961,286.199 L309.103,286.976 C308.62,288.572 307.087,290.315 304.399,290.315 C301.396,290.315 299.107,287.984 299.107,284.876 C299.107,281.726 301.396,279.458 304.336,279.458 C307.087,279.458 308.599,281.18 309.019,282.818 L306.835,283.616 C306.604,282.713 305.911,281.705 304.357,281.705 Z M312.862,283.763 L317.881,283.763 C317.839,282.566 317.041,281.495 315.361,281.495 C313.828,281.495 312.946,282.671 312.862,283.763 Z M318.154,286.43 L320.212,287.081 C319.666,288.866 318.049,290.315 315.592,290.315 C312.82,290.315 310.363,288.299 310.363,284.834 C310.363,281.6 312.757,279.458 315.34,279.458 C318.49,279.458 320.338,281.537 320.338,284.771 C320.338,285.17 320.296,285.506 320.275,285.548 L312.799,285.548 C312.862,287.102 314.08,288.215 315.592,288.215 C317.062,288.215 317.818,287.438 318.154,286.43 Z M328.654,279.71 L328.654,282.188 C328.381,282.146 328.108,282.125 327.856,282.125 C325.966,282.125 325.105,283.217 325.105,285.128 L325.105,290 L322.669,290 L322.669,279.773 L325.042,279.773 L325.042,281.411 C325.525,280.298 326.659,279.647 328.003,279.647 C328.297,279.647 328.549,279.689 328.654,279.71 Z M348.562,290 L345.937,290 L338.587,278.723 L338.587,290 L336.067,290 L336.067,275.111 L339.28,275.111 L346.042,285.674 L346.042,275.111 L348.562,275.111 L348.562,290 Z M353.581,283.763 L358.6,283.763 C358.558,282.566 357.76,281.495 356.08,281.495 C354.547,281.495 353.665,282.671 353.581,283.763 Z M358.873,286.43 L360.931,287.081 C360.385,288.866 358.768,290.315 356.311,290.315 C353.539,290.315 351.082,288.299 351.082,284.834 C351.082,281.6 353.476,279.458 356.059,279.458 C359.209,279.458 361.057,281.537 361.057,284.771 C361.057,285.17 361.015,285.506 360.994,285.548 L353.518,285.548 C353.581,287.102 354.799,288.215 356.311,288.215 C357.781,288.215 358.537,287.438 358.873,286.43 Z M366.475,276.644 L366.475,279.773 L368.596,279.773 L368.596,281.936 L366.475,281.936 L366.475,286.682 C366.475,287.585 366.874,287.963 367.777,287.963 C368.113,287.963 368.512,287.9 368.617,287.879 L368.617,289.895 C368.47,289.958 368.008,290.126 367.126,290.126 C365.236,290.126 364.06,288.992 364.06,287.081 L364.06,281.936 L362.17,281.936 L362.17,279.773 L362.695,279.773 C363.787,279.773 364.27,279.08 364.27,278.177 L364.27,276.644 L366.475,276.644 Z M376.996,279.773 L379.516,279.773 L381.931,286.85 L383.968,279.773 L386.446,279.773 L383.17,290 L380.734,290 L378.193,282.65 L375.715,290 L373.216,290 L369.898,279.773 L372.502,279.773 L374.581,286.85 L376.996,279.773 Z M392.536,288.131 C394.048,288.131 395.392,287.018 395.392,284.876 C395.392,282.755 394.048,281.663 392.536,281.663 C391.045,281.663 389.68,282.755 389.68,284.876 C389.68,286.997 391.045,288.131 392.536,288.131 Z M392.536,279.458 C395.602,279.458 397.849,281.747 397.849,284.876 C397.849,288.026 395.602,290.315 392.536,290.315 C389.491,290.315 387.244,288.026 387.244,284.876 C387.244,281.747 389.491,279.458 392.536,279.458 Z M406.186,279.71 L406.186,282.188 C405.913,282.146 405.64,282.125 405.388,282.125 C403.498,282.125 402.637,283.217 402.637,285.128 L402.637,290 L400.201,290 L400.201,279.773 L402.574,279.773 L402.574,281.411 C403.057,280.298 404.191,279.647 405.535,279.647 C405.829,279.647 406.081,279.689 406.186,279.71 Z M417.799,279.773 L413.599,284.099 L417.883,290 L414.901,290 L411.898,285.821 L410.638,287.144 L410.638,290 L408.223,290 L408.223,274.796 L410.638,274.796 L410.638,283.91 L414.565,279.773 L417.799,279.773 Z" id="Korea-No.1-Crypto-in" fill="#000000"></path>
        <rect id="Rectangle" fill="#000000" x="52" y="108" width="15" height="15"></rect>
    </g>
</svg>