<?xml version="1.0" encoding="UTF-8"?>
<svg width="36px" height="36px" viewBox="0 0 36 36" version="1.1" xmlns="http://www.w3.org/2000/svg" xmlns:xlink="http://www.w3.org/1999/xlink">
    <defs>
        <polygon id="path-1" points="0 0 34.6784046 0 34.6784046 35.9999168 0 35.9999168"></polygon>
    </defs>
    <g id="icon-pickle-2" stroke="none" stroke-width="1" fill="none" fill-rule="evenodd">
        <g transform="translate(1.000000, 0.000000)">
            <path d="M29.4096694,11.3414566 C27.2783861,10.0625202 25.4471723,8.31183815 24.2955884,6.10917919 C22.6558197,2.97280925 18.8912185,0.832369942 15.1068486,0.832369942 C14.2212069,0.832369942 13.3409757,0.951190751 12.4892532,1.17093642 L12.4880046,1.16968786 C8.5092763,1.80083237 4.19177341,4.73597688 2.98046705,8.37634682 C2.63440925,9.41597688 2.4473341,10.5282312 2.4473341,11.6839769 C2.4473341,12.4395607 2.52724162,13.1764162 2.67977341,13.8864277 C3.1398659,16.0301965 2.76946127,18.2513757 1.83179653,20.2332486 C1.19898728,21.5710751 0.841276301,23.0641387 0.832536416,24.6404393 C0.800906358,30.4095954 6.1056,35.1676301 11.8747561,35.1676301 C14.6080509,35.1676301 17.0957965,34.1196763 18.9596809,32.4041618 C20.2196809,31.2446705 22.3428486,30.5409017 24.0544092,30.485341 C24.1108023,30.4836763 24.1676116,30.4813873 24.2242127,30.478474 C28.8001665,30.2526936 32.5169064,26.8235376 33.2581318,22.3872139 C33.5763052,21.548185 33.7758659,20.6519306 33.830178,19.7184277 C34.0372301,16.1664971 32.2124671,13.0234682 29.4096694,11.3414566" id="Fill-1" fill="#05D384"></path>
            <path d="M29.4096694,11.3414566 C27.2783861,10.0625202 25.4471723,8.31183815 24.2955884,6.10917919 C22.6558197,2.97280925 18.8912185,0.832369942 15.1068486,0.832369942 C10.7664555,0.832369942 6.54529942,3.64723699 5.24617803,7.55105202 C4.92155376,8.5265896 4.7459237,9.56996532 4.7459237,10.6545434 C4.7459237,11.3635145 4.82104509,12.0550058 4.96400462,12.7213179 C5.39579653,14.7327399 5.04807399,16.8167861 4.16825896,18.6765087 C3.5745711,19.9315145 3.23891792,21.3326012 3.23080231,22.8115145 C3.20104509,28.2248324 8.17861734,32.6892486 13.5917272,32.6892486 C16.156259,32.6892486 18.4904324,31.7058035 20.2396578,30.0962081 C21.4216231,29.0080925 23.4141087,28.3480231 25.0195422,28.296 C25.0728139,28.2943353 25.1258775,28.2920462 25.1791491,28.289341 C29.7985942,28.0616879 33.5611145,24.3355838 33.830178,19.7184277 C34.0374382,16.1664971 32.2124671,13.0234682 29.4096694,11.3414566" id="Fill-3" fill="#00D89A"></path>
            <path d="M15.1067861,1.04046243 C10.8454682,1.04046243 6.69131792,3.86760694 5.44359538,7.61680925 C5.11876301,8.59338728 4.95395376,9.61553757 4.95395376,10.6545434 C4.95395376,11.3366705 5.02595376,12.017341 5.16745665,12.6776185 C5.58988439,14.6457572 5.30937572,16.7508208 4.35652023,18.7655723 C3.75534104,20.0357688 3.44673988,21.3973179 3.43904046,22.812763 C3.42572254,25.2081156 4.41978035,27.5339653 6.23788439,29.3622659 C8.20914451,31.3443468 10.8893757,32.4811561 13.5918728,32.4811561 C16.0094913,32.4811561 18.3201503,31.5796994 20.0987168,29.9432601 C21.4180231,28.7288324 23.5174682,28.1363931 25.0128208,28.0881156 C25.065052,28.0864509 25.1168671,28.0841618 25.1688902,28.0814566 C29.6484971,27.8606705 33.3616994,24.1818035 33.6226474,19.7061503 C33.8170058,16.3727168 32.1618382,13.2357225 29.3026474,11.5197919 C27.002185,10.1395145 25.2069711,8.30184971 24.1111561,6.20552601 C22.5213295,3.16446243 18.8185318,1.04046243 15.1067861,1.04046243 M13.5918728,32.897341 C10.7795029,32.897341 7.99147977,31.7157919 5.94280925,29.6556763 C4.04604624,27.7485087 3.00891329,25.3173642 3.02285549,22.8102659 C3.0309711,21.3338497 3.35309827,19.9129942 3.98008092,18.5874451 C4.89381503,16.6561387 5.16371098,14.6428439 4.76063584,12.7650173 C4.61268208,12.0760231 4.53776879,11.3660116 4.53776879,10.6545434 C4.53776879,9.5705896 4.70965318,8.5043237 5.04863584,7.48550289 C6.37168786,3.50968786 10.6017919,0.624277457 15.1067861,0.624277457 C18.9669017,0.624277457 22.8211908,2.84004624 24.479896,6.01304046 C25.5405434,8.04110983 27.2820694,9.82196532 29.5167746,11.1631214 C32.5091445,12.9587514 34.2415145,16.2418266 34.038,19.7304971 C33.7649827,24.4152832 29.8782312,28.2660347 25.1892832,28.4972254 C25.134763,28.4999306 25.080659,28.5022197 25.0259306,28.5040925 C23.348289,28.5581965 21.438,29.2759075 20.380474,30.2491561 C18.5251214,31.956763 16.1141618,32.897341 13.5918728,32.897341" id="Fill-5" fill="#000000"></path>
            <path d="M28.4214382,11.8342405 C26.483889,10.6712116 24.8191491,9.08013642 23.7722358,7.07766243 C22.2814613,4.2261711 18.8591723,2.28029827 15.4187792,2.28029827 C11.4731376,2.28029827 7.63549595,4.83941965 6.4545711,8.3882289 C6.15949595,9.27511908 5.99968092,10.2238127 5.99968092,11.2097549 C5.99968092,11.8544254 6.06814335,12.4826566 6.19799306,13.0884139 C6.59045549,14.9169225 6.27436301,16.8116046 5.47487168,18.5023561 C4.93487168,19.6431191 4.62980809,20.9168532 4.62252486,22.2613387 C4.59526474,27.1825179 9.12023584,31.2413618 14.041415,31.2411538 C16.3728832,31.2411538 18.4950104,30.3473965 20.084837,28.8838821 C21.1596347,27.8948185 22.9706636,27.2944717 24.4304324,27.2472347 C24.4787098,27.245778 24.5269873,27.2439052 24.5756809,27.2414081 C28.7749873,27.034148 32.1954035,23.6472347 32.4401202,19.4495931 C32.6284439,16.2204139 30.9693225,13.363304 28.4214382,11.8342405" id="Fill-7" fill="#DCFFF0"></path>
            <path d="M11.8748393,35.3757225 C8.88122081,35.3757225 5.91361387,34.1180116 3.73259653,31.9251329 C1.71368324,29.8949827 0.609752601,27.3075607 0.624527168,24.6391908 C0.633267052,23.0678844 0.975995376,21.5554682 1.64355607,20.1443931 C2.61867746,18.0834451 2.90646936,15.9346821 2.4763422,13.9301272 C2.31881618,13.1966012 2.23890867,12.4408092 2.23890867,11.6839769 C2.23890867,10.5303121 2.42203006,9.39516763 2.78307052,8.31079769 C3.94693179,4.81255491 8.10524393,1.65433526 12.4554173,0.964300578 L12.5205503,1.37507514 C8.31292023,2.04263584 4.29631908,5.08078613 3.17803006,8.44189595 C2.83113988,9.48423121 2.65509364,10.5748439 2.65509364,11.6839769 C2.65509364,12.4116763 2.73187977,13.1379191 2.88316301,13.8427283 C3.33264277,15.9375954 3.03423815,18.1781272 2.01999538,20.3223121 C1.37844624,21.6780347 1.04903584,23.1311445 1.04071214,24.6416879 C1.02656185,27.198104 2.08741734,29.6806474 4.02767168,31.6317225 C6.13086243,33.7465665 8.99130173,34.9595376 11.8748393,34.9595376 C14.454978,34.9595376 16.9210821,33.9977341 18.8188855,32.2510058 C20.2224694,30.9589595 22.4565503,30.3288555 24.0476254,30.2776647 C24.102978,30.2757919 24.1583306,30.2732948 24.2138913,30.2705896 C28.6264925,30.0531329 32.3471861,26.7049249 33.0609434,22.3095954 L33.4717179,22.376185 C32.7267468,26.9642081 28.8418682,30.4591214 24.2344925,30.6863584 C24.1766428,30.6892717 24.1187931,30.6915607 24.0611514,30.6934335 C22.2698913,30.7512832 20.2299607,31.5176879 19.1006428,32.5571098 C17.1258451,34.3745896 14.5596486,35.3757225 11.8748393,35.3757225" id="Fill-9" fill="#000000"></path>
            <path d="M14.4180832,15.6766474 C14.0021064,15.493526 13.8133665,15.0076301 13.9964879,14.5914451 C14.1796092,14.1752601 14.6655052,13.9865202 15.0816902,14.1698497 C15.3528347,14.2892948 15.9359098,14.9279306 16.1991468,15.3099884 C16.3127653,15.4752139 16.2124647,15.7034913 16.0135283,15.7311676 C15.5540601,15.7948439 14.6894358,15.7960925 14.4180832,15.6766474" id="Fill-11" fill="#63E7B9"></path>
            <path d="M14.7501364,14.3077734 C14.6748069,14.3077734 14.5992694,14.3217156 14.5272694,14.3498081 C14.3739052,14.4093225 14.2530035,14.525022 14.1868301,14.6754728 C14.0503214,14.9859468 14.1914081,15.3496925 14.5020902,15.4862012 C14.6995699,15.5731838 15.4896971,15.593785 15.9849572,15.5251145 C16.0145064,15.5207445 16.0280324,15.5001434 16.0330266,15.4882821 C16.0382289,15.4764208 16.0446798,15.4526983 16.0278243,15.4281434 C15.743778,15.0161202 15.1954543,14.4471954 14.9977665,14.3602127 C14.9184832,14.3252532 14.8342058,14.3077734 14.7501364,14.3077734 M15.2728647,15.9818775 C14.9047491,15.9818775 14.5274775,15.9521202 14.3341595,15.8670104 C13.8139283,15.6381087 13.576911,15.0281896 13.8060208,14.5077503 C13.9169341,14.2553341 14.1196162,14.0616 14.3764023,13.9619237 C14.6333965,13.8620393 14.913489,13.8682821 15.1656971,13.9794035 C15.5140439,14.1327676 16.1349919,14.8502705 16.3703445,15.1919584 C16.4650266,15.3295075 16.4812578,15.5028486 16.4140439,15.6560046 C16.346622,15.8091607 16.2076162,15.9142474 16.0421827,15.9371376 C15.8590613,15.9625249 15.5689803,15.9818775 15.2728647,15.9818775" id="Fill-13" fill="#000000"></path>
            <path d="M20.468622,16.4252809 C20.9495237,16.3401711 21.2701942,15.8815353 21.1848763,15.4006335 C21.0995584,14.920148 20.6409225,14.5994775 20.160437,14.6845873 C19.8470497,14.7399399 19.0762751,15.2578821 18.7044139,15.5891653 C18.5435584,15.7327491 18.5903792,15.9961942 18.7907723,16.0756855 C19.2535699,16.2592231 20.1552347,16.4808416 20.468622,16.4252809" id="Fill-15" fill="#63E7B9"></path>
            <path d="M20.3147792,14.8790289 C20.2758659,14.8790289 20.2363283,14.8825665 20.1967908,14.8894335 C19.947496,14.9335491 19.2110566,15.4163237 18.8431491,15.7444855 C18.8133919,15.7709133 18.8140162,15.8031676 18.8171376,15.8200231 C18.8198428,15.8370867 18.8304555,15.8676763 18.8672879,15.8822428 C19.3257156,16.0636994 20.1836809,16.2620116 20.4321434,16.2203931 C20.6100624,16.1889711 20.7650913,16.0899191 20.8685133,15.9419653 C20.9719353,15.7940116 21.0116809,15.6148439 20.9800509,15.4371329 C20.9219931,15.1098035 20.636074,14.8790289 20.3147792,14.8790289 M20.3495306,16.6419884 C19.8921434,16.6419884 19.0801665,16.4143353 18.7141318,16.2692948 C18.5522358,16.2049942 18.4375769,16.0643237 18.4071954,15.8928555 C18.3768139,15.7211792 18.4363283,15.549711 18.566178,15.4340116 C18.8972532,15.1385202 19.7244208,14.5504509 20.1239584,14.4796994 C20.7178543,14.3741965 21.2844902,14.7714451 21.389785,15.3643006 C21.4407676,15.6516763 21.3768832,15.941341 21.2095769,16.1806474 C21.0424786,16.4195376 20.7921434,16.5793526 20.5049757,16.6301272 C20.4598197,16.6382428 20.4073803,16.6419884 20.3495306,16.6419884" id="Fill-17" fill="#000000"></path>
            <path d="M16.3937341,20.1904647 C16.0826358,20.6842682 15.4300578,20.832222 14.9360462,20.5211237 C14.4422428,20.2100254 14.294289,19.5572393 14.6053873,19.0634358 C14.8082775,18.7417249 15.7292948,18.1220254 16.2640925,17.8598289 C16.4954913,17.7464185 16.7662197,17.9170543 16.7637225,18.1746728 C16.758104,18.7702335 16.5966243,19.8685457 16.3937341,20.1904647" id="Fill-19" fill="#63E7B9"></path>
            <path d="M16.4160832,18.0321087 C16.3977711,18.0321087 16.3771699,18.0360624 16.3557364,18.0466751 C15.810326,18.3138659 14.9488231,18.9090104 14.7815168,19.1743283 C14.660615,19.3661896 14.6217017,19.5936347 14.671852,19.8146289 C14.7220023,20.0358312 14.8551815,20.2241549 15.0470428,20.3450566 C15.4436671,20.5945595 15.9684763,20.4753225 16.2177711,20.0795306 C16.3850775,19.8140046 16.5498867,18.7804092 16.5557133,18.1727792 C16.5563376,18.1030682 16.5103491,18.066652 16.4905803,18.0539584 C16.4776786,18.0458428 16.4506266,18.0321087 16.4160832,18.0321087 M15.497563,20.8915075 C15.2672046,20.8915075 15.034141,20.8286636 14.8250081,20.6971491 C14.539089,20.516941 14.3405688,20.2364324 14.2658636,19.9068139 C14.1913665,19.5774035 14.2492162,19.2384208 14.4294243,18.9525017 C14.6624879,18.5827214 15.6330312,17.9374266 16.1724069,17.6727329 C16.3465803,17.5878312 16.5484301,17.5984439 16.712615,17.702074 C16.8768,17.805496 16.9737711,17.9829988 16.9718983,18.1767329 C16.9662798,18.777704 16.8027191,19.9315769 16.5696555,20.3013572 L16.3938173,20.1904439 L16.5696555,20.3013572 C16.3297249,20.6823746 15.9179098,20.8915075 15.497563,20.8915075" id="Fill-21" fill="#000000"></path>
            <g id="Group-25">
                <mask id="mask-2" fill="white">
                    <use xlink:href="#path-1"></use>
                </mask>
                <g id="Clip-24"></g>
                <path d="M12.2450983,2.05795145 C8.44636994,2.80021734 4.77062428,5.63318844 3.77011561,8.63908439 C3.44465896,9.61711908 3.27964162,10.6415584 3.27964162,11.6841017 C3.27964162,12.3683098 3.35164162,13.050437 3.49356069,13.7117549 C3.97217341,15.9418821 3.65753757,18.319963 2.58419653,20.5894197 C1.98218497,21.8621133 1.67275145,23.2267838 1.66484393,24.6451422 C1.6517341,27.0340439 2.64808092,29.3590613 4.47034682,31.1913156 C6.45742197,33.1894197 9.15617341,34.3351769 11.8749017,34.3351769 C14.2979306,34.3351769 16.614,33.4320555 18.396104,31.7916624 C19.9174682,30.3912 22.3207283,29.7086566 24.0272948,29.653304 C24.0809827,29.6518474 24.1317572,29.6497665 24.1825318,29.6470613 C28.2834104,29.4445873 31.7548092,26.3338127 32.4371445,22.2499977 L32.4508786,22.1690497 L32.4798035,22.0918474 C32.7765434,21.3098358 32.951341,20.4949457 32.9992023,19.6700671 C33.1800347,16.5686566 31.6405665,13.6509919 28.9813526,12.0551306 C26.5824624,10.6155468 24.7071329,8.69298035 23.5578382,6.49489942 C22.0712254,3.65089942 18.5958728,1.66465665 15.1067861,1.66465665 C14.3110405,1.66465665 13.5003121,1.76974335 12.6972832,1.97679538 L12.2771445,2.08521156 L12.2450983,2.05795145 Z M11.8749017,35.9999168 C8.7162659,35.9999168 5.58717919,34.6752 3.29004624,32.3653734 C1.15293642,30.2164023 -0.0155028902,27.4714543 0.000104046243,24.635778 C0.00926011561,22.9727029 0.372381503,21.3716393 1.07927168,19.8775353 C1.99508671,17.9416509 2.26706358,15.930437 1.86586127,14.0613503 C1.69938728,13.2851653 1.61490173,12.4854659 1.61490173,11.6841017 C1.61490173,10.4628069 1.80863584,9.26128092 2.19090173,8.11344277 C3.42114451,4.41605549 7.77964162,1.08241387 12.3356185,0.351176879 C13.2566358,0.118113295 14.1888902,-8.32369942e-05 15.1067861,-8.32369942e-05 C19.1893526,-8.32369942e-05 23.2712948,2.35365087 25.0332139,5.72350058 C26.0403815,7.65002081 27.7017919,9.34576647 29.8380694,10.6278243 C33.03,12.5433156 34.8782775,16.045304 34.661237,19.7668301 C34.605052,20.7336277 34.4044509,21.688148 34.0652601,22.6052116 C33.2229017,27.4154775 29.1141156,31.070622 24.2653526,31.3097202 C24.203341,31.3128416 24.1407052,31.3155468 24.0782775,31.3172116 C22.4266474,31.3708994 20.5523584,32.069674 19.5235491,33.0164948 C17.4332601,34.9405179 14.7168208,35.9999168 11.8749017,35.9999168 Z" id="Fill-23" fill="#000000" mask="url(#mask-2)"></path>
            </g>
        </g>
    </g>
</svg>