<?xml version="1.0" encoding="UTF-8"?>
<svg width="160px" height="160px" viewBox="0 0 160 160" version="1.1" xmlns="http://www.w3.org/2000/svg" xmlns:xlink="http://www.w3.org/1999/xlink">
    <defs>
        <polygon id="path-1" points="0.149082353 0.235446154 33.5294118 0.235446154 33.5294118 30.9379077 0.149082353 30.9379077"></polygon>
        <polygon id="path-3" points="0.0564392157 0.136030769 15.0255373 0.136030769 15.0255373 28 0.0564392157 28"></polygon>
        <polygon id="path-5" points="0.21267451 0.136030769 15.1820863 0.136030769 15.1820863 28 0.21267451 28"></polygon>
        <polygon id="path-7" points="0.0554980392 0.136030769 15.0245961 0.136030769 15.0245961 28 0.0554980392 28"></polygon>
        <polygon id="path-9" points="0.21145098 0.136030769 15.1811765 0.136030769 15.1811765 28 0.21145098 28"></polygon>
        <polygon id="path-11" points="0.0542745098 0.136030769 15.0236863 0.136030769 15.0236863 28 0.0542745098 28"></polygon>
        <polygon id="path-13" points="0.210854902 0.136030769 15.1799529 0.136030769 15.1799529 28 0.210854902 28"></polygon>
        <polygon id="path-15" points="0.0533647059 0.136030769 15.0227765 0.136030769 15.0227765 28 0.0533647059 28"></polygon>
        <polygon id="path-17" points="0 160 159.960784 160 159.960784 0 0 0"></polygon>
    </defs>
    <g id="img-testimonial-3" stroke="none" stroke-width="1" fill="none" fill-rule="evenodd">
        <g>
            <polygon id="Fill-1" fill="#FFFFFF" points="34.1863843 79.1508615 34.1863843 57.2213231 3.1830902 57.2213231 3.1830902 79.1508615 12.7567373 79.1508615 18.6845804 85.5930154 24.8207373 79.1508615"></polygon>
            <g id="Group-116">
                <path d="M4.37113725,77.9852923 L12.7567059,77.9852923 C13.0930196,77.9852923 13.4136471,78.1249846 13.6392157,78.3699077 L18.6999216,83.8696 L23.9526275,78.3551385 C24.1775686,78.1194462 24.4919216,77.9852923 24.8213333,77.9852923 L32.9979608,77.9852923 L32.9979608,58.3868308 L4.37113725,58.3868308 L4.37113725,77.9852923 Z M18.684549,86.7585231 L18.6745098,86.7585231 C18.3416471,86.7554462 18.0254118,86.6160615 17.8023529,86.3739077 L12.2283922,80.3160615 L3.1827451,80.3160615 C2.52643137,80.3160615 1.99435294,79.7945231 1.99435294,79.1508308 L1.99435294,57.2212923 C1.99435294,56.5776 2.52643137,56.0557538 3.1827451,56.0557538 L34.1863529,56.0557538 C34.8426667,56.0557538 35.3747451,56.5776 35.3747451,57.2212923 L35.3747451,79.1508308 C35.3747451,79.7945231 34.8426667,80.3160615 34.1863529,80.3160615 L25.337098,80.3160615 L19.5532549,86.3886769 C19.3283137,86.6246769 19.0136471,86.7585231 18.684549,86.7585231 Z" id="Fill-2" fill="#000000"></path>
                <polygon id="Fill-4" fill="#FFFFFF" points="158.772486 90.0997846 158.772486 68.1702462 127.768878 68.1702462 127.768878 90.0997846 137.342525 90.0997846 143.270682 96.5419385 149.406839 90.0997846"></polygon>
                <g id="Group-8" transform="translate(126.431373, 66.769231)">
                    <mask id="mask-2" fill="white">
                        <use xlink:href="#path-1"></use>
                    </mask>
                    <g id="Clip-7"></g>
                    <path d="M2.52586667,22.1649846 L10.9114353,22.1649846 C11.247749,22.1649846 11.5680627,22.3046769 11.7936314,22.5496 L16.8543373,28.0489846 L22.1073569,22.5348308 C22.332298,22.2991385 22.6463373,22.1649846 22.975749,22.1649846 L31.1526902,22.1649846 L31.1526902,2.56652308 L2.52586667,2.56652308 L2.52586667,22.1649846 Z M16.8392784,30.9379077 L16.8292392,30.9379077 C16.4960627,30.9351385 16.1798275,30.7957538 15.9570824,30.5532923 L10.3831216,24.4960615 L1.33747451,24.4960615 C0.681160784,24.4960615 0.149082353,23.9742154 0.149082353,23.3305231 L0.149082353,1.40098462 C0.149082353,0.757292308 0.681160784,0.235446154 1.33747451,0.235446154 L32.3410824,0.235446154 C32.9973961,0.235446154 33.5294745,0.757292308 33.5294745,1.40098462 L33.5294745,23.3305231 C33.5294745,23.9742154 32.9973961,24.4960615 32.3410824,24.4960615 L23.4918275,24.4960615 L17.7076706,30.5680615 C17.4827294,30.8040615 17.1683765,30.9379077 16.8392784,30.9379077 Z" id="Fill-6" fill="#000000" mask="url(#mask-2)"></path>
                </g>
                <polygon id="Fill-9" fill="#FFFFFF" points="129.307733 95.4736 92.9215373 53.6505231 80.1811451 53.6505231 67.4407529 53.6505231 31.0542431 95.4736"></polygon>
                <path d="M33.6303373,94.3080308 L126.731827,94.3080308 L92.3735529,54.8160308 L67.9886118,54.8160308 L33.6303373,94.3080308 Z M129.308141,96.6391077 L31.0540235,96.6391077 C30.590651,96.6391077 30.1693176,96.3748 29.9751216,95.9618769 C29.7806118,95.5489538 29.8490039,95.0631077 30.1498667,94.7169538 L66.5363765,52.8938769 C66.7619451,52.6344923 67.0926118,52.4849538 67.4405333,52.4849538 L92.9216314,52.4849538 C93.2695529,52.4849538 93.5999059,52.6344923 93.8257882,52.8938769 L130.211984,94.7169538 C130.512847,95.0631077 130.581239,95.5489538 130.387043,95.9618769 C130.192847,96.3748 129.771514,96.6391077 129.308141,96.6391077 Z" id="Fill-11" fill="#000000"></path>
                <polygon id="Fill-13" fill="#FFFFFF" points="57.7813647 34.0574154 4.32693333 34.0574154 4.32693333 1.16572308 47.3252078 1.16572308 47.3252078 23.2829538"></polygon>
                <path d="M5.51545098,32.8918462 L55.0097255,32.8918462 L46.4641569,24.0866154 C46.2539608,23.8696923 46.1366275,23.582 46.1366275,23.2829231 L46.1366275,2.33123077 L5.51545098,2.33123077 L5.51545098,32.8918462 Z M57.7814902,35.2229231 L4.32705882,35.2229231 C3.6707451,35.2229231 3.13866667,34.7010769 3.13866667,34.0573846 L3.13866667,1.16569231 C3.13866667,0.522 3.6707451,0.000153846154 4.32705882,0.000153846154 L47.3253333,0.000153846154 C47.9813333,0.000153846154 48.5137255,0.522 48.5137255,1.16569231 L48.5137255,22.8167692 L58.6423529,33.254 C58.9698824,33.5915385 59.0611765,34.0881538 58.8738824,34.5167692 C58.6862745,34.9453846 58.2564706,35.2229231 57.7814902,35.2229231 Z" id="Fill-15" fill="#000000"></path>
                <path d="M18.684549,76.7575385 L25.5984314,69.6433846 C26.348549,68.8713846 26.7670588,67.8464615 26.7670588,66.7803077 C26.7670588,65.7578462 26.3818039,64.7713846 25.6859608,64.0101538 C24.3654902,62.5658462 22.1179608,62.4024615 20.5948235,63.64 L18.684549,65.1923077 L16.7742745,63.64 C15.251451,62.4024615 13.0036078,62.5658462 11.683451,64.0101538 C10.9872941,64.7713846 10.6023529,65.7578462 10.6023529,66.7803077 C10.6023529,67.8464615 11.0208627,68.8713846 11.7709804,69.6433846 L18.684549,76.7575385 Z" id="Fill-17" fill="#5249C6"></path>
                <path d="M14.4244392,63.9720923 C13.7405176,63.9720923 13.061302,64.2484 12.5681255,64.7880923 C12.0667922,65.3367077 11.7907137,66.0437846 11.7907137,66.7804 C11.7907137,67.5505538 12.0893804,68.2816308 12.6311843,68.8391692 L18.6845176,75.0684 L24.7381647,68.8391692 C25.2802824,68.2816308 25.5783216,67.5505538 25.5783216,66.7804 C25.5783216,66.0437846 25.3025569,65.3367077 24.8012235,64.7884 C23.9036549,63.8056308 22.3889882,63.6960923 21.3530667,64.5376308 L19.4431059,66.0902462 C19.0032627,66.4474769 18.3657725,66.4474769 17.9262431,66.0902462 L16.0159686,64.5376308 C15.5494588,64.1579385 14.9853804,63.9720923 14.4244392,63.9720923 M18.6845176,77.9231692 C18.3598118,77.9231692 18.0485961,77.7924 17.8242824,77.5616308 L10.9107137,70.4474769 C9.94569412,69.4542462 9.41392941,68.1524 9.41392941,66.7804 C9.41392941,65.4684 9.90616471,64.2084 10.7984,63.2320923 C12.551498,61.3136308 15.5099294,61.0988615 17.5325176,62.7425538 L18.6845176,63.6788615 L19.8365176,62.7425538 C21.8594196,61.0988615 24.8175373,61.3133231 26.570949,63.2324 C27.463498,64.2084 27.9551059,65.4684 27.9551059,66.7804 C27.9551059,68.1524 27.4236549,69.4542462 26.4586353,70.4474769 L19.5447529,77.5616308 C19.3204392,77.7924 19.0095373,77.9231692 18.6845176,77.9231692" id="Fill-19" fill="#000000"></path>
                <path d="M143.270651,87.7064615 L150.18422,80.5923077 C150.934337,79.8206154 151.352847,78.7953846 151.352847,77.7292308 C151.352847,76.7067692 150.967906,75.7203077 150.271749,74.9590769 C148.951592,73.5147692 146.703749,73.3513846 145.180925,74.5889231 L143.270651,76.1412308 L141.360376,74.5889231 C139.837553,73.3513846 137.58971,73.5147692 136.269239,74.9590769 C135.573396,75.7203077 135.188455,76.7067692 135.188455,77.7292308 C135.188455,78.7953846 135.606651,79.8206154 136.356769,80.5923077 L143.270651,87.7064615 Z" id="Fill-21" fill="#5620E4"></path>
                <path d="M139.010541,74.9212923 C138.32662,74.9212923 137.647404,75.1976 137.154227,75.7369846 C136.65258,76.2856 136.376816,76.9923692 136.376816,77.7289846 C136.376816,78.4994462 136.675169,79.2308308 137.216973,79.7880615 L143.27062,86.0172923 L149.323953,79.7880615 C149.866071,79.2308308 150.164424,78.4994462 150.164424,77.7289846 C150.164424,76.9923692 149.888345,76.2856 149.387325,75.7372923 C148.489443,74.7545231 146.97509,74.6452923 145.938855,75.4865231 L144.02858,77.0388308 C143.589051,77.3960615 142.952188,77.3960615 142.512345,77.0388308 L140.602071,75.4865231 C140.135247,75.1071385 139.571169,74.9212923 139.010541,74.9212923 M143.27062,88.8720615 C142.9456,88.8720615 142.634698,88.7416 142.410384,88.5108308 L135.496502,81.3963692 C134.531796,80.4031385 134.000031,79.1009846 134.000031,77.7289846 C134.000031,76.4172923 134.491953,75.1572923 135.384502,74.1809846 C137.1376,72.2625231 140.095404,72.0477538 142.118306,73.6914462 L143.27062,74.6277538 L144.42262,73.6914462 C146.445208,72.0477538 149.403325,72.2622154 151.157051,74.1812923 C152.0496,75.1572923 152.541208,76.4172923 152.541208,77.7289846 C152.541208,79.1009846 152.009757,80.4031385 151.044424,81.3963692 L144.130855,88.5108308 C143.906541,88.7416 143.595325,88.8720615 143.27062,88.8720615" id="Fill-23" fill="#000000"></path>
                <path d="M138.633412,111.578462 L137.552314,111.578462 C138.516078,110.633231 139.112157,109.327385 139.112157,107.884923 C139.112157,105.000308 136.832627,102.661846 133.891451,102.661846 C130.949961,102.661846 128.670431,105.000308 128.670431,107.884923 C128.670431,109.327385 129.266824,110.633231 130.230275,111.578462 L129.149176,111.578462 C125.660549,111.578462 122.832941,114.352 122.832941,117.773538 C122.832941,114.352 120.004706,111.578462 116.516392,111.578462 L115.435294,111.578462 C116.399059,110.633231 116.994824,109.327385 116.994824,107.884923 C116.994824,105.000308 114.715294,102.661846 111.774118,102.661846 C108.832941,102.661846 106.553098,105.000308 106.553098,107.884923 C106.553098,109.327385 107.14949,110.633231 108.113255,111.578462 L107.032157,111.578462 C103.543216,111.578462 100.715608,114.352 100.715608,117.773538 C100.715608,114.352 97.8876863,111.578462 94.3990588,111.578462 L93.3182745,111.578462 C94.2817255,110.633231 94.8778039,109.327385 94.8778039,107.884923 C94.8778039,105.000308 92.5982745,102.661846 89.657098,102.661846 C86.7159216,102.661846 84.4360784,105.000308 84.4360784,107.884923 C84.4360784,109.327385 85.0321569,110.633231 85.9959216,111.578462 L84.9145098,111.578462 C81.4261961,111.578462 78.5985882,114.352 78.5985882,117.773538 C78.5985882,114.352 75.7703529,111.578462 72.2820392,111.578462 L71.2009412,111.578462 C72.1647059,110.633231 72.7604706,109.327385 72.7604706,107.884923 C72.7604706,105.000308 70.4812549,102.661846 67.5400784,102.661846 C64.5985882,102.661846 62.3190588,105.000308 62.3190588,107.884923 C62.3190588,109.327385 62.9148235,110.633231 63.878902,111.578462 L62.7974902,111.578462 C59.3091765,111.578462 56.4812549,114.352 56.4812549,117.773538 C56.4812549,114.352 53.6533333,111.578462 50.1650196,111.578462 L49.0839216,111.578462 C50.0473725,110.633231 50.643451,109.327385 50.643451,107.884923 C50.643451,105.000308 48.3642353,102.661846 45.4227451,102.661846 C42.4815686,102.661846 40.2017255,105.000308 40.2017255,107.884923 C40.2017255,109.327385 40.7978039,110.633231 41.7615686,111.578462 L40.6804706,111.578462 C37.1918431,111.578462 34.3642353,114.352 34.3642353,117.773538 C34.3642353,114.352 31.5363137,111.578462 28.0476863,111.578462 L26.9665882,111.578462 C27.9303529,110.633231 28.5264314,109.327385 28.5264314,107.884923 C28.5264314,105.000308 26.246902,102.661846 23.3057255,102.661846 C20.3642353,102.661846 18.0847059,105.000308 18.0847059,107.884923 C18.0847059,109.327385 18.6804706,110.633231 19.644549,111.578462 L18.5631373,111.578462 C15.0748235,111.578462 12.246902,114.352 12.246902,117.773538 L12.246902,130.564923 L17.0092549,130.564923 L17.0092549,143.824308 L23.2009412,143.824308 L23.4105098,143.824308 L29.6015686,143.824308 L29.6015686,130.564923 L34.3642353,130.564923 L39.1262745,130.564923 L39.1262745,143.824308 L45.3179608,143.824308 L45.5275294,143.824308 L51.718902,143.824308 L51.718902,130.564923 L56.4812549,130.564923 L61.2432941,130.564923 L61.2432941,143.824308 L67.4352941,143.824308 L67.644549,143.824308 L73.8362353,143.824308 L73.8362353,130.564923 L78.5985882,130.564923 L83.3606275,130.564923 L83.3606275,143.824308 L89.5523137,143.824308 L89.7618824,143.824308 L95.9532549,143.824308 L95.9532549,130.564923 L100.715608,130.564923 L105.477647,130.564923 L105.477647,143.824308 L111.669333,143.824308 L111.878902,143.824308 L118.070275,143.824308 L118.070275,130.564923 L122.832941,130.564923 L127.59498,130.564923 L127.59498,143.824308 L133.786667,143.824308 L133.996235,143.824308 L140.187608,143.824308 L140.187608,130.564923 L144.949961,130.564923 L144.949961,117.773538 C144.949961,114.352 142.122039,111.578462 138.633412,111.578462" id="Fill-25" fill="#E5E5E5"></path>
                <path d="M128.783529,142.658677 L138.999373,142.658677 L138.999373,130.564831 C138.999373,129.921446 139.531451,129.399292 140.187765,129.399292 L143.761412,129.399292 L143.761412,117.773446 C143.761412,115.000215 141.460863,112.743908 138.633255,112.743908 L137.552157,112.743908 C137.071529,112.743908 136.638275,112.459908 136.454431,112.024215 C136.270275,111.588831 136.371922,111.087908 136.712,110.754677 C137.49349,109.987908 137.923608,108.968831 137.923608,107.884831 C137.923608,105.609754 136.152314,103.8276 133.891294,103.8276 C131.630275,103.8276 129.85898,105.609754 129.85898,107.884831 C129.85898,108.968831 130.289098,109.987908 131.070588,110.754677 C131.410667,111.087908 131.512,111.588831 131.328157,112.024215 C131.144,112.459908 130.711059,112.743908 130.230118,112.743908 L129.149333,112.743908 C126.321412,112.743908 124.020863,115.000215 124.020863,117.773446 C124.020863,118.417138 123.488784,118.938985 122.832471,118.938985 C122.176157,118.938985 121.644078,118.417138 121.644078,117.773446 C121.644078,115.000215 119.343843,112.743908 116.516235,112.743908 L115.435137,112.743908 C114.95451,112.743908 114.521255,112.459908 114.337412,112.024523 C114.153255,111.588831 114.254902,111.088215 114.594667,110.754677 C115.376471,109.9876 115.806588,108.968831 115.806588,107.884831 C115.806588,105.609754 114.035294,103.8276 111.774275,103.8276 C109.512941,103.8276 107.741647,105.609754 107.741647,107.884831 C107.741647,108.968831 108.172078,109.9876 108.953569,110.754677 C109.293333,111.088215 109.394667,111.588831 109.210824,112.024523 C109.02698,112.459908 108.594039,112.743908 108.112784,112.743908 L107.032,112.743908 C104.204392,112.743908 101.903843,115.000215 101.903843,117.773446 C101.903843,118.417138 101.372078,118.938985 100.715451,118.938985 C100.059137,118.938985 99.5270588,118.417138 99.5270588,117.773446 C99.5270588,115.000215 97.2268235,112.743908 94.398902,112.743908 L93.3178039,112.743908 C92.8371765,112.743908 92.4039216,112.459908 92.2200784,112.024215 C92.0359216,111.588831 92.1375686,111.087908 92.4776471,110.754677 C93.2591373,109.987908 93.6895686,108.968831 93.6895686,107.884831 C93.6895686,105.609754 91.9179608,103.8276 89.6569412,103.8276 C87.3959216,103.8276 85.6246275,105.609754 85.6246275,107.884831 C85.6246275,108.968831 86.0550588,109.987908 86.8362353,110.754677 C87.1763137,111.087908 87.2776471,111.588831 87.0938039,112.024215 C86.9099608,112.459908 86.4767059,112.743908 85.9960784,112.743908 L84.9146667,112.743908 C82.0867451,112.743908 79.7868235,115.000215 79.7868235,117.773446 C79.7868235,118.417138 79.2547451,118.938985 78.5984314,118.938985 C77.9418039,118.938985 77.4100392,118.417138 77.4100392,117.773446 C77.4100392,115.000215 75.1098039,112.743908 72.2818824,112.743908 L71.2007843,112.743908 C70.7198431,112.743908 70.2865882,112.459908 70.1027451,112.024215 C69.918902,111.588831 70.0202353,111.087908 70.3603137,110.754677 C71.1418039,109.9876 71.572549,108.968831 71.572549,107.884831 C71.572549,105.609754 69.8009412,103.8276 67.5399216,103.8276 C65.2785882,103.8276 63.5076078,105.609754 63.5076078,107.884831 C63.5076078,108.968831 63.9377255,109.9876 64.7192157,110.754677 C65.0589804,111.088215 65.1606275,111.588831 64.9764706,112.024523 C64.7926275,112.459908 64.3593725,112.743908 63.8787451,112.743908 L62.7976471,112.743908 C59.9703529,112.743908 57.6698039,115.000215 57.6698039,117.773446 C57.6698039,118.417138 57.1377255,118.938985 56.4814118,118.938985 C55.825098,118.938985 55.2930196,118.417138 55.2930196,117.773446 C55.2930196,115.000215 52.9924706,112.743908 50.164549,112.743908 L49.0837647,112.743908 C48.6028235,112.743908 48.1698824,112.459908 47.9857255,112.024215 C47.8018824,111.588831 47.9032157,111.087908 48.2432941,110.754677 C49.0247843,109.987908 49.4552157,108.968831 49.4552157,107.884831 C49.4552157,105.609754 47.6836078,103.8276 45.4225882,103.8276 C43.1612549,103.8276 41.3902745,105.609754 41.3902745,107.884831 C41.3902745,108.968831 41.8203922,109.9876 42.6018824,110.754677 C42.9416471,111.088215 43.0432941,111.588831 42.8591373,112.024523 C42.6752941,112.459908 42.2420392,112.743908 41.7614118,112.743908 L40.6803137,112.743908 C37.8527059,112.743908 35.5524706,115.000215 35.5524706,117.773446 C35.5524706,118.417138 35.0203922,118.938985 34.3640784,118.938985 C33.7077647,118.938985 33.1756863,118.417138 33.1756863,117.773446 C33.1756863,115.000215 30.8751373,112.743908 28.0475294,112.743908 L26.9664314,112.743908 C26.4858039,112.743908 26.052549,112.459908 25.8683922,112.024215 C25.684549,111.588831 25.7858824,111.087908 26.1259608,110.754677 C26.9077647,109.9876 27.3381961,108.968831 27.3381961,107.884831 C27.3381961,105.609754 25.5665882,103.8276 23.3052549,103.8276 C21.0442353,103.8276 19.2732549,105.609754 19.2732549,107.884831 C19.2732549,108.968831 19.7033725,109.987908 20.4848627,110.754677 C20.8246275,111.087908 20.9262745,111.588831 20.7424314,112.024215 C20.5582745,112.459908 20.1250196,112.743908 19.6443922,112.743908 L18.5632941,112.743908 C15.7356863,112.743908 13.4351373,115.000215 13.4351373,117.773446 L13.4351373,129.399292 L17.009098,129.399292 C17.6654118,129.399292 18.1974902,129.921446 18.1974902,130.564831 L18.1974902,142.658677 L28.4133333,142.658677 L28.4133333,130.564831 C28.4133333,129.921446 28.9454118,129.399292 29.6017255,129.399292 L39.1264314,129.399292 C39.7827451,129.399292 40.3148235,129.921446 40.3148235,130.564831 L40.3148235,142.658677 L50.5303529,142.658677 L50.5303529,130.564831 C50.5303529,129.921446 51.0627451,129.399292 51.7187451,129.399292 L61.243451,129.399292 C61.8997647,129.399292 62.4318431,129.921446 62.4318431,130.564831 L62.4318431,142.658677 L72.6473725,142.658677 L72.6473725,130.564831 C72.6473725,129.921446 73.1797647,129.399292 73.8357647,129.399292 L83.3607843,129.399292 C84.017098,129.399292 84.5491765,129.921446 84.5491765,130.564831 L84.5491765,142.658677 L94.7647059,142.658677 L94.7647059,130.564831 C94.7647059,129.921446 95.297098,129.399292 95.9534118,129.399292 L105.478118,129.399292 C106.134431,129.399292 106.66651,129.921446 106.66651,130.564831 L106.66651,142.658677 L116.881725,142.658677 L116.881725,130.564831 C116.881725,129.921446 117.414118,129.399292 118.070431,129.399292 L127.595137,129.399292 C128.251765,129.399292 128.783529,129.921446 128.783529,130.564831 L128.783529,142.658677 Z M140.187765,144.989754 L127.595137,144.989754 C126.938824,144.989754 126.407059,144.467908 126.407059,143.824215 L126.407059,131.730369 L119.258824,131.730369 L119.258824,143.824215 C119.258824,144.467908 118.726431,144.989754 118.070431,144.989754 L105.478118,144.989754 C104.821804,144.989754 104.289725,144.467908 104.289725,143.824215 L104.289725,131.730369 L97.1418039,131.730369 L97.1418039,143.824215 C97.1418039,144.467908 96.6094118,144.989754 95.9534118,144.989754 L83.3607843,144.989754 C82.7044706,144.989754 82.1723922,144.467908 82.1723922,143.824215 L82.1723922,131.730369 L75.0244706,131.730369 L75.0244706,143.824215 C75.0244706,144.467908 74.4920784,144.989754 73.8357647,144.989754 L61.243451,144.989754 C60.5871373,144.989754 60.0550588,144.467908 60.0550588,143.824215 L60.0550588,131.730369 L52.907451,131.730369 L52.907451,143.824215 C52.907451,144.467908 52.3753725,144.989754 51.7187451,144.989754 L39.1264314,144.989754 C38.4701176,144.989754 37.9380392,144.467908 37.9380392,143.824215 L37.9380392,131.730369 L30.7901176,131.730369 L30.7901176,143.824215 C30.7901176,144.467908 30.2580392,144.989754 29.6017255,144.989754 L17.009098,144.989754 C16.3527843,144.989754 15.8207059,144.467908 15.8207059,143.824215 L15.8207059,131.730369 L12.2467451,131.730369 C11.5904314,131.730369 11.0583529,131.208523 11.0583529,130.564831 L11.0583529,117.773446 C11.0583529,114.082369 13.8426667,111.017446 17.4592941,110.492523 C17.0903529,109.682677 16.8961569,108.798369 16.8961569,107.884831 C16.8961569,104.302677 19.7115294,101.496523 23.3052549,101.496523 C26.8992941,101.496523 29.7149804,104.302677 29.7149804,107.884831 C29.7149804,108.798369 29.5207843,109.682677 29.1515294,110.492523 C31.3363137,110.809138 33.217098,112.053446 34.3640784,113.802369 C35.5107451,112.053446 37.3918431,110.809138 39.5766275,110.492523 C39.2073725,109.682677 39.0131765,108.798369 39.0131765,107.884831 C39.0131765,104.302677 41.8288627,101.496523 45.4225882,101.496523 C49.0166275,101.496523 51.832,104.302677 51.832,107.884831 C51.832,108.798369 51.6378039,109.682677 51.2688627,110.492523 C53.4536471,110.809138 55.3341176,112.053446 56.4814118,113.802369 C57.6280784,112.053446 59.5091765,110.809138 61.6939608,110.492523 C61.3247059,109.682677 61.1305098,108.798369 61.1305098,107.884831 C61.1305098,104.302677 63.9458824,101.496523 67.5399216,101.496523 C71.1339608,101.496523 73.9493333,104.302677 73.9493333,107.884831 C73.9493333,108.798369 73.7551373,109.682677 73.3858824,110.492523 C75.5706667,110.809138 77.451451,112.053446 78.5984314,113.802369 C79.745098,112.053446 81.6268235,110.809138 83.8109804,110.492523 C83.4420392,109.682677 83.2475294,108.798369 83.2475294,107.884831 C83.2475294,104.302677 86.062902,101.496523 89.6569412,101.496523 C93.2509804,101.496523 96.0660392,104.302677 96.0660392,107.884831 C96.0660392,108.798369 95.8721569,109.682677 95.502902,110.492523 C97.6876863,110.809138 99.5684706,112.053446 100.715451,113.802369 C101.862431,112.053446 103.743529,110.809138 105.928,110.492523 C105.559059,109.682677 105.364863,108.798369 105.364863,107.884831 C105.364863,104.302677 108.179922,101.496523 111.774275,101.496523 C115.368,101.496523 118.183373,104.302677 118.183373,107.884831 C118.183373,108.798369 117.98949,109.682677 117.619922,110.492523 C119.804706,110.809138 121.685804,112.053446 122.832471,113.802369 C123.979765,112.053446 125.860549,110.809138 128.04502,110.492523 C127.676392,109.682677 127.482196,108.798369 127.482196,107.884831 C127.482196,104.302677 130.297255,101.496523 133.891294,101.496523 C137.48502,101.496523 140.300392,104.302677 140.300392,107.884831 C140.300392,108.798369 140.10651,109.682677 139.737255,110.492523 C143.353882,111.017446 146.138196,114.082369 146.138196,117.773446 L146.138196,130.564831 C146.138196,131.208523 145.606118,131.730369 144.949804,131.730369 L141.376157,131.730369 L141.376157,143.824215 C141.376157,144.467908 140.843765,144.989754 140.187765,144.989754 Z" id="Fill-27" fill="#000000"></path>
                <path d="M18.5430275,145.575138 L23.3056941,145.575138 L23.3056941,132.783446 C23.3056941,129.362215 20.4774588,126.588677 16.9891451,126.588677 L15.9080471,126.588677 C16.8718118,125.643446 17.4675765,124.3376 17.4675765,122.895138 C17.4675765,120.010523 15.1883608,117.671754 12.2468706,117.671754 C9.30569412,117.671754 7.02616471,120.010523 7.02616471,122.895138 C7.02616471,124.3376 7.62192941,125.643446 8.58600784,126.588677 L7.50459608,126.588677 C4.01628235,126.588677 1.18836078,129.362215 1.18836078,132.783446 L1.18836078,145.575138 L5.95071373,145.575138" id="Fill-29" fill="#FFFFFF"></path>
                <path d="M23.3052863,146.740708 L18.5429333,146.740708 L18.5429333,144.409631 L22.1168941,144.409631 L22.1168941,132.783785 C22.1168941,130.010246 19.8166588,127.753938 16.989051,127.753938 L15.9079529,127.753938 C15.4273255,127.753938 14.9940706,127.469938 14.8102275,127.034246 C14.6260706,126.598862 14.7277176,126.097631 15.0677961,125.7644 C15.8489725,124.997938 16.2794039,123.978862 16.2794039,122.895169 C16.2794039,120.619785 14.5081098,118.837631 12.2467765,118.837631 C9.98575686,118.837631 8.21414902,120.619785 8.21414902,122.895169 C8.21414902,123.978862 8.64489412,124.997938 9.42607059,125.7644 C9.76614902,126.097631 9.86779608,126.598862 9.68363922,127.034246 C9.49979608,127.469938 9.06654118,127.753938 8.58591373,127.753938 L7.50481569,127.753938 C4.67720784,127.753938 2.37697255,130.010246 2.37697255,132.783785 L2.37697255,144.409631 L5.95093333,144.409631 L5.95093333,146.740708 L1.18858039,146.740708 C0.531952941,146.740708 0.000188235294,146.218862 0.000188235294,145.575169 L0.000188235294,132.783785 C0.000188235294,129.092708 2.78387451,126.027477 6.40081569,125.502554 C6.03156078,124.692708 5.83767843,123.808708 5.83767843,122.895169 C5.83767843,119.312708 8.65273725,116.506554 12.2467765,116.506554 C15.8408157,116.506554 18.6561882,119.312708 18.6561882,122.895169 C18.6561882,123.808708 18.4619922,124.692708 18.093051,125.502554 C21.7099922,126.027477 24.4936784,129.092708 24.4936784,132.783785 L24.4936784,145.575169 C24.4936784,146.218862 23.9619137,146.740708 23.3052863,146.740708" id="Fill-31" fill="#000000"></path>
                <polyline id="Fill-33" fill="#FFFFFF" points="18.5430275 132.136462 18.5430275 158.834615 12.1420863 158.834615 12.3516549 144.993385 12.3516549 158.834615 5.95071373 158.834615 5.95071373 132.136462"></polyline>
                <g id="Group-37" transform="translate(4.705882, 132.000000)">
                    <mask id="mask-4" fill="white">
                        <use xlink:href="#path-3"></use>
                    </mask>
                    <g id="Clip-36"></g>
                    <path d="M13.8371451,28.0000308 L1.24483137,28.0000308 C0.588831373,28.0000308 0.0564392157,27.4781846 0.0564392157,26.8344923 L0.0564392157,0.136030769 L2.43322353,0.136030769 L2.43322353,25.6689538 L6.26506667,25.6689538 L6.45769412,12.9760308 C6.46741961,12.3391077 6.99667451,11.8277231 7.64577255,11.8277231 L7.65455686,11.8277231 C8.30773333,11.8326462 8.83447843,12.3529538 8.83447843,12.9935692 L8.83447843,25.6689538 L12.6487529,25.6689538 L12.6487529,0.136030769 L15.0255373,0.136030769 L15.0255373,26.8344923 C15.0255373,27.4781846 14.4934588,28.0000308 13.8371451,28.0000308" id="Fill-35" fill="#000000" mask="url(#mask-4)"></path>
                </g>
                <path d="M40.6603608,145.575138 L45.4227137,145.575138 L45.4227137,132.783446 C45.4227137,129.362215 42.5947922,126.588677 39.1061647,126.588677 L38.0250667,126.588677 C38.9888314,125.643446 39.5849098,124.3376 39.5849098,122.895138 C39.5849098,120.010523 37.3053804,117.671754 34.3642039,117.671754 C31.4230275,117.671754 29.1431843,120.010523 29.1431843,122.895138 C29.1431843,124.3376 29.7392627,125.643446 30.7030275,126.588677 L29.6216157,126.588677 C26.133302,126.588677 23.3056941,129.362215 23.3056941,132.783446 L23.3056941,145.575138 L28.0677333,145.575138" id="Fill-38" fill="#FFFFFF"></path>
                <path d="M45.4226196,146.740708 L40.6602667,146.740708 L40.6602667,144.409631 L44.2342275,144.409631 L44.2342275,132.783785 C44.2342275,130.010246 41.9336784,127.753938 39.1063843,127.753938 L38.0249725,127.753938 C37.5443451,127.753938 37.1110902,127.469938 36.9272471,127.034246 C36.7430902,126.598554 36.8447373,126.097631 37.1848157,125.764092 C37.9659922,124.997938 38.3964235,123.979169 38.3964235,122.895169 C38.3964235,120.619785 36.6251294,118.837631 34.3641098,118.837631 C32.1030902,118.837631 30.3314824,120.619785 30.3314824,122.895169 C30.3314824,123.979169 30.7622275,124.997938 31.5434039,125.764092 C31.8834824,126.097631 31.9848157,126.598554 31.8009725,127.034246 C31.6171294,127.469938 31.1838745,127.753938 30.7029333,127.753938 L29.6218353,127.753938 C26.7942275,127.753938 24.4936784,130.010246 24.4936784,132.783785 L24.4936784,144.409631 L28.0679529,144.409631 L28.0679529,146.740708 L23.3052863,146.740708 C22.6489725,146.740708 22.1168941,146.218862 22.1168941,145.575169 L22.1168941,132.783785 C22.1168941,129.092708 24.9012078,126.027477 28.5178353,125.502554 C28.1488941,124.692708 27.954698,123.808708 27.954698,122.895169 C27.954698,119.312708 30.7700706,116.506554 34.3641098,116.506554 C37.958149,116.506554 40.7732078,119.312708 40.7732078,122.895169 C40.7732078,123.808708 40.5793255,124.692708 40.2100706,125.502554 C43.8270118,126.027477 46.6110118,129.092708 46.6110118,132.783785 L46.6110118,145.575169 C46.6110118,146.218862 46.0789333,146.740708 45.4226196,146.740708" id="Fill-40" fill="#000000"></path>
                <polyline id="Fill-42" fill="#FFFFFF" points="40.6603608 132.136462 40.6603608 158.834615 34.2594196 158.834615 34.4689882 144.993385 34.4689882 158.834615 28.0677333 158.834615 28.0677333 132.136462"></polyline>
                <g id="Group-46" transform="translate(26.666667, 132.000000)">
                    <mask id="mask-6" fill="white">
                        <use xlink:href="#path-5"></use>
                    </mask>
                    <g id="Clip-45"></g>
                    <path d="M13.9936941,28.0000308 L1.40106667,28.0000308 C0.745066667,28.0000308 0.21267451,27.4781846 0.21267451,26.8344923 L0.21267451,0.136030769 L2.58945882,0.136030769 L2.58945882,25.6689538 L6.42161569,25.6689538 L6.61392941,12.9760308 C6.6236549,12.3391077 7.1529098,11.8277231 7.80200784,11.8277231 L7.81079216,11.8277231 C8.46396863,11.8326462 8.99071373,12.3529538 8.99071373,12.9935692 L8.99071373,25.6689538 L12.805302,25.6689538 L12.805302,0.136030769 L15.1820863,0.136030769 L15.1820863,26.8344923 C15.1820863,27.4781846 14.6500078,28.0000308 13.9936941,28.0000308" id="Fill-44" fill="#000000" mask="url(#mask-6)"></path>
                </g>
                <path d="M62.7773804,145.575138 L67.5397333,145.575138 L67.5397333,132.783446 C67.5397333,129.362215 64.7118118,126.588677 61.223498,126.588677 L60.1424,126.588677 C61.1061647,125.643446 61.7019294,124.3376 61.7019294,122.895138 C61.7019294,120.010523 59.4227137,117.671754 56.4812235,117.671754 C53.5400471,117.671754 51.2602039,120.010523 51.2602039,122.895138 C51.2602039,124.3376 51.8562824,125.643446 52.8203608,126.588677 L51.738949,126.588677 C48.2503216,126.588677 45.4227137,129.362215 45.4227137,132.783446 L45.4227137,145.575138 L50.1847529,145.575138" id="Fill-47" fill="#FFFFFF"></path>
                <path d="M67.5396392,146.740708 L62.7772863,146.740708 L62.7772863,144.409631 L66.3512471,144.409631 L66.3512471,132.783785 C66.3512471,130.010246 64.050698,127.753938 61.2234039,127.753938 L60.1423059,127.753938 C59.6616784,127.753938 59.2284235,127.469938 59.0445804,127.034246 C58.8604235,126.598862 58.9620706,126.097631 59.302149,125.7644 C60.0833255,124.997938 60.5134431,123.978862 60.5134431,122.895169 C60.5134431,120.619785 58.7424627,118.837631 56.4814431,118.837631 C54.2201098,118.837631 52.448502,120.619785 52.448502,122.895169 C52.448502,123.978862 52.8792471,124.997938 53.6604235,125.7644 C54.000502,126.097631 54.1018353,126.598862 53.9179922,127.034246 C53.7338353,127.469938 53.3008941,127.753938 52.8199529,127.753938 L51.7391686,127.753938 C48.9115608,127.753938 46.6110118,130.010246 46.6110118,132.783785 L46.6110118,144.409631 L50.1852863,144.409631 L50.1852863,146.740708 L45.4226196,146.740708 C44.7663059,146.740708 44.2342275,146.218862 44.2342275,145.575169 L44.2342275,132.783785 C44.2342275,129.092708 47.0182275,126.027477 50.6348549,125.502554 C50.2659137,124.692708 50.0717176,123.808708 50.0717176,122.895169 C50.0717176,119.312708 52.8874039,116.506554 56.4814431,116.506554 C60.0751686,116.506554 62.8905412,119.312708 62.8905412,122.895169 C62.8905412,123.808708 62.6963451,124.692708 62.3274039,125.502554 C65.9443451,126.027477 68.7280314,129.092708 68.7280314,132.783785 L68.7280314,145.575169 C68.7280314,146.218862 68.1959529,146.740708 67.5396392,146.740708" id="Fill-49" fill="#000000"></path>
                <polyline id="Fill-51" fill="#FFFFFF" points="62.7773804 132.136462 62.7773804 158.834615 56.3764392 158.834615 56.5860078 144.993385 56.5860078 158.834615 50.1847529 158.834615 50.1847529 132.136462"></polyline>
                <g id="Group-55" transform="translate(48.941176, 132.000000)">
                    <mask id="mask-8" fill="white">
                        <use xlink:href="#path-7"></use>
                    </mask>
                    <g id="Clip-54"></g>
                    <path d="M13.8362039,28.0000308 L1.2438902,28.0000308 C0.587576471,28.0000308 0.0554980392,27.4781846 0.0554980392,26.8344923 L0.0554980392,0.136030769 L2.43228235,0.136030769 L2.43228235,25.6689538 L6.26412549,25.6689538 L6.45675294,12.9760308 C6.46647843,12.3391077 6.99573333,11.8277231 7.64483137,11.8277231 L7.65361569,11.8277231 C8.30679216,11.8326462 8.83353725,12.3529538 8.83353725,12.9935692 L8.83353725,25.6689538 L12.6478118,25.6689538 L12.6478118,0.136030769 L15.0245961,0.136030769 L15.0245961,26.8344923 C15.0245961,27.4781846 14.4925176,28.0000308 13.8362039,28.0000308" id="Fill-53" fill="#000000" mask="url(#mask-8)"></path>
                </g>
                <path d="M84.8947451,145.575138 L89.657098,145.575138 L89.657098,132.783446 C89.657098,129.362215 86.8288627,126.588677 83.340549,126.588677 L82.259451,126.588677 C83.2232157,125.643446 83.8192941,124.3376 83.8192941,122.895138 C83.8192941,120.010523 81.5397647,117.671754 78.5985882,117.671754 C75.657098,117.671754 73.3775686,120.010523 73.3775686,122.895138 C73.3775686,124.3376 73.9733333,125.643446 74.9374118,126.588677 L73.856,126.588677 C70.3676863,126.588677 67.5397647,129.362215 67.5397647,132.783446 L67.5397647,145.575138 L72.3021176,145.575138" id="Fill-56" fill="#FFFFFF"></path>
                <path d="M89.6569725,146.740708 L84.8946196,146.740708 L84.8946196,144.409631 L88.4685804,144.409631 L88.4685804,132.783785 C88.4685804,130.010246 86.1680314,127.753938 83.3404235,127.753938 L82.2593255,127.753938 C81.778698,127.753938 81.3454431,127.469938 81.1612863,127.034246 C80.9774431,126.598554 81.0790902,126.097631 81.4188549,125.764092 C82.2006588,124.997938 82.6307765,123.978862 82.6307765,122.895169 C82.6307765,120.619785 80.8597961,118.837631 78.5984627,118.837631 C76.3371294,118.837631 74.5658353,120.619785 74.5658353,122.895169 C74.5658353,123.979169 74.9962667,124.997938 75.7777569,125.764092 C76.1178353,126.097631 76.2191686,126.598554 76.0353255,127.034246 C75.8511686,127.469938 75.4179137,127.753938 74.9372863,127.753938 L73.856502,127.753938 C71.0285804,127.753938 68.7280314,130.010246 68.7280314,132.783785 L68.7280314,144.409631 L72.3019922,144.409631 L72.3019922,146.740708 L67.5396392,146.740708 C66.8833255,146.740708 66.3512471,146.218862 66.3512471,145.575169 L66.3512471,132.783785 C66.3512471,129.093015 69.1358745,126.027785 72.7521882,125.502554 C72.3832471,124.692708 72.189051,123.808708 72.189051,122.895169 C72.189051,119.312708 75.0044235,116.506554 78.5984627,116.506554 C82.1921882,116.506554 85.0078745,119.312708 85.0078745,122.895169 C85.0078745,123.808708 84.8136784,124.692708 84.4447373,125.502554 C88.061051,126.027477 90.8453647,129.092708 90.8453647,132.783785 L90.8453647,145.575169 C90.8453647,146.218862 90.3132863,146.740708 89.6569725,146.740708" id="Fill-58" fill="#000000"></path>
                <polyline id="Fill-60" fill="#FFFFFF" points="84.8947451 132.136462 84.8947451 158.834615 78.4938039 158.834615 78.7033725 144.993385 78.7033725 158.834615 72.3021176 158.834615 72.3021176 132.136462"></polyline>
                <g id="Group-64" transform="translate(70.901961, 132.000000)">
                    <mask id="mask-10" fill="white">
                        <use xlink:href="#path-9"></use>
                    </mask>
                    <g id="Clip-63"></g>
                    <path d="M13.9927843,28.0000308 L1.39984314,28.0000308 C0.743843137,28.0000308 0.21145098,27.4781846 0.21145098,26.8344923 L0.21145098,0.136030769 L2.58823529,0.136030769 L2.58823529,25.6689538 L6.42070588,25.6689538 L6.61270588,12.9760308 C6.6227451,12.3391077 7.152,11.8277231 7.80078431,11.8277231 L7.8067451,11.8277231 C8.46305882,11.8326462 8.9894902,12.3529538 8.9894902,12.9935692 L8.9894902,25.6689538 L12.8043922,25.6689538 L12.8043922,0.136030769 L15.1811765,0.136030769 L15.1811765,26.8344923 C15.1811765,27.4781846 14.649098,28.0000308 13.9927843,28.0000308" id="Fill-62" fill="#000000" mask="url(#mask-10)"></path>
                </g>
                <path d="M107.011765,145.575138 L111.774118,145.575138 L111.774118,132.783446 C111.774118,129.362215 108.946196,126.588677 105.457882,126.588677 L104.376784,126.588677 C105.340235,125.643446 105.936314,124.3376 105.936314,122.895138 C105.936314,120.010523 103.656784,117.671754 100.715608,117.671754 C97.7744314,117.671754 95.4945882,120.010523 95.4945882,122.895138 C95.4945882,124.3376 96.0906667,125.643446 97.0547451,126.588677 L95.9733333,126.588677 C92.4847059,126.588677 89.657098,129.362215 89.657098,132.783446 L89.657098,145.575138 L94.4191373,145.575138" id="Fill-65" fill="#FFFFFF"></path>
                <path d="M111.774024,146.740708 L107.011671,146.740708 L107.011671,144.409631 L110.585631,144.409631 L110.585631,132.783785 C110.585631,130.010246 108.285082,127.753938 105.457475,127.753938 L104.37669,127.753938 C103.896063,127.753938 103.462808,127.469938 103.278651,127.034246 C103.094808,126.598554 103.196141,126.097631 103.53622,125.764092 C104.31771,124.997938 104.747827,123.979169 104.747827,122.895169 C104.747827,120.619785 102.976533,118.837631 100.715514,118.837631 C98.4541804,118.837631 96.6828863,120.619785 96.6828863,122.895169 C96.6828863,123.978862 97.1133176,124.997938 97.8951216,125.764092 C98.2348863,126.097631 98.3365333,126.598554 98.1523765,127.034246 C97.9685333,127.469938 97.5352784,127.753938 97.054651,127.753938 L95.9732392,127.753938 C93.1459451,127.753938 90.8453961,130.010246 90.8453961,132.783785 L90.8453961,144.409631 L94.4193569,144.409631 L94.4193569,146.740708 L89.6570039,146.740708 C89.0006902,146.740708 88.4686118,146.218862 88.4686118,145.575169 L88.4686118,132.783785 C88.4686118,129.092708 91.2529255,126.027477 94.8692392,125.502554 C94.4999843,124.692708 94.306102,123.808708 94.306102,122.895169 C94.306102,119.312708 97.1217882,116.506554 100.715514,116.506554 C104.309553,116.506554 107.124925,119.312708 107.124925,122.895169 C107.124925,123.808708 106.930729,124.692708 106.561788,125.502554 C110.178102,126.027785 112.962416,129.093015 112.962416,132.783785 L112.962416,145.575169 C112.962416,146.218862 112.430337,146.740708 111.774024,146.740708" id="Fill-67" fill="#000000"></path>
                <polyline id="Fill-69" fill="#FFFFFF" points="107.011765 132.136462 107.011765 158.834615 100.610824 158.834615 100.820392 144.993385 100.820392 158.834615 94.4191373 158.834615 94.4191373 132.136462"></polyline>
                <g id="Group-73" transform="translate(93.176471, 132.000000)">
                    <mask id="mask-12" fill="white">
                        <use xlink:href="#path-11"></use>
                    </mask>
                    <g id="Clip-72"></g>
                    <path d="M13.8352941,28.0000308 L1.24266667,28.0000308 C0.586666667,28.0000308 0.0542745098,27.4781846 0.0542745098,26.8344923 L0.0542745098,0.136030769 L2.43105882,0.136030769 L2.43105882,25.6689538 L6.26321569,25.6689538 L6.45552941,12.9760308 C6.4652549,12.3391077 6.99482353,11.8277231 7.64360784,11.8277231 L7.65270588,11.8277231 C8.30556863,11.8326462 8.83231373,12.3529538 8.83231373,12.9935692 L8.83231373,25.6689538 L12.646902,25.6689538 L12.646902,0.136030769 L15.0236863,0.136030769 L15.0236863,26.8344923 C15.0236863,27.4781846 14.4916078,28.0000308 13.8352941,28.0000308" id="Fill-71" fill="#000000" mask="url(#mask-12)"></path>
                </g>
                <path d="M129.128816,145.575138 L133.891482,145.575138 L133.891482,132.783446 C133.891482,129.362215 131.063247,126.588677 127.574933,126.588677 L126.493835,126.588677 C127.4576,125.643446 128.053365,124.3376 128.053365,122.895138 C128.053365,120.010523 125.774149,117.671754 122.832973,117.671754 C119.891482,117.671754 117.611953,120.010523 117.611953,122.895138 C117.611953,124.3376 118.207718,125.643446 119.171796,126.588677 L118.090384,126.588677 C114.602071,126.588677 111.774149,129.362215 111.774149,132.783446 L111.774149,145.575138 L116.536502,145.575138" id="Fill-74" fill="#FFFFFF"></path>
                <path d="M133.891357,146.740708 L129.12869,146.740708 L129.12869,144.409631 L132.702965,144.409631 L132.702965,132.783785 C132.702965,130.010246 130.402416,127.753938 127.574808,127.753938 L126.49371,127.753938 C126.012769,127.753938 125.579827,127.469938 125.395671,127.034246 C125.211827,126.598554 125.313161,126.097631 125.653239,125.764092 C126.434729,124.997938 126.865161,123.978862 126.865161,122.895169 C126.865161,120.619785 125.093867,118.837631 122.832533,118.837631 C120.571514,118.837631 118.80022,120.619785 118.80022,122.895169 C118.80022,123.979169 119.230651,124.997938 120.011827,125.764092 C120.351906,126.097631 120.453553,126.598554 120.269396,127.034246 C120.085553,127.469938 119.652298,127.753938 119.171671,127.753938 L118.090573,127.753938 C115.262965,127.753938 112.962416,130.010246 112.962416,132.783785 L112.962416,144.409631 L116.53669,144.409631 L116.53669,146.740708 L111.774024,146.740708 C111.11771,146.740708 110.585631,146.218862 110.585631,145.575169 L110.585631,132.783785 C110.585631,129.093015 113.369945,126.027785 116.986573,125.502554 C116.617318,124.692708 116.423435,123.808708 116.423435,122.895169 C116.423435,119.312708 119.238808,116.506554 122.832533,116.506554 C126.426573,116.506554 129.242259,119.312708 129.242259,122.895169 C129.242259,123.808708 129.048063,124.692708 128.679122,125.502554 C132.295435,126.027477 135.079749,129.092708 135.079749,132.783785 L135.079749,145.575169 C135.079749,146.218862 134.547671,146.740708 133.891357,146.740708" id="Fill-76" fill="#000000"></path>
                <polyline id="Fill-78" fill="#FFFFFF" points="129.128816 132.136462 129.128816 158.834615 122.728188 158.834615 122.937443 144.993385 122.937443 158.834615 116.536502 158.834615 116.536502 132.136462"></polyline>
                <g id="Group-82" transform="translate(115.137255, 132.000000)">
                    <mask id="mask-14" fill="white">
                        <use xlink:href="#path-13"></use>
                    </mask>
                    <g id="Clip-81"></g>
                    <path d="M13.9915608,28.0000308 L1.39924706,28.0000308 C0.743247059,28.0000308 0.210854902,27.4781846 0.210854902,26.8344923 L0.210854902,0.136030769 L2.58763922,0.136030769 L2.58763922,25.6689538 L6.41948235,25.6689538 L6.61179608,12.9760308 C6.62152157,12.3391077 7.1510902,11.8277231 7.79987451,11.8277231 L7.80897255,11.8277231 C8.46183529,11.8326462 8.98858039,12.3529538 8.98858039,12.9935692 L8.98858039,25.6689538 L12.8031686,25.6689538 L12.8031686,0.136030769 L15.1799529,0.136030769 L15.1799529,26.8344923 C15.1799529,27.4781846 14.6481882,28.0000308 13.9915608,28.0000308" id="Fill-80" fill="#000000" mask="url(#mask-14)"></path>
                </g>
                <path d="M151.246149,145.575138 L156.008502,145.575138 L156.008502,132.783446 C156.008502,129.362215 153.18058,126.588677 149.691953,126.588677 L148.610855,126.588677 C149.57462,125.643446 150.170698,124.3376 150.170698,122.895138 C150.170698,120.010523 147.891169,117.671754 144.949992,117.671754 C142.008816,117.671754 139.728973,120.010523 139.728973,122.895138 C139.728973,124.3376 140.325051,125.643446 141.288816,126.588677 L140.207404,126.588677 C136.71909,126.588677 133.891482,129.362215 133.891482,132.783446 L133.891482,145.575138 L138.653522,145.575138" id="Fill-83" fill="#FFFFFF"></path>
                <path d="M156.008408,146.740708 L151.246055,146.740708 L151.246055,144.409631 L154.820329,144.409631 L154.820329,132.783785 C154.820329,130.010246 152.51978,127.753938 149.691859,127.753938 L148.610761,127.753938 C148.130133,127.753938 147.696878,127.469938 147.513035,127.034246 C147.329192,126.598554 147.430525,126.097631 147.770604,125.764092 C148.55178,124.997938 148.982212,123.979169 148.982212,122.895169 C148.982212,120.619785 147.210918,118.837631 144.949898,118.837631 C142.688565,118.837631 140.917271,120.619785 140.917271,122.895169 C140.917271,123.978862 141.347702,124.997938 142.129192,125.764092 C142.469271,126.097631 142.570918,126.598554 142.386761,127.034246 C142.202918,127.469938 141.769663,127.753938 141.289035,127.753938 L140.207624,127.753938 C137.380016,127.753938 135.07978,130.010246 135.07978,132.783785 L135.07978,144.409631 L138.653741,144.409631 L138.653741,146.740708 L133.891388,146.740708 C133.235075,146.740708 132.702996,146.218862 132.702996,145.575169 L132.702996,132.783785 C132.702996,129.092708 135.486996,126.027477 139.103624,125.502554 C138.734369,124.692708 138.540486,123.808708 138.540486,122.895169 C138.540486,119.312708 141.355859,116.506554 144.949898,116.506554 C148.543937,116.506554 151.35931,119.312708 151.35931,122.895169 C151.35931,123.808708 151.165114,124.692708 150.795859,125.502554 C154.412486,126.027785 157.1968,129.093015 157.1968,132.783785 L157.1968,145.575169 C157.1968,146.218862 156.665035,146.740708 156.008408,146.740708" id="Fill-85" fill="#000000"></path>
                <polyline id="Fill-87" fill="#FFFFFF" points="151.246149 132.136462 151.246149 158.834615 144.845208 158.834615 145.054776 144.993385 145.054776 158.834615 138.653522 158.834615 138.653522 132.136462"></polyline>
                <g id="Group-91" transform="translate(137.411765, 132.000000)">
                    <mask id="mask-16" fill="white">
                        <use xlink:href="#path-15"></use>
                    </mask>
                    <g id="Clip-90"></g>
                    <path d="M13.8343843,28.0000308 L1.24175686,28.0000308 C0.585756863,28.0000308 0.0533647059,27.4781846 0.0533647059,26.8344923 L0.0533647059,0.136030769 L2.43014902,0.136030769 L2.43014902,25.6689538 L6.26230588,25.6689538 L6.45461961,12.9760308 C6.4643451,12.3391077 6.9936,11.8277231 7.64269804,11.8277231 L7.64865882,11.8277231 C8.30465882,11.8326462 8.83140392,12.3529538 8.83140392,12.9935692 L8.83140392,25.6689538 L12.6459922,25.6689538 L12.6459922,0.136030769 L15.0227765,0.136030769 L15.0227765,26.8344923 C15.0227765,27.4781846 14.490698,28.0000308 13.8343843,28.0000308" id="Fill-89" fill="#000000" mask="url(#mask-16)"></path>
                </g>
                <path d="M73.169851,29.1181231 L69.0192627,53.6504308 L75.3461647,53.6504308 L79.850949,38.6513538 L83.4923608,53.6504308 L89.8195765,53.6504308 L86.5916549,29.1181231 L96.9060078,29.1181231 L96.9060078,14.6387385 L90.6145569,14.6387385 L90.6145569,24.2030462 L83.5689098,23.8947385 C84.6267922,22.8572 85.2363608,21.3808923 85.0892235,19.7676615 C84.8517333,17.1670462 82.6365176,15.0925846 79.9739294,15.0808923 C77.0553412,15.0682769 74.7896157,17.3845846 74.7896157,20.2439692 C74.7896157,21.6698154 75.3787922,22.9602769 76.3312627,23.8947385 L69.0192627,24.1002769 L69.0192627,14.7415077 L63.4559686,14.7415077 L63.4559686,27.1113538 C63.4559686,28.0150462 64.1828706,28.7575077 65.1033412,28.7944308 L73.169851,29.1181231 Z" id="Fill-92" fill="#00EFB6"></path>
                <path d="M84.4311843,52.4850154 L88.4678902,52.4850154 L85.4134588,29.2671692 C85.3695373,28.9348615 85.4736941,28.6000923 85.6995765,28.3484 C85.9251451,28.0967077 86.2501647,27.9527077 86.5921255,27.9527077 L95.7177725,27.9527077 L95.7177725,15.8044 L91.8031059,15.8044 L91.8031059,24.2031692 C91.8031059,24.5213231 91.6704,24.8253231 91.4360471,25.0453231 C91.2013804,25.2653231 90.8813804,25.3834769 90.5616941,25.3674769 L83.5157333,25.0591692 C83.0451451,25.0388615 82.6316549,24.7474769 82.461302,24.3164 C82.2906353,23.8859385 82.3957333,23.3970154 82.7285961,23.0702462 C83.5856941,22.2302462 84.0142431,21.0647077 83.9053804,19.8717846 C83.7205961,17.8477846 81.9916549,16.2551692 79.9687529,16.2468615 L79.9508706,16.2468615 C78.8976941,16.2468615 77.9132235,16.6422462 77.1759686,17.3616308 C76.4032627,18.1160923 75.9781647,19.1394769 75.9781647,20.2437846 C75.9781647,21.3117846 76.4020078,22.3157846 77.1715765,23.0705538 C77.5075765,23.3997846 77.6111059,23.8927077 77.4357333,24.3250154 C77.2606745,24.7579385 76.8399686,25.0462462 76.365302,25.0597846 L69.0529882,25.2653231 C68.7295373,25.2745538 68.4211451,25.1557846 68.1908706,24.9367077 C67.9605961,24.7167077 67.8307137,24.4154769 67.8307137,24.1004 L67.8307137,15.9071692 L64.6445176,15.9071692 L64.6445176,27.1114769 C64.6445176,27.3908615 64.8675765,27.6185538 65.1521255,27.6299385 L73.2183216,27.9533231 C73.5590275,27.9668615 73.8768314,28.1234769 74.0920471,28.3828615 C74.306949,28.6422462 74.3982431,28.9791692 74.3424,29.3090154 L70.4211451,52.4850154 L74.4575373,52.4850154 L78.7110275,38.3222462 C78.8628706,37.8154769 79.3397333,37.4684 79.8821647,37.4862462 C80.4208314,37.5000923 80.8820078,37.8674769 81.0071843,38.3813231 L84.4311843,52.4850154 Z M89.8197333,54.8160923 L83.4928314,54.8160923 C82.9422431,54.8160923 82.4641255,54.4456308 82.3364392,53.9207077 L79.7293804,43.1819385 L76.4864,53.9797846 C76.3373804,54.4757846 75.8733804,54.8160923 75.3463216,54.8160923 L69.0191059,54.8160923 C68.6699294,54.8160923 68.3383216,54.6656308 68.1124392,54.4040923 C67.8868706,54.1431692 67.7896157,53.7976308 67.8467137,53.4594769 L71.7770667,30.2287077 L65.0548706,29.9591692 C63.4918902,29.8964 62.2677333,28.6453231 62.2677333,27.1114769 L62.2677333,14.7416308 C62.2677333,14.0979385 62.7998118,13.5760923 63.4561255,13.5760923 L69.0191059,13.5760923 C69.6754196,13.5760923 70.207498,14.0979385 70.207498,14.7416308 L70.207498,22.9013231 L74.1425569,22.7902462 C73.7877333,21.9982462 73.6010667,21.1348615 73.6010667,20.2437846 C73.6010667,18.5148615 74.2752627,16.9044 75.4991059,15.7096308 C76.6849882,14.5520923 78.2645961,13.9154769 79.9502431,13.9154769 L79.9794196,13.9154769 C83.2151843,13.9293231 85.9800471,16.4542462 86.2730667,19.6634769 C86.3731451,20.7616308 86.1836549,21.8462462 85.7397333,22.8231692 L89.4263216,22.9844 L89.4263216,14.6388615 C89.4263216,13.9951692 89.9584,13.4733231 90.6147137,13.4733231 L96.9061647,13.4733231 C97.5621647,13.4733231 98.0945569,13.9951692 98.0945569,14.6388615 L98.0945569,29.1182462 C98.0945569,29.7616308 97.5621647,30.2837846 96.9061647,30.2837846 L87.9436549,30.2837846 L90.9984,53.5016308 C91.0420078,53.8339385 90.937851,54.1684 90.7122824,54.4204 C90.4864,54.6717846 90.1616941,54.8160923 89.8197333,54.8160923 Z" id="Fill-94" fill="#000000"></path>
                <mask id="mask-18" fill="white">
                    <use xlink:href="#path-17"></use>
                </mask>
                <g id="Clip-97"></g>
                <polygon id="Fill-96" fill="#DAB4FD" mask="url(#mask-18)" points="90.6145882 24.2030769 96.9060392 24.2030769 96.9060392 14.6387692 90.6145882 14.6387692"></polygon>
                <path d="M91.8029804,23.0375385 L95.7176471,23.0375385 L95.7176471,15.8043077 L91.8029804,15.8043077 L91.8029804,23.0375385 Z M96.9060392,25.3686154 L90.6145882,25.3686154 C89.9585882,25.3686154 89.4261961,24.8467692 89.4261961,24.2030769 L89.4261961,14.6387692 C89.4261961,13.9950769 89.9585882,13.4732308 90.6145882,13.4732308 L96.9060392,13.4732308 C97.5623529,13.4732308 98.0944314,13.9950769 98.0944314,14.6387692 L98.0944314,24.2030769 C98.0944314,24.8467692 97.5623529,25.3686154 96.9060392,25.3686154 Z" id="Fill-98" fill="#000000" mask="url(#mask-18)"></path>
                <polygon id="Fill-99" fill="#DAB4FD" mask="url(#mask-18)" points="96.9060706 24.2031385 119.346227 29.5794462 119.346227 8.67390769 96.9060706 14.6388308"></polygon>
                <path d="M98.0944941,23.2881846 L118.157867,28.0946462 L118.157867,10.1974154 L98.0944941,15.5306462 L98.0944941,23.2881846 Z M119.346259,30.7448 C119.252141,30.7448 119.157396,30.7340308 119.06422,30.7115692 L96.6240627,25.3352615 C96.0919843,25.2078769 95.7177098,24.7404923 95.7177098,24.2032615 L95.7177098,14.6389538 C95.7177098,14.1124923 96.0769255,13.6515692 96.5955137,13.5140308 L119.035671,7.54910769 C119.39269,7.45403077 119.774494,7.52756923 120.068455,7.74818462 C120.362416,7.9688 120.534651,8.31095385 120.534651,8.67403077 L120.534651,29.5792615 C120.534651,29.9368 120.367122,30.2749538 120.080063,30.4961846 C119.868925,30.6589538 119.609788,30.7448 119.346259,30.7448 Z" id="Fill-100" fill="#000000" mask="url(#mask-18)"></path>
                <polygon id="Fill-101" fill="#000000" mask="url(#mask-18)" points="126.244298 13.5778462 125.450573 11.3803077 138.767906 6.75261538 139.561631 8.94984615"></polygon>
                <polygon id="Fill-102" fill="#000000" mask="url(#mask-18)" points="138.767906 31.5006154 125.450573 26.8729231 126.244298 24.6753846 139.561631 29.3030769"></polygon>
                <polygon id="Fill-103" fill="#000000" mask="url(#mask-18)" points="125.847529 20.292 140.423216 20.292 140.423216 17.9609231 125.847529 17.9609231"></polygon>
                <polygon id="Fill-104" fill="#E5E5E5" mask="url(#mask-18)" points="55.0993882 67.8356615 62.7219765 74.5621231 71.425349 65.9575077 79.7089569 74.5621231 88.9365647 65.9575077 98.1648 74.5621231 105.553349 68.1701231 92.9215059 53.6504308 67.4407216 53.6504308"></polygon>
                <path d="M88.9366902,64.7920923 C89.2315922,64.7920923 89.5264941,64.8991692 89.7555137,65.1130154 L98.1947294,72.9819385 L103.890729,68.0545538 L92.3735529,54.8160923 L67.9886118,54.8160923 L56.7550431,67.7287077 L62.6753569,72.9533231 L70.5815529,65.1367077 C70.8083765,64.9127077 71.1092392,64.7933231 71.4399059,64.7920923 C71.7617882,64.7960923 72.0679843,64.9277846 72.2894745,65.1573231 L79.7542588,72.9117846 L88.1181804,65.1130154 C88.3472,64.8991692 88.642102,64.7920923 88.9366902,64.7920923 M79.7093961,75.7277846 C79.6987294,75.7277846 79.6880627,75.7277846 79.6770824,75.7274769 C79.3614745,75.7191692 79.0618667,75.5877846 78.8450824,75.3625538 L71.4038275,67.6333231 L63.5657098,75.3831692 C63.1189647,75.8240923 62.3980235,75.8450154 61.9268078,75.4287077 L54.3042196,68.7022462 C53.8257882,68.2797846 53.7774745,67.5597846 54.1953569,67.0791692 L66.5363765,52.8939385 C66.7619451,52.6342462 67.0926118,52.4850154 67.4402196,52.4850154 L92.9216314,52.4850154 C93.2695529,52.4850154 93.5999059,52.6342462 93.8257882,52.8939385 L106.457945,67.4136308 C106.878651,67.8976308 106.825945,68.6234769 106.339671,69.0440923 L98.9504941,75.4364 C98.4893176,75.8360923 97.7928471,75.8237846 97.3457882,75.4068615 L88.9366902,67.5662462 L80.5279059,75.4068615 C80.3070431,75.6130154 80.0137098,75.7277846 79.7093961,75.7277846" id="Fill-105" fill="#000000" mask="url(#mask-18)"></path>
                <path d="M40.6603608,9.16738462 L10.6023216,9.16738462 C9.94632157,9.16738462 9.41392941,8.64553846 9.41392941,8.00184615 C9.41392941,7.35815385 9.94632157,6.83630769 10.6023216,6.83630769 L40.6603608,6.83630769 C41.3166745,6.83630769 41.8487529,7.35815385 41.8487529,8.00184615 C41.8487529,8.64553846 41.3166745,9.16738462 40.6603608,9.16738462" id="Fill-106" fill="#000000" mask="url(#mask-18)"></path>
                <path d="M17.4210824,15.8251385 L10.6025725,15.8251385 C9.94625882,15.8251385 9.41418039,15.3032923 9.41418039,14.6596 C9.41418039,14.0159077 9.94625882,13.4940615 10.6025725,13.4940615 L17.4210824,13.4940615 C18.0773961,13.4940615 18.6094745,14.0159077 18.6094745,14.6596 C18.6094745,15.3032923 18.0773961,15.8251385 17.4210824,15.8251385" id="Fill-107" fill="#000000" mask="url(#mask-18)"></path>
                <path d="M40.6603608,22.4826154 L10.6023216,22.4826154 C9.94632157,22.4826154 9.41392941,21.9610769 9.41392941,21.3170769 C9.41392941,20.6733846 9.94632157,20.1518462 10.6023216,20.1518462 L40.6603608,20.1518462 C41.3166745,20.1518462 41.8487529,20.6733846 41.8487529,21.3170769 C41.8487529,21.9610769 41.3166745,22.4826154 40.6603608,22.4826154" id="Fill-108" fill="#000000" mask="url(#mask-18)"></path>
                <path d="M40.6603608,29.1406462 L10.6023216,29.1406462 C9.94632157,29.1406462 9.41392941,28.6188 9.41392941,27.9751077 C9.41392941,27.3314154 9.94632157,26.8095692 10.6023216,26.8095692 L40.6603608,26.8095692 C41.3166745,26.8095692 41.8487529,27.3314154 41.8487529,27.9751077 C41.8487529,28.6188 41.3166745,29.1406462 40.6603608,29.1406462" id="Fill-109" fill="#000000" mask="url(#mask-18)"></path>
                <path d="M40.6603608,15.8251385 L21.2009098,15.8251385 C20.5445961,15.8251385 20.0125176,15.3032923 20.0125176,14.6596 C20.0125176,14.0159077 20.5445961,13.4940615 21.2009098,13.4940615 L40.6603608,13.4940615 C41.3166745,13.4940615 41.8487529,14.0159077 41.8487529,14.6596 C41.8487529,15.3032923 41.3166745,15.8251385 40.6603608,15.8251385" id="Fill-110" fill="#000000" mask="url(#mask-18)"></path>
                <polygon id="Fill-111" fill="#000000" mask="url(#mask-18)" points="109.738165 55.7223692 115.066165 50.4971385 120.394165 55.7223692 115.066165 60.9479077"></polygon>
                <polygon id="Fill-112" fill="#000000" mask="url(#mask-18)" points="122.832847 44.3338769 132.506259 44.3338769 127.76869 34.9791077"></polygon>
                <polygon id="Fill-113" fill="#000000" mask="url(#mask-18)" points="142.433945 60.4140923 136.330102 54.4784 138.003827 52.8227077 144.107357 58.7587077"></polygon>
                <polygon id="Fill-114" fill="#000000" mask="url(#mask-18)" points="138.003796 60.4140923 136.330071 58.7587077 142.433914 52.8227077 144.107325 54.4784"></polygon>
                <polygon id="Fill-115" fill="#000000" mask="url(#mask-18)" points="15.4544314 48.8073846 21.9149804 48.8073846 21.9149804 42.4710769 15.4544314 42.4710769"></polygon>
            </g>
        </g>
    </g>
</svg>