<?xml version="1.0" encoding="UTF-8"?>
<svg width="36px" height="36px" viewBox="0 0 36 36" version="1.1" xmlns="http://www.w3.org/2000/svg" xmlns:xlink="http://www.w3.org/1999/xlink">
    <defs>
        <polygon id="path-1" points="5.6031935e-05 0.0490965517 34.5917172 0.0490965517 34.5917172 35.7931034 5.6031935e-05 35.7931034"></polygon>
    </defs>
    <g id="icon-pickle-1" stroke="none" stroke-width="1" fill="none" fill-rule="evenodd">
        <g transform="translate(1.000000, 0.000000)">
            <path d="M17.6693379,17.3058207 C17.4078207,17.1860276 17.1109241,17.3842345 17.1210621,17.6716138 C17.1446483,18.3357517 17.3567172,19.5562345 17.5923724,19.9094069 C17.9536138,20.4510621 18.6860276,20.5973379 19.2278897,20.2358897 C19.7695448,19.8744414 19.9158207,19.1422345 19.5543724,18.6003724 C19.3189241,18.2474069 18.2736828,17.5826483 17.6693379,17.3058207" id="Fill-1" fill="#D6F9EB"></path>
            <path d="M15.5840069,11.1595448 C14.8844897,11.1580966 14.3165586,11.7241655 14.3153172,12.4234759 C14.3144897,12.879269 14.8499379,14.0966483 15.2235931,14.7047172 C15.3851793,14.9676828 15.7687655,14.9685103 15.9313862,14.7059586 C16.3069034,14.0993379 16.8469034,12.8838207 16.847731,12.4282345 C16.8491793,11.7287172 16.2833172,11.1607862 15.5840069,11.1595448" id="Fill-3" fill="#D6F9EB"></path>
            <path d="M13.4875655,17.217331 C12.6486,17.3725034 11.1388759,17.8721586 10.7350138,18.2379517 C10.1151517,18.7990552 10.0675655,19.7563655 10.6288759,20.3764345 C11.1899793,20.9962966 12.1472897,21.0436759 12.7673586,20.4823655 C13.1712207,20.1167793 13.8179793,18.6639517 14.0554966,17.8446414 C14.1583241,17.4900207 13.850669,17.1500897 13.4875655,17.217331" id="Fill-5" fill="#D6F9EB"></path>
            <path d="M33.7508897,15.9909103 C33.7508897,15.9909103 33.5744069,12.3652552 33.132269,11.4811862 C33.132269,11.4811862 32.6959241,10.1373931 31.5058552,8.99242759 L28.5370966,5.3613931 C30.3044069,7.72973793 30.9913034,10.8162207 30.7560621,14.5209103 C30.7560621,14.5209103 29.8674414,15.4087034 29.6551655,16.8193241 C29.5372345,17.4780828 29.5659931,18.2293241 29.9228897,19.0109793 C29.6175103,19.9444966 29.2279241,20.8471862 28.7748207,21.7176 C28.7551655,21.7202897 28.7365448,21.7233931 28.7164759,21.7260828 C28.332269,22.4642897 27.9042,23.1803586 27.4264759,23.8633241 C27.324269,23.8910483 27.2311655,23.9266345 27.1362,23.9605655 C24.8872345,24.7614621 24.4966138,27.2053241 24.4966138,27.2053241 C23.5268897,28.1073931 22.6076483,28.7779448 21.4908207,29.4700138 C17.552131,29.2862897 16.4748207,31.6631172 16.4748207,31.6631172 C15.0910966,32.0353241 13.6722,32.2341517 12.2506138,32.2341517 C11.5417862,32.2341517 10.8627517,32.1853241 10.2143379,32.0916 C10.2143379,32.0916 8.80764828,29.5920828 5.86971724,30.545669 L10.2143379,33.7869103 C10.2143379,33.7869103 11.5004069,33.6309103 13.6765448,34.5578069 C14.8484069,35.125531 16.230269,35.221531 17.520269,35.0409103 C17.7153724,35.0136 17.910269,34.9827724 18.1049586,34.9482207 C19.5933724,32.5374621 22.5807517,33.5061517 22.5807517,33.5061517 C24.5156483,32.5924966 26.3237172,31.3413931 27.8992345,29.8372552 C28.0444759,26.8293931 30.6610966,26.5887724 30.6610966,26.5887724 C31.3295793,25.6089103 31.9035103,24.5684276 32.3754414,23.4842897 C32.7478552,22.6287724 33.0575793,21.7463586 33.2907517,20.8413931 C33.3102,20.8345655 33.3323379,20.8277379 33.3507517,20.8209103 L33.4610276,20.3887034 C33.4610276,20.3887034 32.0022,18.3720828 33.7508897,15.9909103" id="Fill-7" fill="#00D89A"></path>
            <path d="M29.2971724,14.7198207 C29.2971724,14.7198207 27.5598621,16.6342345 28.5422069,18.7869931 C28.1842759,19.8823034 27.7005517,20.9318897 27.1226897,21.9278897 C26.8746207,22.3557517 26.613931,22.7767862 26.330069,23.1825103 C25.652069,23.3664414 25.1455862,23.7109241 24.7638621,24.1023724 C23.865931,25.0238897 23.676,26.2098207 23.676,26.2098207 C22.7977241,27.0268552 21.9651724,27.6345103 20.9534483,28.2614069 C17.3855172,28.0948552 16.4095862,30.2482345 16.4095862,30.2482345 C15.1562069,30.585269 13.8709655,30.7650621 12.5832414,30.7650621 C11.9410345,30.7650621 11.325931,30.7212 10.7387586,30.6361655 C10.7387586,30.6361655 9.46468966,28.3718897 6.80317241,29.2356828 C5.55475862,28.4565103 4.54675862,27.4085793 3.79841379,26.1605793 C3.79841379,26.1605793 3.72848276,24.9843724 3.31572414,23.6126483 C3.09062069,22.8655448 2.7657931,22.0613379 2.29117241,21.3558207 C2.28310345,21.2680966 2.28393103,21.1766483 2.27751724,21.0880966 C2.17468966,19.6787172 2.27648276,18.1812 2.61165517,16.6342345 C2.69772414,16.2372 2.79413793,15.8459586 2.90089655,15.461131 C2.90089655,15.461131 4.65931034,13.5283034 5.13268966,10.3294759 C6.02172414,8.8994069 7.08227586,7.62926897 8.28144828,6.55009655 C8.28144828,6.55009655 10.7387586,6.02292414 12.825931,3.61133793 C14.6536552,2.86837241 16.6375862,2.5034069 18.7154483,2.5034069 C18.7154483,2.5034069 21.3742759,3.81513103 24.1168966,3.69471724 C27.8352414,5.6109931 29.6170345,9.67837241 29.2971724,14.7198207 M24.9829655,2.34968276 C21.9556552,2.48251034 19.0202069,1.03444138 19.0202069,1.03444138 C16.7267586,1.03444138 14.5361379,1.43726897 12.5184828,2.25782069 C10.2144828,4.91975172 7.50144828,5.50175172 7.50144828,5.50175172 C6.17772414,6.69326897 5.00689655,8.0952 4.02558621,9.67402759 C3.50296552,13.2055448 1.56144828,15.3390621 1.56144828,15.3390621 C1.44393103,15.7642345 1.33737931,16.1960276 1.24241379,16.6342345 C0.939103448,18.0353379 0.806896552,19.4006483 0.830275862,20.7057517 C0.837103448,21.0912 0.853862069,21.4729241 0.88862069,21.8465793 C1.2237931,22.3449931 1.48944828,22.8883034 1.70462069,23.4312 C2.44303448,25.2947172 2.55248276,27.1507862 2.55248276,27.1507862 C3.37882759,28.5287172 4.49151724,29.685269 5.86986207,30.5455448 C8.8077931,29.5921655 10.2144828,32.0916828 10.2144828,32.0916828 C10.8626897,32.1854069 11.541931,32.2340276 12.2505517,32.2340276 C13.6721379,32.2340276 15.0910345,32.0352 16.4747586,31.6632 C16.4747586,31.6632 17.552069,29.2861655 21.4909655,29.4700966 C22.6075862,28.7778207 23.5268276,28.107269 24.4965517,27.2054069 C24.4965517,27.2054069 24.8873793,24.7613379 27.1363448,23.9604414 C27.2313103,23.9267172 27.3244138,23.8909241 27.4264138,23.8632 C27.9043448,23.1804414 28.3322069,22.4643724 28.7164138,21.7259586 C29.1711724,20.853269 29.5622069,19.9476828 29.8684138,19.0108552 C28.784069,16.6342345 30.702,14.5207862 30.702,14.5207862 C31.0551724,8.95526897 29.088,4.4652 24.9829655,2.34968276" id="Fill-9" fill="#17C68C"></path>
            <path d="M10.7350759,18.237869 C11.1389379,17.871869 12.6486621,17.3724207 13.4876276,17.2172483 C13.850731,17.1500069 14.1583862,17.4901448 14.0555586,17.8445586 C13.8178345,18.6640759 13.1710759,20.1166966 12.7672138,20.4826966 C12.1473517,21.0438 11.1900414,20.9962138 10.6285241,20.3761448 C10.0674207,19.7564897 10.1152138,18.7989724 10.7350759,18.237869 M15.5841103,11.1595241 C16.2832138,11.1607655 16.8492828,11.7286966 16.8478345,12.4282138 C16.8468,12.8838 16.3070069,14.0995241 15.9310759,14.7059379 C15.7684552,14.9684897 15.3850759,14.967869 15.2232828,14.7046966 C14.8500414,14.0966276 14.3145931,12.8792483 14.3152138,12.4232483 C14.3166621,11.7241448 14.8848,11.1580759 15.5841103,11.1595241 M17.6696276,17.3058 C18.2735586,17.5826276 19.3190069,18.2473862 19.5544552,18.6003517 C19.9159034,19.1422138 19.7696276,19.8746276 19.2277655,20.235869 C18.6861103,20.5973172 17.9539034,20.4510414 17.5922483,19.9093862 C17.3568,19.5562138 17.1445241,18.3359379 17.1211448,17.6718 C17.1108,17.3842138 17.4081103,17.1860069 17.6696276,17.3058 M24.1169379,3.69469655 C21.3743172,3.81511034 18.7154897,2.50338621 18.7154897,2.50338621 C16.6376276,2.50338621 14.6534897,2.86835172 12.8257655,3.61131724 C10.7388,6.02290345 8.28148966,6.55007586 8.28148966,6.55007586 C7.08231724,7.62945517 6.02176552,8.89938621 5.13273103,10.3294552 C4.65935172,13.5282828 2.90093793,15.4611103 2.90093793,15.4611103 C2.79417931,15.8459379 2.69755862,16.2371793 2.61148966,16.6342138 C2.27652414,18.1813862 2.17473103,19.6786966 2.27755862,21.0880759 C2.28376552,21.1766276 2.28293793,21.2680759 2.2910069,21.3558 C2.76562759,22.0613172 3.09066207,22.8655241 3.31576552,23.6128345 C3.72852414,24.9843517 3.79845517,26.1605586 3.79845517,26.1605586 C4.5468,27.4085586 5.5548,28.4564897 6.80321379,29.2356621 C9.46452414,28.371869 10.7388,30.6361448 10.7388,30.6361448 C11.3257655,30.7211793 11.9410759,30.7650414 12.5832828,30.7650414 C13.8710069,30.7650414 15.1562483,30.5852483 16.4096276,30.2482138 C16.4096276,30.2482138 17.3855586,28.0948345 20.9534897,28.2613862 C21.9650069,27.6344897 22.7977655,27.0268345 23.6760414,26.2098 C23.6760414,26.2098 23.8659724,25.023869 24.7639034,24.1023517 C25.1454207,23.7109034 25.6521103,23.3664207 26.3301103,23.1824897 C26.6139724,22.7767655 26.8746621,22.355731 27.122731,21.927869 C27.7005931,20.931869 28.1843172,19.8822828 28.5420414,18.7869724 C27.5596966,16.6342138 29.2972138,14.7198 29.2972138,14.7198 C29.6170759,9.67835172 27.8350759,5.61097241 24.1169379,3.69469655" id="Fill-11" fill="#DCFFF0"></path>
            <path d="M10.4618897,33.6726828 C10.9445793,33.6726828 12.0779586,33.7643379 13.7169931,34.4626138 C15.0489931,35.108131 16.5119586,35.0777172 17.5058897,34.9384759 C17.6846483,34.9134414 17.8632,34.8853034 18.0415448,34.854269 C18.6698897,33.8634414 19.6553379,33.2984069 20.8944414,33.2199931 C21.7257517,33.1672345 22.4029241,33.3455793 22.5725793,33.3956483 C24.4737517,32.4931655 26.2313379,31.2805448 27.7981655,29.7906828 C27.8865103,28.2203379 28.6501655,27.4057862 29.2783034,26.9982 C29.865269,26.6173034 30.4332,26.5148897 30.6022345,26.4917172 C31.9178897,24.5555793 32.8240966,22.6459241 33.2949931,20.8155103 L33.353131,20.4130966 C33.1679586,20.1267517 32.033131,18.1864759 33.6456828,15.9598552 C33.6256138,15.5785448 33.4439586,12.3354414 33.0398897,11.5275103 C33.0297517,11.4999931 32.5903034,10.1791655 31.4341655,9.06688966 L28.457131,5.42675172 C27.1543034,3.85268276 25.2049241,2.60985517 24.9558207,2.45426897 C22.0863724,2.56537241 19.2746483,1.2702 18.9967862,1.1379931 C16.7099586,1.14088966 14.5514069,1.54661379 12.5803034,2.3442 C10.4080966,4.84226897 7.84588966,5.52482069 7.55106207,5.5964069 C6.24223448,6.77778621 5.08982069,8.16151034 4.12485517,9.71054483 C3.6249931,13.0448897 1.84775172,15.1678552 1.65513103,15.3896483 C1.54051034,15.8044759 1.43582069,16.2304759 1.34354483,16.6560621 C1.04788966,18.0213724 0.910096552,19.3831655 0.933682759,20.7037862 C0.940924138,21.1148897 0.959131034,21.4773724 0.989337931,21.8110966 C2.38857931,23.9094414 2.63209655,26.8140621 2.65402759,27.1188207 C3.48616552,28.4992345 4.58644138,29.6226828 5.92444138,30.4579241 L10.2442345,33.680131 C10.2868552,33.6768207 10.3598897,33.6726828 10.4618897,33.6726828 M16.3540966,35.2273034 C15.5076828,35.2273034 14.5406483,35.0915793 13.6313379,34.6510966 C11.5166483,33.750269 10.239269,33.8880621 10.2266483,33.8895103 C10.1995448,33.8930276 10.1736828,33.8855793 10.1525793,33.8696483 L5.80795862,30.6284069 C4.44182069,29.7764069 3.31444138,28.6225448 2.46388966,27.2038552 C2.4552,27.1895793 2.45023448,27.1734414 2.4492,27.1566828 C2.44754483,27.1260621 2.25513103,24.0637862 0.802717241,21.9044069 C0.7932,21.890131 0.7872,21.8735793 0.785544828,21.8562 C0.753682759,21.5100621 0.734441379,21.1343379 0.726786207,20.7075103 C0.702786207,19.3709586 0.842234483,17.9930276 1.1414069,16.6124069 C1.23616552,16.1750276 1.34416552,15.7372345 1.46209655,15.3114414 C1.46623448,15.2959241 1.47430345,15.2814414 1.48506207,15.2696483 C1.50430345,15.2483379 3.41168276,13.1156483 3.92333793,9.65902759 C3.9254069,9.64495862 3.93037241,9.63151034 3.93782069,9.61951034 C4.92037241,8.03902759 6.09595862,6.62757931 7.43209655,5.42488966 C7.44575172,5.41288966 7.46209655,5.4044069 7.47968276,5.40068276 C7.50657931,5.39488966 10.1875448,4.79261379 12.4404414,2.19006207 C12.4509931,2.17764828 12.4644414,2.16813103 12.4795448,2.16192414 C14.4883034,1.34530345 16.6890621,0.931096552 19.0203724,0.931096552 C19.0363034,0.931096552 19.0520276,0.93482069 19.0660966,0.941855172 C19.0954759,0.956131034 22.0118897,2.37854483 24.9787862,2.24613103 C24.9976138,2.24592414 25.0193379,2.25068276 25.0369241,2.26144138 C25.0586483,2.27447586 27.2076828,3.59282069 28.6166483,5.29537241 L31.5860276,8.92702759 C32.7725793,10.0674414 33.2126483,11.3932345 33.2308552,11.4493034 C33.6717517,12.3282 33.8469931,15.8371655 33.8542345,15.986131 C33.855269,16.0099241 33.8482345,16.0330966 33.8343724,16.0523379 C32.1529241,18.3414414 33.4874069,20.2479931 33.5449241,20.3280621 C33.5608552,20.3497862 33.5674759,20.3768897 33.5635448,20.4035793 L33.4977517,20.8564759 C33.015269,22.7332345 32.0904414,24.6776483 30.7466483,26.6470966 C30.729269,26.6723379 30.7013379,26.6888897 30.6707172,26.6917862 C30.5676828,26.7015103 28.1414069,26.9626138 28.0025793,29.8422 C28.0013379,29.8686828 27.9901655,29.8937172 27.9709241,29.9119241 C26.3705793,31.4396483 24.5718207,32.6804069 22.6249241,33.5996483 C22.601131,33.6112345 22.5742345,33.6128897 22.5487862,33.6046138 C22.5196138,33.5953034 19.6201655,32.6905448 18.1927862,35.0026138 C18.177269,35.0276483 18.1518207,35.0450276 18.1228552,35.0499931 C17.927131,35.0847517 17.7309931,35.1159931 17.5346483,35.1433034 C17.1887172,35.1919241 16.787131,35.2273034 16.3540966,35.2273034" id="Fill-13" fill="#000000"></path>
            <path d="M10.3394483,31.9003241 C10.9545517,31.984531 11.5969655,32.0271517 12.2505517,32.0271517 C13.5976552,32.0271517 14.9706207,31.8452897 16.3326207,31.4869448 C16.5802759,31.0348759 17.8493793,29.1229448 21.435931,29.260531 C22.5746897,28.5512897 23.4391034,27.9003931 24.3055862,27.1003241 C24.3916552,26.6699793 24.9227586,24.5288069 27.0668276,23.7657724 L27.1181379,23.7473586 C27.1775172,23.7258414 27.2366897,23.704531 27.2983448,23.6852897 C27.7369655,23.0523931 28.1522069,22.3615655 28.5331034,21.6306 C28.986,20.7603931 29.3606897,19.8831517 29.6468276,19.0220483 C28.6878621,16.8014276 30.2021379,14.8009448 30.4996552,14.4394966 C30.8321379,8.9046 28.8076552,4.58025517 24.9368276,2.55866897 C22.0814483,2.66873793 19.3646897,1.4283931 18.9730345,1.24135862 C16.7172414,1.24715172 14.5876552,1.64708276 12.6422069,2.4308069 C10.4807586,4.90611724 8.01082759,5.59135862 7.60055172,5.69128966 C6.3122069,6.85735862 5.17675862,8.22163448 4.2237931,9.74708276 C3.72144828,13.0615655 2.01889655,15.1292897 1.74848276,15.4402552 C1.63675862,15.8459793 1.53475862,16.2622552 1.44475862,16.6781172 C1.15075862,18.0353586 1.01358621,19.3892897 1.03717241,20.7020483 C1.0442069,21.0997034 1.06158621,21.4516345 1.09013793,21.7756345 C1.39013793,22.2299793 1.66158621,22.7610828 1.89682759,23.3550828 C2.57917241,25.0772897 2.73186207,26.7666 2.75565517,27.086669 C3.56089655,28.4157724 4.61813793,29.5028069 5.89903448,30.3194276 C7.44993103,29.8481172 8.58165517,30.3126 9.26296552,30.7919793 C9.85634483,31.2092897 10.2105517,31.7010828 10.3394483,31.9003241 M12.2505517,32.4409448 C11.5431724,32.4409448 10.8482069,32.3923241 10.1846897,32.2963241 L10.0845517,32.2820483 L10.034069,32.1934966 C9.98006897,32.0974966 8.67,29.854531 5.93358621,30.7423241 L5.84193103,30.7721172 L5.7602069,30.7212207 C4.37317241,29.8553586 3.2342069,28.6899103 2.37517241,27.2573586 L2.34910345,27.2137034 L2.346,27.1632207 C2.34475862,27.1448069 2.22889655,25.3164621 1.5122069,23.5075655 C1.28006897,22.9216345 1.01255172,22.4014966 0.716896552,21.9620483 L0.687517241,21.9183931 L0.682551724,21.8656345 C0.650482759,21.5170138 0.631034483,21.1388069 0.62337931,20.7092897 C0.59937931,19.3648759 0.739655172,17.9790828 1.04027586,16.5903931 C1.13544828,16.1511517 1.24386207,15.7117034 1.3622069,15.2838414 L1.37544828,15.2364621 L1.40855172,15.1998414 C1.42758621,15.1791517 3.31448276,13.0661172 3.82096552,9.64384138 L3.82717241,9.60142759 L3.84993103,9.5648069 C4.83744828,7.97604828 6.01944828,6.55735862 7.36303448,5.34804828 L7.404,5.31122069 L7.4577931,5.29963448 C7.48427586,5.29384138 10.1344138,4.69591034 12.362069,2.12232414 L12.3947586,2.08487586 L12.4404828,2.06604828 C14.4618621,1.24425517 16.6756552,0.827565517 19.0204138,0.827565517 L19.0686207,0.827565517 L19.1118621,0.849082759 C19.1408276,0.863151724 22.0408966,2.26984138 24.974069,2.14301379 L25.0291034,2.14053103 L25.077931,2.16577241 C29.1490345,4.26391034 31.2742759,8.77197931 30.9084828,14.5340483 L30.903931,14.6060483 L30.8553103,14.6598414 C30.8371034,14.6801172 29.0431034,16.7039793 30.0566897,18.9250138 L30.09,18.9984621 L30.0649655,19.0752207 C29.7686897,19.9820483 29.3768276,20.9060483 28.899931,21.8217724 C28.4989655,22.5916345 28.0601379,23.3184621 27.5958621,23.9819793 L27.5528276,24.0432207 L27.4806207,24.0628759 C27.4030345,24.0839793 27.3310345,24.1104621 27.2588276,24.136531 L27.2056552,24.1553586 C25.0965517,24.9061862 24.7046897,27.2149448 24.7007586,27.2381172 L24.6895862,27.3084621 L24.6372414,27.3568759 C23.7198621,28.2103241 22.8113793,28.8949448 21.5997931,29.6459793 L21.5453793,29.6799103 L21.4812414,29.6768069 C17.7426207,29.4972207 16.7054483,31.6574276 16.6628276,31.7492897 L16.6222759,31.8370138 L16.5285517,31.8628759 C15.1024138,32.2464621 13.6630345,32.4409448 12.2505517,32.4409448" id="Fill-15" fill="#000000"></path>
            <g id="Group-19" transform="translate(0.000000, 0.157862)">
                <mask id="mask-2" fill="white">
                    <use xlink:href="#path-1"></use>
                </mask>
                <g id="Clip-18"></g>
                <path d="M10.4750276,32.7908897 C11.0530966,32.7927517 12.2791655,32.9053034 14.0007517,33.6387517 L14.0400621,33.6567517 C14.0597172,33.6635793 14.0866138,33.6745448 14.1126828,33.6869586 C14.8012345,34.004131 15.6060621,34.1568207 16.5137172,34.136131 L16.5370966,34.1355103 L16.5476483,34.1359241 C16.8170276,34.1290966 17.1118552,34.1048897 17.4048207,34.0635103 C17.4766138,34.0535793 17.5482,34.0430276 17.6195793,34.0318552 C18.1033034,33.3786828 18.7295793,32.9057172 19.4855793,32.6230966 C19.5184759,32.6110966 19.5497172,32.600131 19.5811655,32.5893724 C19.6889586,32.5523379 19.7814414,32.5239931 19.874131,32.4989586 C19.9515103,32.4780621 20.0276483,32.4592345 20.1033724,32.4428897 C20.5244069,32.352269 20.9696483,32.3148207 21.4268897,32.3330276 L21.4583379,32.3344759 C21.5570276,32.3388207 21.6515793,32.3458552 21.7424069,32.354131 L21.8348897,32.3636483 C22.0990966,32.3919931 22.3233724,32.4331655 22.4936483,32.4712345 C22.7814414,32.3286828 23.0791655,32.1706138 23.396131,31.9924759 C24.7273034,31.2443379 25.9717862,30.338131 27.0995793,29.2951655 C27.1972345,28.3920621 27.5055103,27.6224069 28.0188207,27.0027517 C28.7322,26.1410276 29.6417172,25.8073034 30.168269,25.6806828 C31.3378552,23.9137862 32.1497172,22.1793724 32.5827517,20.5198552 L32.600131,20.4008897 C32.3286828,19.8929586 31.8908897,18.8135793 32.1377172,17.4648207 C32.2556483,16.8199241 32.5144759,16.1919931 32.9088207,15.5946828 C32.8744759,15.0257172 32.7830276,13.6984759 32.6228897,12.6824069 C32.5070276,11.9489586 32.4104069,11.7300621 32.3922,11.6936483 L32.3456483,11.5808897 C32.3454414,11.5798552 32.2109586,11.184269 31.9028897,10.6664069 C31.6252345,10.1990276 31.2985448,9.78337241 30.932131,9.43102759 L30.8653034,9.3584069 L27.8963379,5.72716552 C27.7775793,5.58378621 27.6424759,5.43151034 27.498269,5.27882069 L27.4595793,5.23475172 C26.7195103,4.3299931 25.8219931,3.58785517 24.7897862,3.02592414 C24.4020621,3.0339931 23.9969586,3.01868276 23.5833724,2.98061379 C23.5260621,2.97544138 23.4689586,2.96985517 23.4118552,2.96385517 C23.2736483,2.94937241 23.1348207,2.9322 22.9976483,2.91316552 C21.0248897,2.63861379 19.3773724,1.94944138 18.8384069,1.70530345 C17.3950966,1.71957931 15.9871655,1.90723448 14.6499931,2.26330345 C14.2064069,2.38144138 13.7739931,2.51675172 13.3649586,2.66530345 C13.2393724,2.71061379 13.1216483,2.75323448 13.0072345,2.79688966 C12.7556483,3.07744138 12.4895793,3.34702759 12.2139931,3.60068276 C12.1167517,3.69068276 12.0184759,3.77778621 11.9199931,3.8622 C11.5016483,4.22261379 11.0562,4.55447586 10.596269,4.84868276 L10.5346138,4.88778621 C10.4160621,4.96268276 10.2966828,5.03488966 10.1795793,5.10295862 L10.0674414,5.16709655 C9.87523448,5.27613103 9.69026897,5.3742 9.51316552,5.46192414 L9.49123448,5.47247586 C9.37661379,5.52875172 9.26923448,5.57923448 9.16557931,5.6259931 C9.08137241,5.66406207 8.99923448,5.70006207 8.91978621,5.73337241 C8.64461379,5.84923448 8.36571724,5.95247586 8.11288966,6.03192414 L8.09095862,6.03895862 C8.03364828,6.05675172 7.98254483,6.07185517 7.93702759,6.08509655 L7.90744138,6.09357931 C6.7364069,7.17192414 5.6979931,8.42116552 4.81702759,9.81171724 C4.70323448,10.5149586 4.52861379,11.2138552 4.29751034,11.8920621 C4.20378621,12.1666138 4.09930345,12.4432345 3.98633793,12.7138552 C3.36130345,14.2084759 2.61626897,15.2032345 2.31192414,15.5756483 C2.26537241,15.750269 2.22109655,15.926131 2.17826897,16.1028207 C2.1344069,16.2844759 2.09137241,16.4669586 2.05144138,16.6508897 C1.83895862,17.6326138 1.71047586,18.6178552 1.66951034,19.5793034 C1.65606207,19.8991655 1.65192414,20.220269 1.65751034,20.5330966 C1.66164828,20.7627517 1.6722,21.0077172 1.68978621,21.2818552 L1.69495862,21.3660621 C1.6962,21.3840621 1.69723448,21.4020621 1.69847586,21.4198552 C1.71833793,21.4523379 1.7379931,21.4848207 1.75764828,21.5175103 L1.78123448,21.5551655 C1.80006207,21.5843379 1.81847586,21.6137172 1.83606207,21.6437172 L1.84537241,21.6596483 C2.04088966,21.9958552 2.22068276,22.362269 2.39426897,22.7789586 L2.42013103,22.8399931 C2.43854483,22.8828207 2.45695862,22.9254414 2.47392414,22.968269 C2.76751034,23.7093724 3.00151034,24.5290966 3.16888966,25.4046828 C3.28185517,25.9951655 3.33668276,26.4693724 3.36109655,26.7286138 C3.76330345,27.3697862 4.24123448,27.9606828 4.78413103,28.4876483 C5.25709655,28.9467517 5.76978621,29.3497862 6.30792414,29.6855793 L6.36461379,29.7244759 L10.4750276,32.7908897 Z M16.3440621,35.7931655 C15.2766828,35.7931655 14.2879241,35.5902 13.4175103,35.1890276 C13.3899931,35.1780621 13.3643379,35.1673034 13.3393034,35.1559241 C11.4447517,34.3515103 10.3155103,34.4502 10.3047517,34.4514414 L9.98592414,34.4828897 L9.71964828,34.2923379 L5.40171724,31.0711655 C4.77523448,30.6770276 4.17957931,30.2077862 3.63130345,29.6752345 C2.94006207,29.0044759 2.3384069,28.2451655 1.84268276,27.4184069 L1.7382,27.2444069 L1.7264069,27.0418552 C1.7262,27.0370966 1.69144138,26.4904759 1.54330345,25.7156483 C1.39516552,24.9420621 1.19054483,24.2230966 0.935234483,23.5784069 C0.923855172,23.5498552 0.911441379,23.5210966 0.899234483,23.4927517 L0.866544828,23.4155793 C0.720889655,23.0669586 0.573165517,22.7644759 0.414475862,22.4913724 L0.350131034,22.3887517 C0.295510345,22.298131 0.2502,22.2228207 0.201372414,22.1495793 L0.084062069,21.9751655 L0.0648206897,21.7655793 C0.0555103448,21.6673034 0.0490965517,21.5679931 0.0430965517,21.4684759 L0.0381310345,21.3879931 C0.0188896552,21.0877862 0.00730344828,20.8182 0.00275172414,20.5628897 C-0.00345517241,20.2167517 0.00109655172,19.8623379 0.0159931034,19.5089586 C0.0606827586,18.4535793 0.201372414,17.3744069 0.433717241,16.3012345 C0.476131034,16.1040621 0.522475862,15.908131 0.569648276,15.7130276 C0.631096552,15.4597862 0.695027586,15.2086138 0.763924138,14.960131 L0.816682759,14.7699931 L0.949510345,14.624131 C0.956131034,14.6166828 1.78702759,13.6829586 2.45902759,12.0757862 C2.55751034,11.8397172 2.64895862,11.5980621 2.73068276,11.3584759 C2.94854483,10.7187517 3.10868276,10.0583379 3.20675172,9.39523448 L3.23178621,9.22537241 L3.32261379,9.07951034 C4.34095862,7.44130345 5.56061379,5.97730345 6.94785517,4.72888966 L7.11109655,4.58178621 L7.32564828,4.53523448 C7.33268276,4.53378621 7.37633793,4.52344138 7.44833793,4.50316552 L7.48744138,4.4924069 C7.51371724,4.48475172 7.55282069,4.47316552 7.59626897,4.45930345 L7.86461379,5.24261379 L7.61633793,4.45309655 C7.75868276,4.4082 7.98895862,4.32937241 8.27757931,4.20792414 C8.3442,4.17978621 8.41288966,4.14978621 8.48426897,4.11751034 C8.57551034,4.07633793 8.66944138,4.03226897 8.76709655,3.98406207 L8.78861379,3.97371724 C8.93571724,3.90068276 9.08985517,3.81854483 9.24730345,3.72937241 L9.34557931,3.67330345 C9.4479931,3.61371724 9.5499931,3.55206207 9.65344138,3.48647586 L9.68902759,3.46413103 C10.0984759,3.2022 10.4806138,2.91730345 10.8404069,2.60757931 C10.9246138,2.53516552 11.0086138,2.46088966 11.0924069,2.38351034 C11.3733724,2.12488966 11.6425448,1.84744138 11.8928897,1.5582 L12.0226138,1.4082 L12.2063379,1.33330345 C12.3966828,1.25592414 12.5899241,1.18557931 12.7829586,1.11564828 C13.2548897,0.944337931 13.7336483,0.794751724 14.2237862,0.663993103 C15.7560621,0.255993103 17.3696483,0.0490965517 19.020269,0.0490965517 L19.2128897,0.0490965517 L19.3860621,0.134337931 C19.4024069,0.142406897 21.134131,0.98282069 23.2254414,1.27371724 C23.3442,1.29026897 23.4648207,1.30495862 23.5864759,1.31778621 C23.6369586,1.32316552 23.6857862,1.32792414 23.7344069,1.33226897 C24.1556483,1.37095862 24.5640621,1.38151034 24.9466138,1.36495862 L25.1665448,1.35544138 L25.3620621,1.4562 C26.6667517,2.12861379 27.7968207,3.03937241 28.7218552,4.16385517 C28.8830276,4.33537241 29.0350966,4.50730345 29.1743379,4.67530345 L32.1164069,8.27364828 C32.5744759,8.72116552 32.9812345,9.24130345 33.3255103,9.82061379 C33.6650276,10.3912345 33.8417172,10.8480621 33.8990276,11.0088207 C34.0395103,11.3142 34.1539241,11.7670966 34.2577862,12.4244069 C34.4804069,13.8364759 34.5737172,15.7136483 34.5774414,15.7928897 L34.5917172,16.0860621 L34.418131,16.3227517 C34.074269,16.7907517 33.8549586,17.2753034 33.7657862,17.7625448 C33.5576483,18.9000621 34.1127517,19.7185448 34.1365448,19.7528897 L34.3219241,20.0204069 L34.1967517,20.8899931 C33.6970966,22.8310966 32.7418552,24.8460621 31.3577172,26.8784069 L31.1510276,27.2139931 L30.7380621,27.2547517 C30.7368207,27.2549586 29.8722,27.3596483 29.2935103,28.0585448 C28.9500621,28.4733724 28.7590966,29.0319931 28.7259931,29.7190966 L28.710269,30.0495103 L28.4706828,30.2779241 C27.1837862,31.5066828 25.7491655,32.5688897 24.2071655,33.4353724 C23.7569586,33.6884069 23.3406828,33.9046138 22.9343379,34.0968207 L22.6372345,34.2368897 L22.3250276,34.1355103 C22.320269,34.1338552 22.290269,34.1249586 22.2428897,34.1127517 C22.1423379,34.0868897 21.9310966,34.0386828 21.6569586,34.0090966 L21.5862,34.0020621 C21.5237172,33.9960621 21.4550276,33.9913034 21.3836483,33.9879931 L21.3939931,33.1599931 L21.3613034,33.9869586 C21.042269,33.9739241 20.7377172,33.9993724 20.4536483,34.0606138 C20.4050276,34.0711655 20.3559931,34.0831655 20.3067517,34.0966138 C20.2498552,34.112131 20.1917172,34.1299241 20.1335793,34.1495793 L20.0636483,34.1742 C19.5342,34.3719931 19.1235103,34.7160621 18.8088207,35.2252345 L18.6159931,35.5376483 L18.222269,35.6096483 C18.0282,35.6437862 17.8318552,35.6750276 17.6346828,35.7025448 C17.276131,35.7530276 16.914269,35.7828207 16.5596483,35.7910966 L16.5354414,35.7917172 L16.5240621,35.7913034 C16.4638552,35.7925448 16.4038552,35.7931655 16.3440621,35.7931655 Z" id="Fill-17" fill="#000000" mask="url(#mask-2)"></path>
            </g>
            <path d="M17.6693379,17.3058207 C17.4078207,17.1860276 17.1109241,17.3842345 17.1210621,17.6716138 C17.1446483,18.3357517 17.3567172,19.5562345 17.5923724,19.9094069 C17.9536138,20.4510621 18.6860276,20.5973379 19.2278897,20.2358897 C19.7695448,19.8744414 19.9158207,19.1422345 19.5543724,18.6003724 C19.3189241,18.2474069 18.2736828,17.5826483 17.6693379,17.3058207" id="Fill-20" fill="#B3FFDE"></path>
            <path d="M17.5084966,17.4771724 C17.4613241,17.4771724 17.4253241,17.4968276 17.4081517,17.508 C17.3829103,17.5247586 17.3245655,17.5737931 17.327669,17.6642069 C17.3518759,18.3446897 17.5680828,19.5002069 17.7644276,19.7946207 C17.9086345,20.0106207 18.1281517,20.1575172 18.3830483,20.2084138 C18.637531,20.2593103 18.8969793,20.2077931 19.1131862,20.0637931 C19.5590483,19.766069 19.6798759,19.1613103 19.3823586,18.7150345 C19.1856,18.4206207 18.2022207,17.7773793 17.5831862,17.493931 L17.5829793,17.493931 C17.5562897,17.4815172 17.5310483,17.4771724 17.5084966,17.4771724 M18.5762897,20.6414483 C18.4850483,20.6414483 18.3931862,20.6325517 18.3019448,20.6141379 C17.9386345,20.541931 17.6256,20.3321379 17.4201517,20.0242759 C17.1518069,19.6218621 16.9378759,18.3461379 16.9142897,17.6788966 C16.9070483,17.4715862 17.0057379,17.2791724 17.1784966,17.1637241 C17.3514621,17.0486897 17.5666345,17.0315172 17.755531,17.1177931 C18.3621517,17.3956552 19.4578759,18.0829655 19.7266345,18.4855862 C20.1507724,19.1213793 19.9784276,19.9837241 19.3426345,20.408069 C19.1121517,20.5617931 18.8473241,20.6414483 18.5762897,20.6414483" id="Fill-22" fill="#000000"></path>
            <path d="M15.5840069,11.1595448 C14.8844897,11.1580966 14.3165586,11.7241655 14.3153172,12.4234759 C14.3144897,12.879269 14.8499379,14.0966483 15.2235931,14.7047172 C15.3851793,14.9676828 15.7687655,14.9685103 15.9313862,14.7059586 C16.3069034,14.0993379 16.8469034,12.8838207 16.847731,12.4282345 C16.8491793,11.7287172 16.2833172,11.1607862 15.5840069,11.1595448" id="Fill-24" fill="#B3FFDE"></path>
            <path d="M15.5813793,11.3664414 C15.2991724,11.3664414 15.033931,11.4760966 14.8338621,11.6753379 C14.6333793,11.8749931 14.5226897,12.1408552 14.5222759,12.4238897 C14.5216552,12.8062345 15.0161379,13.9718897 15.3997241,14.5963034 C15.4547586,14.6856828 15.5424828,14.6954069 15.5774483,14.6956138 L15.5776552,14.6956138 C15.6130345,14.6956138 15.7003448,14.6858897 15.7553793,14.5969241 C16.1414483,13.9735448 16.6402759,12.8097517 16.6408966,12.4278207 C16.6415172,12.1447862 16.5318621,11.8785103 16.3322069,11.6780276 C16.1323448,11.4775448 15.8666897,11.3668552 15.5836552,11.3664414 L15.5813793,11.3664414 Z M15.5778621,15.1094069 L15.5768276,15.1094069 C15.3589655,15.1089931 15.1611724,14.9983034 15.0473793,14.8129241 C14.6728966,14.2038207 14.1074483,12.9398897 14.1084828,12.4230621 C14.1091034,12.0295448 14.2630345,11.6598207 14.541931,11.3821655 C14.8197931,11.105131 15.1891034,10.9526483 15.5813793,10.9526483 L15.5844828,10.9526483 C15.9777931,10.953269 16.3475172,11.1072 16.6251724,11.3860966 C16.9030345,11.6647862 17.0555172,12.0349241 17.0546897,12.4286483 C17.0536552,12.9448552 16.4836552,14.2067172 16.1073103,14.8147862 C15.9928966,14.9993379 15.7951034,15.1094069 15.5778621,15.1094069 Z" id="Fill-26" fill="#000000"></path>
            <path d="M13.4875655,17.217331 C12.6486,17.3725034 11.1388759,17.8721586 10.7350138,18.2379517 C10.1151517,18.7990552 10.0675655,19.7563655 10.6288759,20.3764345 C11.1899793,20.9962966 12.1472897,21.0436759 12.7673586,20.4823655 C13.1712207,20.1167793 13.8179793,18.6639517 14.0554966,17.8446414 C14.1583241,17.4900207 13.850669,17.1500897 13.4875655,17.217331" id="Fill-28" fill="#B3FFDE"></path>
            <path d="M13.5800897,17.4157448 C13.5620897,17.4157448 13.5436759,17.4174 13.5252621,17.4207103 L13.5250552,17.4207103 C12.6585724,17.5810552 11.2171241,18.0805034 10.8738828,18.3912621 C10.6150552,18.6256759 10.4629862,18.9465724 10.4456069,19.2954 C10.4284345,19.6442276 10.5478138,19.9787793 10.7822276,20.2376069 C11.0164345,20.4964345 11.3375379,20.6482966 11.6863655,20.6656759 C12.0337448,20.6826414 12.3695379,20.563469 12.6283655,20.3290552 C12.9716069,20.0182966 13.6111241,18.6337448 13.8569172,17.7871241 C13.885469,17.6884345 13.8620897,17.5880897 13.7927793,17.5115379 C13.7362966,17.4492621 13.6609862,17.4157448 13.5800897,17.4157448 M11.7529862,21.0811241 C11.7238138,21.0811241 11.6950552,21.0805034 11.6656759,21.0788483 C11.2065724,21.0562966 10.7836759,20.8560207 10.4754,20.5150552 C10.1669172,20.1745034 10.009469,19.7338138 10.0324345,19.2747103 C10.0551931,18.8158138 10.255469,18.3931241 10.5962276,18.0844345 C11.0491241,17.6743655 12.6136759,17.1687103 13.4499517,17.0139517 C13.6901586,16.9680207 13.9342966,17.0511931 14.0996069,17.2338828 C14.2649172,17.4163655 14.3226414,17.6662966 14.2541586,17.9023655 C14.0172621,18.7191931 13.3589172,20.2258138 12.9060207,20.6356759 C12.5869862,20.9247103 12.1802276,21.0811241 11.7529862,21.0811241" id="Fill-30" fill="#000000"></path>
        </g>
    </g>
</svg>