<?xml version="1.0" encoding="UTF-8"?>
<svg width="36px" height="36px" viewBox="0 0 36 36" version="1.1" xmlns="http://www.w3.org/2000/svg" xmlns:xlink="http://www.w3.org/1999/xlink">
    <defs>
        <polygon id="path-1" points="5.33342612e-05 0.000620689655 34.5844138 0.000620689655 34.5844138 35.7930828 5.33342612e-05 35.7930828"></polygon>
    </defs>
    <g id="icon-pickle-5" stroke="none" stroke-width="1" fill="none" fill-rule="evenodd">
        <g transform="translate(1.000000, 0.000000)">
            <g id="Group-3" transform="translate(0.000000, 0.206276)">
                <mask id="mask-2" fill="white">
                    <use xlink:href="#path-1"></use>
                </mask>
                <g id="Clip-2"></g>
                <path d="M14.4475862,33.8197034 C15.3026897,34.1329448 16.3338621,34.2177724 17.4316552,34.0638414 C17.5034483,34.0539103 17.5750345,34.0431517 17.6468276,34.0319793 C19.0106897,32.1961862 21.252,32.1641172 22.5343448,32.4659793 C24.1973793,31.6477034 25.7445517,30.580531 27.1406897,29.2882552 C27.3984828,26.9108069 29.0683448,25.9272207 30.2164138,25.6626 C31.3233103,23.9755655 32.1161379,22.1838414 32.5768966,20.3279793 C31.4931724,18.2091517 32.2028276,16.4023241 32.9073103,15.5060483 C32.8688276,14.4937034 32.7897931,13.2819103 32.5694483,12.2803241 C32.4165517,11.5868069 32.0927586,10.9218414 31.6071724,10.3044621 L28.4642069,6.4268069 L28.4277931,6.45225517 L27.93,5.76184138 C27.5155862,5.16991034 27.0556552,4.64770345 26.5545517,4.19687586 C26.034,3.72928966 25.4536552,3.32046207 24.8269655,2.97928966 C22.1075172,3.0308069 19.5647586,1.97397931 18.8662759,1.6566 C16.7894483,1.67708276 14.8270345,2.04391034 13.0276552,2.7483931 C12.5416552,3.29025517 11.9997931,3.79094483 11.4146897,4.23866897 C9.8817931,5.4123931 8.46310345,5.89611724 7.9202069,6.05066897 C6.74627586,7.13149655 5.70517241,8.38404828 4.82234483,9.77832414 C4.81096552,9.84184138 4.79917241,9.90494483 4.78758621,9.96804828 L4.77268966,10.0472897 C4.65724138,10.6737724 4.49482759,11.2930138 4.29,11.8878414 C3.624,13.8270828 2.67,15.1110828 2.316,15.5463931 C2.23862069,15.8403931 2.16972414,16.1368759 2.11117241,16.3954966 C2.10041379,16.4420483 2.08903448,16.4869448 2.07744828,16.5316345 C2.06917241,16.5632897 2.06068966,16.5947379 2.05386207,16.6270138 C1.95724138,17.0732897 1.87696552,17.5375655 1.80868966,18.044669 C1.65248276,19.2032897 1.61544828,20.3286 1.6977931,21.3928759 C1.84924138,21.632669 1.99365517,21.8898414 2.12793103,22.1598414 C2.40413793,22.714531 2.64517241,23.3395655 2.8437931,24.0169448 C3.19675862,25.220669 3.32503448,26.2779103 3.3662069,26.7179793 C3.71689655,27.2770138 4.12406897,27.7981862 4.57862069,28.2692897 C5.10144828,28.8113586 5.68655172,29.2857724 6.31737931,29.6792897 L6.37406897,29.7181862 L10.491931,32.7901862 C10.9146207,32.792669 11.6873793,32.8543241 12.7450345,33.1731517 L12.8008966,33.1921862 L14.4475862,33.8197034 Z M16.3911724,35.7930828 C15.7882759,35.7930828 15.2073103,35.7297724 14.6608966,35.6048069 L14.6443448,35.6497034 L13.952069,35.4003931 C13.9228966,35.3900483 13.893931,35.3797034 13.8651724,35.3689448 L13.8422069,35.3602552 L12.2395862,34.7497034 C11.0263448,34.3876345 10.3255862,34.4494966 10.3187586,34.4501172 L10.0007586,34.4807379 L9.73531034,34.2906 L5.41117241,31.0650828 C4.67689655,30.6032897 3.9962069,30.0494276 3.38751724,29.4186 C2.80241379,28.8121862 2.28434483,28.1354276 1.8477931,27.4077724 L1.74331034,27.2335655 L1.73131034,27.0308069 C1.73068966,27.0198414 1.65537931,25.8459103 1.25565517,24.4828759 C1.08413793,23.8988069 0.879103448,23.3654276 0.646137931,22.8972207 C0.508551724,22.6206 0.36,22.3636345 0.204413793,22.132531 L0.0862758621,21.9570828 L0.0666206897,21.7464621 C-0.0484137931,20.4988759 -0.0142758621,19.1790828 0.168413793,17.8237034 C0.242482759,17.2731517 0.330206897,16.7664621 0.436344828,16.2752897 C0.448344828,16.2202552 0.461793103,16.1677034 0.475448276,16.1153586 C0.482896552,16.0866 0.490551724,16.0578414 0.496965517,16.0288759 C0.571448276,15.7015655 0.661655172,15.3144621 0.767172414,14.9327379 L0.819517241,14.7434276 L0.951310345,14.5979793 C0.960413793,14.5878414 2.02696552,13.3814276 2.72482759,11.3499103 C2.90296552,10.8322552 3.04427586,10.2928759 3.14503448,9.74687586 L3.16034483,9.66391034 C3.17917241,9.56377241 3.1982069,9.46322069 3.21351724,9.35935862 L3.23855172,9.18928966 L3.32937931,9.04301379 C4.34503448,7.40956552 5.56034483,5.94928966 6.9422069,4.70294483 L7.09882759,4.54611724 L7.3377931,4.49315172 C7.34917241,4.49046207 8.80344828,4.15322069 10.4087586,2.92446207 C10.9595172,2.50301379 11.4651724,2.02756552 11.9114483,1.51156552 L12.0415862,1.36115172 L12.225931,1.28625517 C14.3246897,0.43322069 16.6202069,0.0006 19.0485517,0.0006 L19.2415862,0.0006 L19.4147586,0.0860482759 C19.4416552,0.0992896552 22.2091034,1.44163448 24.984,1.31853103 L25.2035172,1.3088069 L25.3992414,1.40977241 C26.2231034,1.83411724 26.984069,2.35777241 27.6608276,2.96584138 C28.0723448,3.33556552 28.4590345,3.7448069 28.8167586,4.18777241 L28.8496552,4.16625517 L29.2874483,4.81363448 L32.9006897,9.27184138 C33.5491034,10.0961172 33.9788276,10.9853586 34.1857241,11.9242552 C34.4598621,13.1689448 34.5366207,14.638531 34.5728276,15.7799793 L34.5844138,16.1437034 L34.328069,16.3940483 C34.1826207,16.5430138 33.0208966,17.8278414 34.17,19.7923241 L34.3353103,20.0749448 L34.2622759,20.3941862 C33.7442069,22.6675655 32.7775862,24.8513586 31.3897241,26.8853586 L31.17,27.2072897 L30.7818621,27.2430828 C30.5935862,27.2639793 28.8728276,27.5184621 28.7671034,29.7119793 L28.7511724,30.0421862 L28.512,30.2708069 C26.8526897,31.8546 24.9871034,33.1410828 22.9675862,34.094669 L22.6708966,34.2347379 L22.3586897,34.1335655 C22.2649655,34.1043931 19.9605517,33.404669 18.8358621,35.2253586 L18.6411724,35.540669 L18.2762069,35.6054276 C18.0717931,35.6418414 17.8665517,35.6741172 17.6613103,35.7030828 C17.2307586,35.7632897 16.8055862,35.7930828 16.3911724,35.7930828 Z" id="Fill-1" fill="#000000" mask="url(#mask-2)"></path>
            </g>
            <path d="M33.7457379,16.0124483 C33.7033241,14.6777586 33.6162207,13.3925172 33.377669,12.3085862 C33.1912552,11.4632069 32.7931862,10.6798966 32.2579448,9.9992069 L28.6209103,5.51224138 C28.6186345,5.50831034 28.6236,5.51596552 28.6209103,5.51224138 C28.1820828,4.88058621 27.6766345,4.2992069 27.107669,3.78775862 C26.4880138,3.231 25.7920138,2.74934483 25.0200828,2.35168966 C21.9880138,2.48451724 19.0486345,1.03437931 19.0486345,1.03437931 C16.751669,1.03437931 14.5581517,1.43803448 12.5373931,2.2592069 C12.0044276,2.87534483 11.4503586,3.37562069 10.9118069,3.78775862 C9.12070345,5.15906897 7.51332414,5.50810345 7.51332414,5.50810345 L7.51208276,5.50934483 C6.18691034,6.70231034 5.01484138,8.10589655 4.03228966,9.68637931 C4.01118621,9.82893103 3.98428966,9.96527586 3.95884138,10.1032759 C3.84401379,10.7262414 3.6878069,11.3012069 3.5076,11.825069 C2.73877241,14.0628621 1.56484138,15.3596897 1.56484138,15.3596897 C1.46863448,15.707069 1.38484138,16.0623103 1.30394483,16.419 C1.28573793,16.4988621 1.26277241,16.5762414 1.24518621,16.6565172 C1.13718621,17.1563793 1.05442759,17.6506552 0.988634483,18.1405862 C0.814427586,19.4318276 0.780703448,20.6856207 0.890772414,21.8765172 C1.07594483,22.1512759 1.24042759,22.4398966 1.38691034,22.7345172 C1.67077241,23.3045172 1.88553103,23.8962414 2.0498069,24.4563103 C2.48366897,25.9362414 2.55753103,27.1883793 2.55753103,27.1883793 C2.96387586,27.8657586 3.44077241,28.4883103 3.98284138,29.0502414 C4.54477241,29.6324483 5.17663448,30.1492759 5.87925517,30.5876897 L10.2300828,33.8336897 C10.2300828,33.8336897 11.057669,33.735 12.5061517,34.1719655 L14.1513931,34.7988621 C14.1563586,34.8007241 14.1464276,34.7967931 14.1513931,34.7988621 C15.2173241,35.1919655 16.4202207,35.2472069 17.5461517,35.0897586 C17.741669,35.0622414 17.9369793,35.0314138 18.131669,34.9968621 C19.6225655,32.5823793 22.6140828,33.5525172 22.6140828,33.5525172 C24.5518759,32.6376207 26.3622207,31.3848621 27.9404276,29.8784483 C28.085669,26.8662414 30.7062207,26.6252069 30.7062207,26.6252069 C31.9920828,24.7405862 32.9487724,22.6387241 33.455669,20.4164483 C31.9219448,17.7942414 33.7457379,16.0124483 33.7457379,16.0124483" id="Fill-4" fill="#05D384"></path>
            <path d="M14.3073724,34.4155241 C15.2168897,34.7502828 16.3204759,34.8431793 17.4888207,34.6799379 C17.6206138,34.6613172 17.7519931,34.6414552 17.8833724,34.6195241 C19.1603379,32.7489724 21.4095103,32.7901448 22.5795103,33.1104207 C24.3774414,32.243731 26.0439931,31.0938 27.5377862,29.6898 C27.7484069,27.0200069 29.7983379,26.3838 30.4620621,26.2474552 C31.6784069,24.4302828 32.5368207,22.4916621 33.0159931,20.4798 C31.7272345,18.1249034 32.9131655,16.3662828 33.3267517,15.8629034 C33.290131,14.8011103 33.2131655,13.4862828 32.9735793,12.3973862 C32.8072345,11.6426276 32.4569586,10.9215931 31.9324759,10.2549724 L28.3018552,5.77545517 C28.2960621,5.76862759 28.2908897,5.7618 28.2857172,5.75455862 C28.2828207,5.75062759 28.2799241,5.74669655 28.2772345,5.74276552 C27.8460621,5.12373103 27.3608897,4.57173103 26.8310276,4.09545517 C26.2593724,3.58173103 25.6188207,3.13586897 24.9259241,2.76924828 C22.1249586,2.85469655 19.4797862,1.6938 18.9553034,1.44842069 C16.7578552,1.45917931 14.682269,1.84855862 12.7839931,2.6060069 C12.2986138,3.15676552 11.7538552,3.66448966 11.1633724,4.11635172 C9.57088966,5.33538621 8.12323448,5.77752414 7.71378621,5.88511034 C6.46330345,7.02345517 5.35847586,8.35111034 4.42806207,9.83373103 C4.41357931,9.92311034 4.39723448,10.0106276 4.38068276,10.0983517 L4.36578621,10.1784207 C4.25385517,10.7848345 4.09661379,11.3842138 3.89882069,11.9595931 C3.20861379,13.9687655 2.20909655,15.2391103 1.93930345,15.5591793 C1.85075172,15.8879379 1.77275172,16.2222828 1.70757931,16.5104897 C1.69806207,16.5522828 1.68751034,16.5930414 1.67675172,16.6340069 C1.66723448,16.6706276 1.65751034,16.7074552 1.64944138,16.7449034 C1.55054483,17.2029724 1.4682,17.6778 1.39868276,18.1956621 C1.23357931,19.4211103 1.1982,20.6113862 1.29378621,21.7354552 C1.45764828,21.9870414 1.61344138,22.2607655 1.75744138,22.5502138 C2.02288966,23.0835931 2.25482069,23.6856621 2.44682069,24.3396621 C2.82151034,25.617869 2.93509655,26.7202138 2.96282069,27.0586966 C3.3402,27.6744207 3.78337241,28.2473172 4.28075172,28.7629034 C4.82737241,29.3291793 5.43895862,29.8251103 6.09813103,30.2368345 C6.10785517,30.2428345 6.11737241,30.2492483 6.12668276,30.2560759 L10.3568897,33.411869 C10.6893724,33.4035931 11.4799241,33.4300759 12.6255103,33.7755931 C12.6350276,33.7784897 12.6443379,33.7818 12.6534414,33.7851103 L14.2912345,34.4093172 C14.2937172,34.4101448 14.2959931,34.4111793 14.298269,34.4118 L14.3073724,34.4155241 Z M16.3904069,35.585731 C15.5338552,35.585731 14.7255103,35.4516621 14.0082,35.1870414 C14.0044759,35.1858 14.0007517,35.1841448 13.9970276,35.1826966 L12.3726828,34.563869 C11.0514414,34.1676621 10.2848897,34.2446276 10.2768207,34.2448345 C10.1727517,34.2564207 10.0664069,34.227869 9.98261379,34.1653862 L5.64544138,30.9295241 C4.93413103,30.4840759 4.27475172,29.9484207 3.68509655,29.3374552 C3.12192414,28.7535931 2.62288966,28.1020759 2.20268276,27.4011103 C2.16833793,27.3440069 2.14826897,27.2792483 2.14454483,27.2128345 C2.14371724,27.2008345 2.06716552,25.985731 1.65275172,24.5726276 C1.47461379,23.9651793 1.26026897,23.4088345 1.01654483,22.9191103 C0.871096552,22.6265586 0.713234483,22.3536621 0.547510345,22.1076621 C0.50882069,22.0499379 0.485027586,21.983731 0.47882069,21.9146276 C0.366268966,20.6982828 0.399786207,19.4099379 0.578544828,18.0851793 C0.651165517,17.5455931 0.73682069,17.0494552 0.840682759,16.5690414 C0.851441379,16.5200069 0.863648276,16.4728345 0.875855172,16.425869 C0.884337931,16.3929724 0.893027586,16.3600759 0.900475862,16.3269724 C0.973924138,16.0040069 1.06268276,15.6226966 1.16592414,15.2492483 C1.18309655,15.1869724 1.21475172,15.1296621 1.2582,15.0820759 C1.26875172,15.069869 2.38744138,13.8121448 3.11613103,11.6906276 C3.30088966,11.1535241 3.44757931,10.5942828 3.55206207,10.0282138 L3.56737241,9.94607586 C3.58702759,9.84076552 3.60668276,9.73524828 3.62282069,9.62621379 C3.63109655,9.56993793 3.65075172,9.51593793 3.68095862,9.46793793 C4.67964828,7.86117931 5.87509655,6.42635172 7.2342,5.20276552 C7.2879931,5.15393793 7.35461379,5.11917931 7.42537241,5.10386897 C7.44006207,5.10076552 8.97254483,4.75131724 10.6602,3.45924828 C11.2333034,3.02062759 11.7596483,2.52593793 12.2245448,1.98862759 C12.2673724,1.93897241 12.3209586,1.90069655 12.3815793,1.87607586 C14.4308897,1.04290345 16.6738552,0.620627586 19.0486138,0.620627586 C19.112131,0.620627586 19.1746138,0.635317241 19.2315103,0.663248276 C19.2598552,0.677110345 22.1170966,2.06228276 25.0018552,1.93814483 C25.0734414,1.93462759 25.1456483,1.95055862 25.2095793,1.98366207 C26.0019931,2.39207586 26.7337862,2.89524828 27.384269,3.48014483 C27.9610966,3.99842069 28.4886828,4.59862759 28.9519241,5.2635931 L32.5792345,9.73855862 C33.1850276,10.5088345 33.588269,11.3420069 33.7817172,12.2194552 C34.0484069,13.4310414 34.1235103,14.8760069 34.1593034,15.9992483 C34.1630276,16.1146966 34.1183379,16.2264207 34.0357862,16.3075241 C33.9660621,16.3772483 32.4714414,17.9140759 33.8127517,20.2075241 C33.8659241,20.2983517 33.882269,20.4059379 33.8590966,20.5083517 C33.3522,22.7310414 32.4064759,24.8676621 31.0479931,26.8584207 C30.978269,26.9604207 30.8669586,27.0258 30.7440621,27.0371793 C30.6534414,27.0464897 28.4791655,27.2958 28.3539931,29.8983517 C28.3486138,30.0042828 28.3030966,30.1044207 28.226131,30.1776621 C26.5990966,31.7306276 24.7703379,32.9920759 22.7907517,33.9268345 C22.6957862,33.9715241 22.5867517,33.9787655 22.4864069,33.9460759 C22.3775793,33.9113172 19.7826828,33.1110414 18.4839931,35.2141448 C18.4219241,35.3144897 18.320131,35.3838 18.2040621,35.4042828 C18.0044069,35.4396621 17.804131,35.4715241 17.6038552,35.4994552 C17.1917172,35.5571793 16.7857862,35.585731 16.3904069,35.585731 Z" id="Fill-6" fill="#000000"></path>
            <path d="M13.6161517,34.7961931 C11.5244276,33.9052966 10.2671172,34.0372966 10.2542897,34.0391586 L10.1725655,34.0486759 L10.1063586,33.9994345 L5.75553103,30.7536414 L6.00277241,30.4217793 L10.2913241,33.6212276 C10.6198759,33.6011586 11.8624966,33.5997103 13.7781517,34.4155034 L13.6161517,34.7961931 Z" id="Fill-8" fill="#000000"></path>
            <path d="M1.51392414,22.5276621 L28.1007517,22.5276621 C28.7605448,21.4098 29.2947517,20.2400069 29.6905448,19.0476621 C29.5928897,18.8202828 29.5169586,18.5856621 29.4642,18.3475241 L1.17047586,18.3475241 C1.02088966,19.5435931 0.994406897,20.705731 1.09206207,21.8053862 C1.23978621,22.0282138 1.38109655,22.2704897 1.51392414,22.5276621 Z M28.3357862,22.9414552 L1.25882069,22.9414552 L1.20151034,22.8266276 C1.05171724,22.5251793 0.889303448,22.2446276 0.719234483,21.9920069 L0.689648276,21.9481448 L0.684682759,21.8953862 C0.573786207,20.6947655 0.606889655,19.4219379 0.78357931,18.1129034 L0.807786207,17.933731 L29.8080621,17.933731 L29.8378552,18.1052483 C29.888131,18.3940759 29.976269,18.6785586 30.1004069,18.9510414 L30.1337172,19.0242828 L30.1086828,19.1010414 C29.6895103,20.3846276 29.1130966,21.6429724 28.3962,22.8409034 L28.3357862,22.9414552 Z" id="Fill-10" fill="#000000"></path>
            <path d="M1.2452069,16.6565793 C1.1372069,17.1564414 1.05444828,17.6507172 0.988655172,18.1406483 L29.6341034,18.1406483 C29.5252759,17.5156138 29.5960345,16.9307172 29.7425172,16.4190621 L1.30396552,16.4190621 C1.28575862,16.4989241 1.2627931,16.5760966 1.2452069,16.6565793" id="Fill-12" fill="#00D89A"></path>
            <path d="M1.2264,17.9337103 L29.3961931,17.9337103 C29.350469,17.5077103 29.3773655,17.0695034 29.476469,16.6259172 L1.46515862,16.6259172 C1.45895172,16.6505379 1.45295172,16.6753655 1.44736552,16.7004 C1.36212414,17.094331 1.28950345,17.4998483 1.2264,17.9337103 Z M29.8801241,18.3475034 L0.751986207,18.3475034 L0.783434483,18.1130897 C0.855434483,17.578469 0.940262069,17.0877103 1.04288276,16.6128828 L1.04308966,16.6122621 C1.05302069,16.5671586 1.0644,16.5228828 1.07577931,16.4786069 C1.08488276,16.4436414 1.0941931,16.4086759 1.10205517,16.3730897 L1.13888276,16.2121241 L30.0168828,16.2121241 L29.9413655,16.4759172 C29.7816414,17.0341241 29.7468828,17.5824 29.8379172,18.1050207 L29.8801241,18.3475034 Z" id="Fill-14" fill="#000000"></path>
            <path d="M4.07143448,28.8432621 L22.1736414,28.8432621 C22.9739172,28.3057448 23.6657793,27.7614 24.3415034,27.1378138 C24.4035724,26.8254 24.7012966,25.6038828 25.6884,24.6631241 L2.32315862,24.6631241 C2.65295172,25.8805034 2.74274483,26.8858138 2.76053793,27.1239517 C3.13605517,27.7436069 3.57653793,28.321469 4.07143448,28.8432621 Z M22.2992276,29.2570552 L3.89495172,29.2570552 L3.83412414,29.1937448 C3.28150345,28.6210552 2.7921931,27.9821586 2.38005517,27.2946414 L2.35398621,27.2509862 L2.35108966,27.2002966 C2.35026207,27.1880897 2.27288276,25.9522966 1.85122759,24.5143655 L1.77364138,24.249331 L26.9179862,24.249331 L26.3844,24.6252621 C25.0213655,25.5856759 24.7395724,27.2586414 24.7368828,27.2754 L24.7257103,27.3457448 L24.6733655,27.3943655 C23.9506759,28.0665724 23.2128828,28.6475379 22.3513655,29.2222966 L22.2992276,29.2570552 Z" id="Fill-16" fill="#000000"></path>
            <path d="M5.87915172,30.587731 C7.1108069,30.1880069 8.07018621,30.3967655 8.77322069,30.771869 L17.2501862,30.771869 C17.9693586,30.1280069 19.2833586,29.4061448 21.5226,29.5108345 C21.7704621,29.3573172 22.0054966,29.2042138 22.2366,29.0500759 L3.98294483,29.0500759 C4.54508276,29.6324897 5.17653103,30.1493172 5.87915172,30.587731" id="Fill-18" fill="#00D89A"></path>
            <path d="M8.8242,30.5649103 L17.172269,30.5649103 C17.9144069,29.9247724 19.2459931,29.2140828 21.4676483,29.3013931 C21.4912345,29.2867034 21.5146138,29.2720138 21.5384069,29.2571172 L4.48764828,29.2571172 C4.92854483,29.6698759 5.40461379,30.0402207 5.9084069,30.3617379 C6.96171724,30.0414621 7.94178621,30.109531 8.8242,30.5649103 Z M17.3290966,30.9787034 L8.72157931,30.9787034 L8.67585517,30.9544966 C7.85882069,30.5185655 6.93978621,30.4614621 5.94295862,30.7846345 L5.85130345,30.8142207 L5.76957931,30.7633241 C5.06757931,30.3251172 4.41626897,29.7971172 3.83406207,29.1938069 L3.49557931,28.8433241 L22.9190276,28.8433241 L22.3515103,29.2223586 C22.0928897,29.3949103 21.8574414,29.5467724 21.6317172,29.6866345 L21.5773034,29.7205655 L21.5129586,29.7174621 C19.3320621,29.6164966 18.0666828,30.3187034 17.388269,30.9259448 L17.3290966,30.9787034 Z" id="Fill-20" fill="#000000"></path>
            <path d="M10.3557103,31.9461103 C10.5717103,31.9816966 10.8259862,32.0359034 11.0932966,32.0925931 C11.6461241,32.2101103 12.2730207,32.3433517 12.7118483,32.3433517 C13.806331,32.3433517 14.5542621,32.2908 15.3702621,32.0139724 C15.9454345,31.8192828 16.3952276,31.5283862 16.7457103,31.1249379 C16.7711586,31.0953517 16.8075724,31.0370069 16.8433655,30.9786621 L9.46357241,30.9786621 C9.94688276,31.3612138 10.2412966,31.7700414 10.3557103,31.9461103 M12.7118483,32.7571448 C12.2295724,32.7571448 11.5801241,32.6191448 11.0072276,32.4972828 C10.7059862,32.4331448 10.4215034,32.3729379 10.200331,32.3406621 L10.1008138,32.3263862 L10.050331,32.2386621 C10.0457793,32.2305931 9.5844,31.4385931 8.67591724,30.9544552 L7.94515862,30.564869 L17.7919862,30.564869 L17.3879172,30.9259034 C17.3287448,30.9790759 17.262331,31.0874897 17.2035724,31.1830759 C17.154331,31.2631448 17.1079862,31.3386621 17.058331,31.3961793 C16.6581931,31.8565241 16.1496414,32.1869379 15.5032966,32.4060414 C14.6370207,32.6998345 13.8239172,32.7571448 12.7118483,32.7571448" id="Fill-22" fill="#000000"></path>
            <path d="M2.04974483,24.4562069 L26.2651241,24.4562069 C26.5998828,24.2203448 26.9965034,24.0233793 27.4669862,23.895931 C27.7314,23.5177241 27.9817448,23.1302069 28.2184345,22.7346207 L1.38684828,22.7346207 C1.67071034,23.3046207 1.88546897,23.8963448 2.04974483,24.4562069" id="Fill-24" fill="#00D89A"></path>
            <path d="M2.20371724,24.2493103 L26.2004069,24.2493103 C26.5453034,24.0151034 26.9278552,23.8363448 27.3395793,23.7167586 C27.5137862,23.4655862 27.6844759,23.205931 27.8495793,22.9415172 L1.7142,22.9415172 C1.89647586,23.3443448 2.06054483,23.7823448 2.20371724,24.2493103 Z M26.3305448,24.6631034 L1.89482069,24.6631034 L1.85116552,24.5143448 C1.66951034,23.8953103 1.45102759,23.3275862 1.20151034,22.8268966 L1.05275172,22.5277241 L28.5834414,22.5277241 L28.3962,22.8407586 C28.1551655,23.2435862 27.8994414,23.6385517 27.6364759,24.0144828 L27.5934414,24.075931 L27.5210276,24.0955862 C27.1062,24.2081379 26.7238552,24.3862759 26.3843379,24.6252414 L26.3305448,24.6631034 Z" id="Fill-26" fill="#000000"></path>
            <path d="M4.2074069,9.89646207 L30.2337517,9.89646207 C29.8960966,8.30956552 29.3178207,6.90597931 28.5121655,5.71922069 L7.59161379,5.71632414 C6.31030345,6.87991034 5.17982069,8.23963448 4.23037241,9.75970345 C4.22333793,9.80584138 4.21547586,9.85115172 4.2074069,9.89646207 Z M30.7379586,10.3102552 L3.71044138,10.3102552 L3.77106207,9.98232414 C3.79092414,9.87494483 3.8112,9.76735862 3.82775172,9.65584138 L3.83395862,9.61363448 L3.85671724,9.57701379 C4.84568276,7.9863931 6.02913103,6.56604828 7.37375172,5.35570345 L7.43271724,5.30253103 L28.7289931,5.30542759 L28.7908552,5.39418621 C29.7034759,6.70756552 30.3423724,8.27873793 30.6899586,10.0638414 L30.7379586,10.3102552 Z" id="Fill-28" fill="#000000"></path>
            <path d="M27.107669,3.78775862 L10.9118069,3.78775862 C9.12049655,5.15906897 7.51332414,5.50810345 7.51332414,5.50810345 L7.51208276,5.50934483 L28.6209103,5.51224138 C28.1820828,4.88058621 27.6768414,4.2992069 27.107669,3.78775862" id="Fill-30" fill="#00D89A"></path>
            <path d="M8.74398621,5.30271724 L28.2156414,5.3054069 C27.8533655,4.82478621 27.4552966,4.38533793 27.0278483,3.99471724 L10.9813655,3.99471724 C10.1448828,4.62678621 9.35412414,5.04037241 8.74398621,5.30271724 Z M29.0167448,5.7192 L7.01267586,5.71630345 L7.40867586,5.32030345 L7.46929655,5.30623448 C7.48481379,5.30271724 9.05702069,4.94726897 10.7860552,3.62354483 L10.8417103,3.58092414 L27.1869517,3.58092414 L27.2459172,3.63388966 C27.814469,4.14451034 28.3341931,4.73685517 28.7910207,5.39416552 L29.0167448,5.7192 Z" id="Fill-32" fill="#000000"></path>
            <path d="M3.50751724,11.8250069 L30.7231034,11.8250069 C30.6748966,11.2332828 30.5952414,10.6591448 30.4868276,10.1034207 L3.95896552,10.1034207 C3.84393103,10.7261793 3.68772414,11.3013517 3.50751724,11.8250069" id="Fill-34" fill="#00D89A"></path>
            <path d="M3.79382069,11.6181103 L30.4969241,11.6181103 C30.4547172,11.1770069 30.3936828,10.7388 30.315269,10.3103172 L4.12982069,10.3103172 C4.04147586,10.7534897 3.92892414,11.1916966 3.79382069,11.6181103 Z M30.9475448,12.0319034 L3.21761379,12.0319034 L3.31195862,11.7577655 C3.49982069,11.2117655 3.6489931,10.6423862 3.75533793,10.0657655 L3.78678621,9.89652414 L30.6574759,9.89652414 L30.6899586,10.0636966 C30.8006483,10.6320414 30.8813379,11.2190069 30.9293379,11.8082483 L30.9475448,12.0319034 Z" id="Fill-36" fill="#000000"></path>
            <path d="M1.56362069,16.2120621 L29.5892069,16.2120621 C29.8821724,15.3004759 30.3861724,14.6489586 30.5448621,14.4579931 C30.5932759,13.6473724 30.5887241,12.8326138 30.5316207,12.0319241 L3.65410345,12.0319241 C2.94610345,14.0173034 1.94989655,15.2309586 1.75168966,15.4604069 C1.68217241,15.7146828 1.61948276,15.9728897 1.56362069,16.2120621 Z M29.8985172,16.6258552 L1.04493103,16.6258552 L1.10224138,16.3732345 C1.17506897,16.052131 1.2632069,15.6737172 1.36541379,15.3044069 L1.37844828,15.2574414 L1.41134483,15.2208207 C1.42272414,15.2079931 2.56748276,13.9246138 3.31189655,11.7577862 L3.35989655,11.618131 L30.9135517,11.618131 L30.9294828,11.8080621 C31.0035517,12.7122 31.0116207,13.6357862 30.9536897,14.5531655 L30.9491379,14.6247517 L30.9011379,14.6783379 C30.8945172,14.6855793 30.2434138,15.420269 29.9415517,16.4758552 L29.8985172,16.6258552 Z" id="Fill-38" fill="#000000"></path>
        </g>
    </g>
</svg>