<?xml version="1.0" encoding="UTF-8"?>
<svg width="119px" height="28px" viewBox="0 0 119 28" version="1.1" xmlns="http://www.w3.org/2000/svg" xmlns:xlink="http://www.w3.org/1999/xlink">
    <defs>
        <polygon id="path-1" points="0.130009056 0.0879640998 8.09622222 0.0879640998 8.09622222 16.1858858 0.130009056 16.1858858"></polygon>
    </defs>
    <g id="logo-steemit" stroke="none" stroke-width="1" fill="none" fill-rule="evenodd">
        <rect id="container" fill-rule="nonzero" x="0" y="0" width="119" height="28"></rect>
        <g>
            <path d="M24.6918889,16.4138889 C24.6865556,16.0358889 24.6781111,15.6618889 24.6283333,15.2876667 C24.3461111,13.1674444 23.4276667,11.3838889 21.7698889,10.0245556 C19.7861111,8.39766667 17.495,7.79144444 14.9703333,8.21344444 C12.5527778,8.61744444 10.6292222,9.86433333 9.33411111,11.9465556 C7.79411111,14.4216667 7.63766667,17.0376667 8.81788889,19.7138889 C9.08811111,20.3267778 9.131,20.9207778 8.86033333,21.5461111 C8.51655556,22.3398889 7.99144444,23.0034444 7.42188889,23.637 C7.27055556,23.8052222 7.235,23.8854444 7.48766667,23.9778889 C8.34211111,24.2905556 9.19855556,24.5961111 10.0812222,24.8207778 C11.9974444,25.3076667 13.9378889,25.3861111 15.9045556,25.2361111 C18.3218889,25.0516667 20.4132222,24.1285556 22.1518889,22.4776667 C23.871,20.8456667 24.6641111,18.7774444 24.6918889,16.4138889 Z M0.000111111111,10.6887778 C0.0987777778,10.2056667 0.119666667,9.71166667 0.222777778,9.22766667 C0.647,7.23322222 1.56144444,5.50122222 2.95477778,4.01544444 C4.35833333,2.51944444 5.98677778,1.36188889 7.94011111,0.696333333 C9.03277778,0.324111111 10.1725556,0.187222222 11.3136667,0.0654444444 C12.0332222,-0.0116666667 12.7547778,-0.000333333333 13.4763333,0.00188888889 C15.7672222,0.009 18.0001111,0.399888889 20.1945556,1.03277778 C21.3834444,1.37566667 22.5476667,1.78944444 23.6687778,2.317 C23.761,2.36055556 23.9167778,2.375 23.9096667,2.50033333 C23.9027778,2.62366667 23.7456667,2.621 23.6507778,2.66077778 C22.5003333,3.14522222 21.4892222,3.811 20.7578889,4.85011111 C20.5858889,5.09455556 20.4658889,5.365 20.3345556,5.631 C20.2463333,5.80944444 20.3096667,5.89011111 20.4847778,5.96144444 C22.0285556,6.591 23.367,7.52077778 24.4961111,8.747 C26.1061111,10.4952222 27.0798889,12.5481111 27.3574444,14.9096667 C27.7305556,18.0876667 26.9141111,20.9514444 24.8452222,23.3847778 C22.8501111,25.7312222 20.3425556,27.2807778 17.2501111,27.761 C16.6558889,27.8532222 16.0545556,27.9154444 15.4494444,27.9052222 C15.3218889,27.903 15.1912222,27.8916667 15.0716667,27.9561111 L14.063,27.9561111 C13.9632222,27.9005556 13.8534444,27.905 13.745,27.9045556 C12.8141111,27.9012222 11.8923333,27.7874444 10.977,27.6376667 C8.01788889,27.1532222 5.21211111,26.203 2.55722222,24.8103333 C2.31655556,24.6843333 2.06366667,24.5712222 1.85277778,24.3841111 C1.93922222,24.2792222 2.05433333,24.2747778 2.15388889,24.2434444 C2.65477778,24.0854444 3.13788889,23.885 3.59855556,23.6325556 C4.59922222,23.0845556 5.42877778,22.3654444 5.93633333,21.315 C6.04722222,21.0852222 6.01455556,20.9647778 5.78766667,20.8465556 C5.03166667,20.4527778 4.33166667,19.9756667 3.68833333,19.4127778 C1.78766667,17.7496667 0.622111111,15.673 0.171222222,13.1927778 C0.0992222222,12.7961111 0.0563333333,12.3938889 0.000111111111,11.9943333 L0.000111111111,10.6887778 Z" id="Fill-1" fill="#00EFB6"></path>
            <path d="M88.0027778,9.47791111 C89.601,7.77502222 92.7461111,7.7348 94.3054444,9.6488 C94.4676667,9.84768889 94.5647778,9.73257778 94.683,9.61413333 C95.6407778,8.65235556 96.8118889,8.20324444 98.1563333,8.19768889 C100.288333,8.1888 101.753,9.39502222 102.171444,11.4936889 C102.252556,11.9008 102.302556,12.3123556 102.302333,12.7294667 C102.300556,15.3399111 102.302333,17.9501333 102.301889,20.5605778 C102.301667,20.9508 102.293,20.9588 101.903,20.9594667 C101.210778,20.9608 100.518333,20.9468 99.8267778,20.9656889 C99.5216667,20.9741333 99.4396667,20.8645778 99.4407778,20.5712444 C99.4501111,18.1490222 99.4452222,15.7263556 99.4463333,13.3039111 C99.4465556,12.9259111 99.4038889,12.5532444 99.2998889,12.1908 C98.791,10.4168 96.8054444,10.4983556 95.9425556,11.2572444 C95.4241111,11.7132444 95.1632222,12.2668 95.1681111,12.9763556 C95.1854444,15.4974667 95.1752222,18.0190222 95.1745556,20.5401333 C95.1743333,20.9519111 95.167,20.9590222 94.7643333,20.9596889 C94.0623333,20.9605778 93.3603333,20.9610222 92.6583333,20.9594667 C92.2936667,20.9585778 92.2761111,20.9421333 92.2758889,20.5716889 C92.2747778,18.1590222 92.2752222,15.7465778 92.275,13.3341333 C92.275,13.0176889 92.2714444,12.7030222 92.2027778,12.3901333 C91.8785556,10.9134667 90.3485556,10.2665778 89.0612222,11.0694667 C88.3607778,11.5065778 88.0016667,12.1359111 88.0025556,12.9690222 C88.005,15.4905778 88.0034444,18.0116889 88.003,20.5330222 C88.003,20.9581333 88.0016667,20.9592444 87.5725556,20.9596889 C86.8805556,20.9603556 86.1881111,20.9523556 85.4963333,20.9636889 C85.2472222,20.9676889 85.1434444,20.8930222 85.1438889,20.6276889 C85.1498889,16.6923556 85.1492222,12.7572444 85.145,8.82191111 C85.1447778,8.58791111 85.2116667,8.4808 85.465,8.48435556 C86.2065556,8.49568889 86.9481111,8.49368889 87.6896667,8.48546667 C87.9158889,8.4828 88.019,8.56035556 88.0052222,8.79457778 C87.9934444,8.99791111 88.0027778,9.20257778 88.0027778,9.47791111" id="Fill-3" fill="#00EFB6"></path>
            <path d="M76.993,13.2993111 C77.823,13.2993111 78.653,13.2922 79.4827778,13.3035333 C79.7534444,13.3070889 79.8258889,13.1975333 79.8005556,12.9457556 C79.6574444,11.5222 78.6041111,10.5682 77.1738889,10.5762 C75.7152222,10.5844222 74.6505556,11.4468667 74.2381111,12.9542 C74.1541111,13.2606444 74.1785556,13.2973111 74.503,13.2984222 C75.333,13.3013111 76.163,13.2993111 76.993,13.2993111 M78.3314444,15.3806444 C77.0361111,15.3806444 75.741,15.3802 74.4458889,15.3810889 C74.0645556,15.3813111 74.0676667,15.3828667 74.1047778,15.7584222 C74.1785556,16.5013111 74.3905556,17.1895333 74.8725556,17.7775333 C75.5643333,18.6215333 76.4738889,18.9290889 77.5327778,18.8550889 C77.9078889,18.8288667 78.2792222,18.7568667 78.625,18.5993111 C79.1892222,18.3422 79.6098889,17.9379778 79.8181111,17.3470889 C79.8918889,17.1375333 80.0114444,17.0824222 80.2147778,17.0850889 C80.867,17.0933111 81.5196667,17.0868667 82.1723333,17.0886444 C82.5221111,17.0895333 82.5478889,17.1164222 82.4596667,17.4702 C82.0625556,19.0633111 81.1414444,20.2357556 79.5927778,20.8195333 C77.7381111,21.5184222 75.9001111,21.4364222 74.1623333,20.4362 C72.7383333,19.6166444 71.9018889,18.3304222 71.5114444,16.7624222 C71.0334444,14.8417556 71.1758889,12.9657556 72.1383333,11.2099778 C73.0674444,9.51508889 74.5027778,8.5082 76.4334444,8.25153333 C77.7378889,8.0782 78.9847778,8.28042222 80.117,8.96331111 C81.475,9.78242222 82.1625556,11.0633111 82.4807778,12.5753111 C82.651,13.3835333 82.6654444,14.2019778 82.6645556,15.0235333 C82.6643333,15.2913111 82.5796667,15.3873111 82.3058889,15.3853111 C80.9812222,15.3746444 79.6563333,15.3804222 78.3314444,15.3806444" id="Fill-5" fill="#00EFB6"></path>
            <path d="M63.8645333,13.2990889 C64.7040889,13.2990889 65.5436444,13.2966444 66.3829778,13.3010889 C66.5805333,13.3019778 66.7178667,13.2577556 66.6936444,13.0226444 C66.5945333,12.0595333 66.2180889,11.2517556 65.2958667,10.8388667 C63.7803111,10.1602 61.6418667,10.7386444 61.1072,13.0510889 C61.0540889,13.2817556 61.1767556,13.2999778 61.3460889,13.2997556 C62.1856444,13.2984222 63.0252,13.2990889 63.8645333,13.2990889 M65.2276444,15.3804222 C63.9518667,15.3806444 62.6763111,15.3804222 61.4007556,15.3806444 C60.9683111,15.3808667 60.9478667,15.3839778 61.0072,15.8226444 C61.1865333,17.1513111 61.7329778,18.2459778 63.0952,18.6937556 C64.1325333,19.0350889 65.1465333,18.9304222 66.0574222,18.2686444 C66.3700889,18.0417556 66.5832,17.7290889 66.7067556,17.3677556 C66.7809778,17.1508667 66.9036444,17.0813111 67.1229778,17.0846444 C67.7754222,17.0946444 68.4283111,17.0864222 69.0809778,17.0888667 C69.4172,17.0902 69.4436444,17.1166444 69.3609778,17.4535333 C68.9787556,19.0130889 68.0938667,20.1948667 66.5880889,20.7804222 C64.5840889,21.5597556 62.6083111,21.4599778 60.7749778,20.2495333 C59.3545333,19.3119778 58.6123111,17.9186444 58.3060889,16.2824222 C57.9412,14.3328667 58.1798667,12.4653111 59.2952,10.7935333 C60.6665333,8.73775556 62.6383111,7.92575556 65.0594222,8.28597778 C67.4529778,8.64242222 68.9965333,10.2759778 69.4214222,12.7710889 C69.5534222,13.5459778 69.5496444,14.3250889 69.5514222,15.1062 C69.5520889,15.3697556 69.3980889,15.3819778 69.2027556,15.3817556 C67.8776444,15.3793111 66.5527556,15.3804222 65.2276444,15.3804222" id="Fill-7" fill="#00EFB6"></path>
            <path d="M38.1496889,17.3370667 C38.5352444,17.3372889 38.9210222,17.3406222 39.3065778,17.3359556 C39.4714667,17.3339556 39.5912444,17.3812889 39.6559111,17.5468444 C40.0872444,18.6528444 41.2652444,18.9650667 42.2832444,18.9148444 C42.6372444,18.8972889 42.9894667,18.8384 43.3256889,18.7061778 C43.8725778,18.4915111 44.1943556,18.0524 44.2039111,17.4881778 C44.2130222,16.9468444 43.9632444,16.5866222 43.3648,16.3639556 C42.5750222,16.0704 41.7390222,15.9444 40.9248,15.7390667 C40.2350222,15.5648444 39.5370222,15.4248444 38.8854667,15.1212889 C36.9623556,14.2255111 36.7145778,12.2577333 37.2481333,10.8639556 C37.7625778,9.51951111 38.8285778,8.76795556 40.1783556,8.41284444 C41.5954667,8.03995556 43.0072444,8.10973333 44.3634667,8.67995556 C45.6545778,9.22306667 46.4356889,10.2204 46.7754667,11.5737333 C46.8305778,11.7928444 46.7783556,11.8879556 46.5421333,11.8864 C45.7908,11.8806222 45.0392444,11.8824 44.2879111,11.8857333 C44.1325778,11.8864 44.0290222,11.8332889 43.9599111,11.6872889 C43.6652444,11.0650667 43.1488,10.7346222 42.4919111,10.6048444 C41.7741333,10.4628444 41.0756889,10.5057333 40.4183556,10.8621778 C39.9772444,11.1015111 39.7554667,11.4777333 39.7654667,11.9752889 C39.7752444,12.4557333 40.0821333,12.7264 40.4923556,12.8915111 C41.2119111,13.1810667 41.9819111,13.2832889 42.7290222,13.4704 C43.4479111,13.6501778 44.1812444,13.7795111 44.8634667,14.0832889 C45.9994667,14.5892889 46.7670222,15.4181778 46.9165778,16.6777333 C47.1112444,18.3164 46.5356889,19.6288444 45.0901333,20.5019556 C43.1932444,21.6477333 40.0016889,21.4695111 38.2543556,20.1077333 C37.4548,19.4844 36.9454667,18.6668444 36.7263556,17.6701778 C36.6728,17.4261778 36.7259111,17.3228444 36.9928,17.3330667 C37.3779111,17.3481778 37.7641333,17.3368444 38.1496889,17.3370667" id="Fill-9" fill="#00EFB6"></path>
            <path d="M50.3724444,14.5445333 C50.3724444,13.4372 50.3728889,12.3294222 50.3722222,11.2218667 C50.372,10.8209778 50.3695556,10.8189778 49.9811111,10.8176444 C49.546,10.8163111 49.1106667,10.8092 48.6757778,10.8198667 C48.4442222,10.8256444 48.3584444,10.7318667 48.3615556,10.5047556 C48.3695556,9.9312 48.3684444,9.35764444 48.3622222,8.78408889 C48.3597778,8.57053333 48.442,8.4752 48.6604444,8.48675556 C48.9897778,8.50431111 49.3075556,8.46453333 49.6128889,8.31786667 C50.1266667,8.07142222 50.3528889,7.64942222 50.3682222,7.10542222 C50.3835556,6.56208889 50.3788889,6.01764444 50.3697778,5.47408889 C50.366,5.24608889 50.45,5.15497778 50.6813333,5.15764444 C51.4231111,5.16586667 52.1648889,5.1672 52.9064444,5.15697778 C53.1544444,5.15342222 53.234,5.25275556 53.2317778,5.4912 C53.2235556,6.37142222 53.2364444,7.25164444 53.2242222,8.13164444 C53.2204444,8.39875556 53.3028889,8.49897778 53.5793333,8.4932 C54.3008889,8.47786667 55.0231111,8.49475556 55.7448889,8.48453333 C55.9871111,8.4812 56.0817778,8.56586667 56.0768889,8.81097778 C56.066,9.36453333 56.0653333,9.91897778 56.0773333,10.4723111 C56.0826667,10.7252 55.9968889,10.8258667 55.7351111,10.8214222 C55.0133333,10.8092 54.2913333,10.8254222 53.5695556,10.8132 C53.3131111,10.8087556 53.2235556,10.8943111 53.2244444,11.1547556 C53.2326667,13.2018667 53.2246667,15.2489778 53.2317778,17.2960889 C53.2348889,18.2243111 53.7195556,18.6845333 54.6526667,18.7060889 C55.1615556,18.7176444 55.6337778,18.6029778 56.0788889,18.3689778 C56.2902222,18.2578667 56.3673333,18.3232 56.3664444,18.5458667 C56.3644444,19.2083111 56.362,19.8712 56.368,20.5336444 C56.3697778,20.7327556 56.2768889,20.8420889 56.1031111,20.9140889 C55.3353333,21.2323111 54.5324444,21.2989778 53.716,21.2314222 C53.1408889,21.1838667 52.5868889,21.0429778 52.0708889,20.7700889 C51.1115556,20.2625333 50.6106667,19.4392 50.4355556,18.3967556 C50.3066667,17.6312 50.3911111,16.8572 50.3746667,16.0872 C50.3635556,15.5732 50.3724444,15.0587556 50.3724444,14.5445333" id="Fill-11" fill="#00EFB6"></path>
            <g id="Group-15" transform="translate(110.888889, 5.067333)">
                <mask id="mask-2" fill="white">
                    <use xlink:href="#path-1"></use>
                </mask>
                <g id="Clip-14"></g>
                <path d="M2.14262222,9.5384 C2.14262222,8.40151111 2.13595556,7.2644 2.14728889,6.12728889 C2.14995556,5.84751111 2.06017778,5.73484444 1.77306667,5.74595556 C1.33862222,5.7624 0.903066667,5.74173333 0.468177778,5.75306667 C0.231511111,5.75928889 0.125511111,5.68084444 0.1304,5.43106667 C0.141288889,4.86751111 0.141288889,4.30373333 0.130177778,3.7404 C0.125288889,3.49195556 0.2264,3.39706667 0.465511111,3.41951111 C0.553733333,3.42773333 0.643511111,3.42262222 0.7324,3.41884444 C1.56506667,3.38217778 2.11862222,2.83017778 2.13928889,1.99817778 C2.15195556,1.4844 2.15217778,0.969733333 2.13884444,0.455955556 C2.13195556,0.193511111 2.2124,0.0824 2.49173333,0.0881777778 C3.21328889,0.102622222 3.93528889,0.100622222 4.65684444,0.0890666667 C4.91462222,0.0846222222 5.00573333,0.178177778 5.0024,0.434622222 C4.99173333,1.24528889 4.99862222,2.05595556 4.99884444,2.86684444 C4.99884444,3.42062222 4.99884444,3.42062222 5.56773333,3.42084444 C6.21017778,3.42084444 6.85306667,3.42906667 7.49551111,3.41684444 C7.74706667,3.41217778 7.85351111,3.49106667 7.84728889,3.75462222 C7.83395556,4.30795556 7.83417778,4.86195556 7.84706667,5.41528889 C7.85306667,5.67862222 7.74506667,5.75751111 7.4944,5.75373333 C6.78262222,5.74262222 6.0704,5.7584 5.35884444,5.74595556 C5.09528889,5.74106667 4.9924,5.81928889 4.99373333,6.09862222 C5.00351111,8.15506667 4.99506667,10.2115111 5.0024,12.2679556 C5.00528889,13.1461778 5.48884444,13.6097333 6.36706667,13.6379556 C6.88484444,13.6546222 7.37151111,13.5552889 7.82417778,13.3108444 C8.02062222,13.2046222 8.09973333,13.2084 8.09617778,13.4612889 C8.0864,14.1335111 8.08928889,14.8059556 8.09484444,15.4781778 C8.09617778,15.6579556 8.03706667,15.7770667 7.8664,15.8492889 C6.56462222,16.4001778 4.1464,16.3610667 3.01395556,15.0779556 C2.44128889,14.4286222 2.17017778,13.6735111 2.15173333,12.8306222 C2.12751111,11.7337333 2.14573333,10.6357333 2.14573333,9.5384 L2.14262222,9.5384 Z" id="Fill-13" fill="#00EFB6" mask="url(#mask-2)"></path>
            </g>
            <path d="M105.617244,14.6996889 C105.617244,12.7525778 105.617022,10.8056889 105.617467,8.85857778 C105.617689,8.4368 105.619911,8.43546667 106.052356,8.4348 C106.734356,8.43413333 107.416578,8.44435556 108.098356,8.42991111 C108.376133,8.42413333 108.4788,8.51013333 108.478356,8.80013333 C108.4708,12.7339111 108.471022,16.6674667 108.478133,20.6012444 C108.478578,20.8808 108.373911,20.9596889 108.112356,20.9552444 C107.420578,20.9436889 106.728578,20.9523556 106.0368,20.9512444 C105.6248,20.9505778 105.617689,20.9439111 105.617467,20.5408 C105.617022,18.5936889 105.617244,16.6468 105.617244,14.6996889" id="Fill-16" fill="#00EFB6"></path>
            <path d="M108.827756,4.95164444 C108.829978,5.90608889 108.003756,6.71942222 107.037089,6.71497778 C106.083311,6.71053333 105.265756,5.90408889 105.262867,4.96475556 C105.259756,3.98986667 106.051089,3.20497778 107.038867,3.20342222 C108.0302,3.20186667 108.825756,3.9792 108.827756,4.95164444" id="Fill-18" fill="#00EFB6"></path>
        </g>
    </g>
</svg>