<?xml version="1.0" encoding="UTF-8"?>
<svg width="110px" height="28px" viewBox="0 0 110 28" version="1.1" xmlns="http://www.w3.org/2000/svg" xmlns:xlink="http://www.w3.org/1999/xlink">
    <!-- Generator: Sketch 51.1 (57501) - http://www.bohemiancoding.com/sketch -->
    <title>logo-youtube</title>
    <desc>Created with Sketch.</desc>
    <defs>
        <polygon id="path-1" points="8.62068966e-05 0.276149425 34.909569 0.276149425 34.909569 24.7126437 8.62068966e-05 24.7126437"></polygon>
    </defs>
    <g id="logo-youtube" stroke="none" stroke-width="1" fill="none" fill-rule="evenodd">
        <rect id="container" fill-rule="nonzero" x="0" y="0" width="110" height="28"></rect>
        <g transform="translate(0.000000, 2.000000)">
            <g id="youtube" transform="translate(0.000000, 0.011322)">
                <mask id="mask-2" fill="white">
                    <use xlink:href="#path-1"></use>
                </mask>
                <g id="Clip-2"></g>
                <path d="M34.1799713,4.09183908 C33.7785345,2.58982759 32.5954885,1.40706897 31.093477,1.00563218 C28.3713506,0.276034483 17.4546839,0.276034483 17.4546839,0.276034483 C17.4546839,0.276034483 6.5383046,0.276034483 3.8158908,1.00563218 C2.31387931,1.40706897 1.13083333,2.58982759 0.729396552,4.09183908 C8.62068966e-05,6.81425287 8.62068966e-05,12.4944253 8.62068966e-05,12.4944253 C8.62068966e-05,12.4944253 8.62068966e-05,18.1745977 0.729396552,20.8967241 C1.13083333,22.3987356 2.31387931,23.5817816 3.8158908,23.9832184 C6.5383046,24.7128161 17.4546839,24.7128161 17.4546839,24.7128161 C17.4546839,24.7128161 28.3713506,24.7128161 31.093477,23.9832184 C32.5954885,23.5817816 33.7785345,22.3987356 34.1799713,20.8967241 C34.909569,18.1745977 34.909569,12.4944253 34.909569,12.4944253 C34.909569,12.4944253 34.909569,6.81425287 34.1799713,4.09183908" id="Fill-1" fill="#FF0000" mask="url(#mask-2)"></path>
            </g>
            <polygon id="Fill-4" fill="#FFFFFF" points="13.9637356 17.7421839 23.0332759 12.5056897 13.9637356 7.2691954"></polygon>
            <path d="M54.5406034,20.1215805 C54.7316954,19.6224425 54.8276724,18.8072126 54.8276724,17.6750287 L54.8276724,12.9072126 C54.8276724,11.8083621 54.7316954,11.0057759 54.5406034,10.4980172 C54.3489368,9.99025862 54.0121552,9.73623563 53.5293966,9.73623563 C53.0633046,9.73623563 52.734569,9.99025862 52.543477,10.4980172 C52.3518103,11.0057759 52.256408,11.8083621 52.256408,12.9072126 L52.256408,17.6750287 C52.256408,18.8072126 52.3475,19.6224425 52.5308333,20.1215805 C52.7138793,20.6210057 53.0466379,20.870431 53.5293966,20.870431 C54.0121552,20.870431 54.3489368,20.6210057 54.5406034,20.1215805 M50.6710632,22.5184195 C49.9802586,22.0526149 49.4891667,21.328477 49.1983621,20.3462931 C48.9069828,19.3646839 48.7612931,18.0580747 48.7612931,16.4270402 L48.7612931,14.2052011 C48.7612931,12.5575 48.9273851,11.2342241 49.260431,10.2359483 C49.593477,9.2370977 50.1133046,8.50951149 50.8207759,8.05146552 C51.5282471,7.5937069 52.4561207,7.36468391 53.6043966,7.36468391 C54.7360057,7.36468391 55.6429023,7.59801724 56.3253736,8.06382184 C57.0078448,8.52991379 57.5069828,9.25807471 57.8233621,10.2483046 C58.139454,11.2385345 58.2977874,12.5575 58.2977874,14.2052011 L58.2977874,16.4270402 C58.2977874,18.0580747 58.1437644,19.3689943 57.8360057,20.3589368 C57.5279598,21.3491667 57.0285345,22.0733046 56.3380172,22.5307759 C55.6472126,22.9885345 54.7110057,23.2172701 53.5293966,23.2172701 C52.314454,23.2172701 51.3615805,22.9842241 50.6710632,22.5184195" id="Fill-6" fill="#ffffff"></path>
            <path d="M104.131034,10.0225862 C103.956609,10.2389655 103.839655,10.5924138 103.781609,11.0832184 C103.722989,11.5745977 103.694253,12.3191379 103.694253,13.3179885 L103.694253,14.4162644 L106.215517,14.4162644 L106.215517,13.3179885 C106.215517,12.336092 106.182184,11.5912644 106.116092,11.0832184 C106.049138,10.5760345 105.928736,10.2182759 105.753736,10.0099425 C105.579023,9.80189655 105.308621,9.69787356 104.942529,9.69787356 C104.576149,9.69787356 104.306034,9.80649425 104.131034,10.0225862 Z M103.694253,16.4633908 L103.694253,17.2372414 C103.694253,18.2194253 103.722989,18.9559195 103.781609,19.4467241 C103.839655,19.9378161 103.960057,20.2955747 104.143678,20.5202874 C104.326724,20.7447126 104.609483,20.8573563 104.992529,20.8573563 C105.508046,20.8573563 105.861782,20.6576437 106.053448,20.257931 C106.24454,19.8585057 106.348563,19.1929885 106.365517,18.2608046 L109.336207,18.4355172 C109.352874,18.5688506 109.361207,18.7521839 109.361207,18.9846552 C109.361207,20.3995977 108.974138,21.4564943 108.200575,22.1553448 C107.426724,22.8541954 106.332184,23.203908 104.917529,23.203908 C103.220115,23.203908 102.029885,22.6717241 101.347414,21.6062069 C100.664943,20.5412644 100.323851,18.8935632 100.323851,16.6631034 L100.323851,13.9918391 C100.323851,11.695 100.677586,10.0185632 101.385057,8.96166667 C102.092241,7.90477011 103.303161,7.37603448 105.017241,7.37603448 C106.199138,7.37603448 107.106034,7.59270115 107.738506,8.02545977 C108.37069,8.45821839 108.816092,9.13206897 109.074138,10.0472989 C109.332184,10.9628161 109.461207,12.228046 109.461207,13.8421264 L109.461207,16.4633908 L103.694253,16.4633908 Z" id="Fill-8" fill="#ffffff"></path>
            <path d="M42.282069,16.1768966 L38.3625287,2.02172414 L41.7826437,2.02172414 L43.1559195,8.43781609 C43.5053448,10.0191379 43.7631034,11.3671264 43.9294828,12.482069 L44.0294828,12.482069 C44.1458621,11.682931 44.403908,10.3435632 44.8033333,8.46281609 L46.2263218,2.02172414 L49.6467241,2.02172414 L45.6771839,16.1768966 L45.6771839,22.9677011 L42.282069,22.9677011 L42.282069,16.1768966 Z" id="Fill-10" fill="#ffffff"></path>
            <path d="M69.4212644,7.66425287 L69.4212644,22.9677011 L66.725,22.9677011 L66.4255747,21.0952874 L66.3505747,21.0952874 C65.6181034,22.5099425 64.5195402,23.2171264 63.0551724,23.2171264 C62.0399425,23.2171264 61.291092,22.8846552 60.8083333,22.2185632 C60.3255747,21.553046 60.0844828,20.5128161 60.0844828,19.0981609 L60.0844828,7.66425287 L63.5295977,7.66425287 L63.5295977,18.8984483 C63.5295977,19.5809195 63.6045977,20.0677011 63.7543103,20.3587931 C63.904023,20.6501724 64.1537356,20.7955747 64.5031609,20.7955747 C64.8028736,20.7955747 65.0899425,20.7044828 65.3643678,20.5208621 C65.6390805,20.3378161 65.8428161,20.1053448 65.9761494,19.8220115 L65.9761494,7.66425287 L69.4212644,7.66425287 Z" id="Fill-12" fill="#ffffff"></path>
            <path d="M87.0925287,7.66425287 L87.0925287,22.9677011 L84.3962644,22.9677011 L84.0965517,21.0952874 L84.0218391,21.0952874 C83.2893678,22.5099425 82.1908046,23.2171264 80.7264368,23.2171264 C79.7112069,23.2171264 78.9623563,22.8846552 78.4795977,22.2185632 C77.9968391,21.553046 77.7557471,20.5128161 77.7557471,19.0981609 L77.7557471,7.66425287 L81.2008621,7.66425287 L81.2008621,18.8984483 C81.2008621,19.5809195 81.2758621,20.0677011 81.4255747,20.3587931 C81.5752874,20.6501724 81.8247126,20.7955747 82.1744253,20.7955747 C82.4741379,20.7955747 82.7612069,20.7044828 83.0356322,20.5208621 C83.3103448,20.3378161 83.5140805,20.1053448 83.6474138,19.8220115 L83.6474138,7.66425287 L87.0925287,7.66425287 Z" id="Fill-14" fill="#ffffff"></path>
            <polygon id="Fill-16" fill="#ffffff" points="78.7827874 4.79318966 75.3626724 4.79318966 75.3626724 22.9676149 71.9925575 22.9676149 71.9925575 4.79318966 68.5724425 4.79318966 68.5724425 2.02221264 78.7827874 2.02221264"></polygon>
            <path d="M95.3364943,16.3528448 C95.3364943,17.4680747 95.2905172,18.3419253 95.1991379,18.9738218 C95.1074713,19.6065805 94.9534483,20.0562931 94.7373563,20.3220977 C94.520977,20.588477 94.2293103,20.721523 93.8637931,20.721523 C93.5804598,20.721523 93.3183908,20.655431 93.0772989,20.5218103 C92.8359195,20.3887644 92.6405172,20.1893391 92.4905172,19.9226724 L92.4905172,11.2347414 C92.6068966,10.8192241 92.8066092,10.4781322 93.0896552,10.2114655 C93.3724138,9.94537356 93.6801724,9.81204023 94.0135057,9.81204023 C94.362931,9.81204023 94.6333333,9.94939655 94.8247126,10.2241092 C95.0158046,10.4985345 95.1491379,10.9603161 95.2241379,11.609454 C95.2991379,12.258592 95.3364943,13.1821552 95.3364943,14.3807184 L95.3364943,16.3528448 Z M98.4945402,10.1106034 C98.2862069,9.14566092 97.9491379,8.44652299 97.4833333,8.01347701 C97.0175287,7.5812931 96.3764368,7.36462644 95.5612069,7.36462644 C94.9287356,7.36462644 94.337931,7.54364943 93.7887931,7.90140805 C93.2393678,8.25945402 92.8152299,8.72956897 92.5155172,9.31175287 L92.4902299,9.31175287 L92.4905172,1.24824713 L89.1704023,1.24824713 L89.1704023,22.9675 L92.016092,22.9675 L92.3658046,21.5192241 L92.4405172,21.5192241 C92.7066092,22.0353161 93.1060345,22.4430747 93.6387931,22.7427874 C94.1712644,23.0422126 94.7623563,23.1922126 95.4114943,23.1922126 C96.5761494,23.1922126 97.4333333,22.655431 97.9827586,21.5818678 C98.5318966,20.5083046 98.8066092,18.8318678 98.8066092,16.551408 L98.8066092,14.1301437 C98.8066092,12.4160632 98.7022989,11.0761207 98.4945402,10.1106034 Z" id="Fill-18" fill="#ffffff"></path>
        </g>
    </g>
</svg>